<svg width="36" height="36" viewBox="0 0 36 36" fill="none" xmlns="http://www.w3.org/2000/svg">
<rect width="36" height="36" rx="18" fill="#292D33"/>
<path d="M11.3333 10.5H24.6667C25.1269 10.5 25.5 10.8731 25.5 11.3333V24.6667C25.5 25.1269 25.1269 25.5 24.6667 25.5H11.3333C10.8731 25.5 10.5 25.1269 10.5 24.6667V11.3333C10.5 10.8731 10.8731 10.5 11.3333 10.5ZM12.1667 12.1667V23.8333H23.8333V12.1667H12.1667ZM14.25 15.5C13.5596 15.5 13 14.9404 13 14.25C13 13.5596 13.5596 13 14.25 13C14.9404 13 15.5 13.5596 15.5 14.25C15.5 14.9404 14.9404 15.5 14.25 15.5ZM13.4167 16.3333H15.0833V22.5833H13.4167V16.3333ZM18 16.6912C18.487 16.2211 19.0546 15.9167 19.6667 15.9167C21.3925 15.9167 22.5833 17.3157 22.5833 19.0417V22.5833H20.9167V19.0417C20.9167 18.2362 20.2638 17.5833 19.4584 17.5833C18.6529 17.5833 18 18.2362 18 19.0417V22.5833H16.3334V16.3333H18V16.6912Z" fill="white"/>
</svg>
