<svg width="320" height="395" viewBox="0 0 320 395" fill="none" xmlns="http://www.w3.org/2000/svg">
<g filter="url(#filter0_d_119_4697)">
<rect x="54" y="5" width="262" height="330.66" rx="12.2573" fill="white"/>
<path d="M99.6184 290.246C99.5662 289.783 99.3507 289.424 98.972 289.169C98.5934 288.911 98.1167 288.782 97.5422 288.782C97.1308 288.782 96.775 288.848 96.4747 288.978C96.1743 289.105 95.9409 289.282 95.7744 289.507C95.6112 289.729 95.5296 289.982 95.5296 290.266C95.5296 290.504 95.5851 290.71 95.6961 290.883C95.8103 291.056 95.9589 291.201 96.1417 291.319C96.3278 291.433 96.5269 291.529 96.7391 291.608C96.9513 291.683 97.1553 291.745 97.3512 291.794L98.3306 292.048C98.6505 292.127 98.9786 292.233 99.3148 292.367C99.6511 292.501 99.9628 292.677 100.25 292.896C100.537 293.114 100.769 293.385 100.945 293.708C101.125 294.032 101.215 294.419 101.215 294.869C101.215 295.437 101.068 295.941 100.774 296.382C100.484 296.823 100.061 297.171 99.5058 297.425C98.9541 297.68 98.2865 297.807 97.503 297.807C96.7521 297.807 96.1025 297.688 95.5541 297.45C95.0056 297.211 94.5763 296.873 94.2662 296.436C93.9561 295.995 93.7847 295.473 93.752 294.869H95.27C95.2994 295.231 95.4169 295.533 95.6226 295.775C95.8315 296.013 96.0976 296.191 96.4208 296.309C96.7472 296.423 97.1047 296.48 97.4932 296.48C97.9209 296.48 98.3012 296.413 98.6342 296.279C98.9704 296.142 99.2348 295.953 99.4274 295.711C99.6201 295.466 99.7164 295.181 99.7164 294.854C99.7164 294.557 99.6315 294.314 99.4617 294.125C99.2952 293.935 99.0683 293.779 98.7811 293.655C98.497 293.531 98.1755 293.421 97.8164 293.327L96.6314 293.003C95.8283 292.785 95.1917 292.463 94.7216 292.039C94.2548 291.614 94.0213 291.053 94.0213 290.354C94.0213 289.776 94.178 289.272 94.4914 288.841C94.8048 288.41 95.2292 288.075 95.7646 287.837C96.3 287.596 96.9039 287.475 97.5764 287.475C98.2555 287.475 98.8545 287.594 99.3736 287.832C99.8959 288.071 100.307 288.399 100.608 288.817C100.908 289.231 101.065 289.708 101.078 290.246H99.6184ZM106.147 297.792C105.406 297.792 104.768 297.634 104.232 297.317C103.7 296.998 103.289 296.549 102.998 295.971C102.711 295.39 102.568 294.709 102.568 293.929C102.568 293.158 102.711 292.479 102.998 291.892C103.289 291.304 103.694 290.845 104.213 290.516C104.735 290.186 105.346 290.021 106.044 290.021C106.469 290.021 106.88 290.091 107.278 290.232C107.677 290.372 108.034 290.592 108.351 290.893C108.667 291.193 108.917 291.583 109.1 292.063C109.283 292.54 109.374 293.119 109.374 293.802V294.321H103.395V293.224H107.939C107.939 292.838 107.861 292.497 107.704 292.2C107.548 291.9 107.327 291.663 107.043 291.49C106.762 291.317 106.433 291.231 106.054 291.231C105.643 291.231 105.284 291.332 104.977 291.534C104.673 291.733 104.438 291.995 104.272 292.318C104.108 292.638 104.027 292.985 104.027 293.361V294.218C104.027 294.72 104.115 295.148 104.291 295.501C104.471 295.853 104.721 296.123 105.04 296.309C105.36 296.492 105.734 296.583 106.162 296.583C106.439 296.583 106.692 296.544 106.921 296.465C107.149 296.384 107.347 296.263 107.513 296.103C107.68 295.943 107.807 295.746 107.895 295.511L109.281 295.76C109.17 296.168 108.971 296.526 108.684 296.833C108.4 297.136 108.042 297.373 107.611 297.543C107.184 297.709 106.696 297.792 106.147 297.792ZM114.24 297.792C113.499 297.792 112.861 297.634 112.326 297.317C111.794 296.998 111.382 296.549 111.092 295.971C110.804 295.39 110.661 294.709 110.661 293.929C110.661 293.158 110.804 292.479 111.092 291.892C111.382 291.304 111.787 290.845 112.306 290.516C112.828 290.186 113.439 290.021 114.138 290.021C114.562 290.021 114.973 290.091 115.372 290.232C115.77 290.372 116.127 290.592 116.444 290.893C116.761 291.193 117.01 291.583 117.193 292.063C117.376 292.54 117.467 293.119 117.467 293.802V294.321H111.488V293.224H116.033C116.033 292.838 115.954 292.497 115.798 292.2C115.641 291.9 115.42 291.663 115.136 291.49C114.856 291.317 114.526 291.231 114.147 291.231C113.736 291.231 113.377 291.332 113.07 291.534C112.766 291.733 112.531 291.995 112.365 292.318C112.202 292.638 112.12 292.985 112.12 293.361V294.218C112.12 294.72 112.208 295.148 112.384 295.501C112.564 295.853 112.814 296.123 113.134 296.309C113.454 296.492 113.827 296.583 114.255 296.583C114.533 296.583 114.786 296.544 115.014 296.465C115.243 296.384 115.44 296.263 115.607 296.103C115.773 295.943 115.9 295.746 115.989 295.511L117.374 295.76C117.263 296.168 117.064 296.526 116.777 296.833C116.493 297.136 116.135 297.373 115.705 297.543C115.277 297.709 114.789 297.792 114.24 297.792ZM122.859 287.612H124.695L127.888 295.408H128.005L131.198 287.612H133.034V297.641H131.595V290.384H131.502L128.544 297.626H127.349L124.391 290.379H124.298V297.641H122.859V287.612ZM138.285 297.792C137.58 297.792 136.965 297.631 136.439 297.308C135.913 296.984 135.505 296.532 135.215 295.951C134.924 295.37 134.779 294.691 134.779 293.914C134.779 293.134 134.924 292.452 135.215 291.867C135.505 291.283 135.913 290.829 136.439 290.506C136.965 290.183 137.58 290.021 138.285 290.021C138.99 290.021 139.606 290.183 140.131 290.506C140.657 290.829 141.065 291.283 141.355 291.867C141.646 292.452 141.791 293.134 141.791 293.914C141.791 294.691 141.646 295.37 141.355 295.951C141.065 296.532 140.657 296.984 140.131 297.308C139.606 297.631 138.99 297.792 138.285 297.792ZM138.29 296.563C138.747 296.563 139.126 296.443 139.426 296.201C139.726 295.959 139.948 295.638 140.092 295.236C140.239 294.835 140.312 294.392 140.312 293.909C140.312 293.429 140.239 292.989 140.092 292.587C139.948 292.182 139.726 291.857 139.426 291.613C139.126 291.368 138.747 291.245 138.29 291.245C137.83 291.245 137.448 291.368 137.144 291.613C136.844 291.857 136.62 292.182 136.473 292.587C136.33 292.989 136.258 293.429 136.258 293.909C136.258 294.392 136.33 294.835 136.473 295.236C136.62 295.638 136.844 295.959 137.144 296.201C137.448 296.443 137.83 296.563 138.29 296.563ZM143.425 297.641V290.119H144.841V291.314H144.919C145.056 290.909 145.298 290.591 145.644 290.359C145.993 290.124 146.388 290.006 146.829 290.006C146.92 290.006 147.028 290.01 147.152 290.016C147.279 290.023 147.379 290.031 147.451 290.041V291.441C147.392 291.425 147.287 291.407 147.137 291.387C146.987 291.365 146.837 291.353 146.687 291.353C146.341 291.353 146.032 291.427 145.761 291.573C145.494 291.717 145.281 291.918 145.125 292.176C144.968 292.43 144.89 292.721 144.89 293.047V297.641H143.425ZM151.69 297.792C150.949 297.792 150.311 297.634 149.775 297.317C149.243 296.998 148.832 296.549 148.541 295.971C148.254 295.39 148.111 294.709 148.111 293.929C148.111 293.158 148.254 292.479 148.541 291.892C148.832 291.304 149.237 290.845 149.756 290.516C150.278 290.186 150.889 290.021 151.587 290.021C152.012 290.021 152.423 290.091 152.821 290.232C153.22 290.372 153.577 290.592 153.894 290.893C154.21 291.193 154.46 291.583 154.643 292.063C154.826 292.54 154.917 293.119 154.917 293.802V294.321H148.938V293.224H153.482C153.482 292.838 153.404 292.497 153.247 292.2C153.091 291.9 152.87 291.663 152.586 291.49C152.305 291.317 151.976 291.231 151.597 291.231C151.186 291.231 150.827 291.332 150.52 291.534C150.216 291.733 149.981 291.995 149.815 292.318C149.651 292.638 149.57 292.985 149.57 293.361V294.218C149.57 294.72 149.658 295.148 149.834 295.501C150.014 295.853 150.263 296.123 150.583 296.309C150.903 296.492 151.277 296.583 151.705 296.583C151.982 296.583 152.235 296.544 152.464 296.465C152.692 296.384 152.89 296.263 153.056 296.103C153.223 295.943 153.35 295.746 153.438 295.511L154.824 295.76C154.713 296.168 154.514 296.526 154.227 296.833C153.943 297.136 153.585 297.373 153.154 297.543C152.727 297.709 152.239 297.792 151.69 297.792Z" fill="#FF8132"/>
<g filter="url(#filter1_d_119_4697)">
<rect x="88" y="67.0068" width="44" height="44" rx="22" fill="white"/>
<path d="M110 99.0068C104.477 99.0068 100 94.5296 100 89.0068C100 83.484 104.477 79.0068 110 79.0068C115.523 79.0068 120 83.484 120 89.0068C120 94.5296 115.523 99.0068 110 99.0068ZM110 97.0068C114.418 97.0068 118 93.4251 118 89.0068C118 84.5886 114.418 81.0068 110 81.0068C105.582 81.0068 102 84.5886 102 89.0068C102 93.4251 105.582 97.0068 110 97.0068ZM109.003 93.0068L104.76 88.7642L106.174 87.3499L109.003 90.1784L114.66 84.5216L116.074 85.9358L109.003 93.0068Z" fill="#449D5D"/>
</g>
<path d="M150.312 87.3624C150.273 86.9673 150.105 86.6605 149.808 86.4418C149.511 86.223 149.107 86.1137 148.598 86.1137C148.252 86.1137 147.96 86.1626 147.722 86.2606C147.483 86.3552 147.3 86.4875 147.173 86.6572C147.049 86.827 146.987 87.0196 146.987 87.235C146.981 87.4146 147.018 87.5713 147.1 87.7051C147.185 87.839 147.3 87.9549 147.447 88.0528C147.594 88.1475 147.764 88.2307 147.957 88.3026C148.149 88.3711 148.355 88.4299 148.574 88.4788L149.475 88.6943C149.912 88.7922 150.314 88.9228 150.679 89.086C151.045 89.2493 151.362 89.45 151.629 89.6884C151.897 89.9267 152.104 90.2074 152.251 90.5306C152.401 90.8538 152.478 91.2243 152.481 91.6422C152.478 92.2559 152.321 92.788 152.011 93.2386C151.704 93.6858 151.26 94.0335 150.679 94.2816C150.101 94.5264 149.404 94.6488 148.588 94.6488C147.779 94.6488 147.074 94.5248 146.473 94.2767C145.875 94.0286 145.409 93.6613 145.072 93.1749C144.739 92.6852 144.565 92.0796 144.548 91.3582H146.6C146.623 91.6944 146.719 91.9752 146.889 92.2004C147.062 92.4224 147.292 92.5905 147.58 92.7048C147.87 92.8158 148.198 92.8713 148.564 92.8713C148.923 92.8713 149.235 92.8191 149.499 92.7146C149.767 92.6101 149.974 92.4649 150.121 92.2788C150.268 92.0927 150.341 91.8789 150.341 91.6373C150.341 91.412 150.274 91.2227 150.141 91.0693C150.01 90.9158 149.817 90.7852 149.563 90.6775C149.311 90.5698 149.003 90.4718 148.637 90.3837L147.545 90.1095C146.7 89.9038 146.032 89.5823 145.543 89.1448C145.053 88.7074 144.81 88.1181 144.813 87.3771C144.81 86.7698 144.971 86.2394 145.298 85.7856C145.627 85.3318 146.08 84.9776 146.654 84.723C147.229 84.4683 147.882 84.341 148.613 84.341C149.357 84.341 150.007 84.4683 150.562 84.723C151.12 84.9776 151.554 85.3318 151.864 85.7856C152.174 86.2394 152.334 86.7649 152.344 87.3624H150.312ZM157.267 94.6537C156.496 94.6537 155.834 94.4905 155.279 94.1641C154.727 93.8343 154.303 93.3773 154.005 92.7929C153.712 92.2086 153.565 91.5361 153.565 90.7755C153.565 90.005 153.713 89.3293 154.01 88.7482C154.311 88.1638 154.737 87.7084 155.288 87.3819C155.84 87.0522 156.496 86.8874 157.257 86.8874C157.913 86.8874 158.488 87.0065 158.981 87.2448C159.474 87.4831 159.864 87.8178 160.151 88.2487C160.438 88.6796 160.597 89.1856 160.626 89.7667H158.657C158.602 89.3913 158.455 89.0893 158.217 88.8608C157.982 88.629 157.673 88.5131 157.291 88.5131C156.968 88.5131 156.686 88.6013 156.444 88.7775C156.206 88.9506 156.02 89.2036 155.886 89.5366C155.752 89.8695 155.685 90.2727 155.685 90.7461C155.685 91.226 155.75 91.634 155.881 91.9703C156.015 92.3065 156.202 92.5628 156.444 92.7391C156.686 92.9154 156.968 93.0035 157.291 93.0035C157.53 93.0035 157.743 92.9545 157.933 92.8566C158.125 92.7587 158.284 92.6167 158.408 92.4306C158.535 92.2412 158.618 92.0143 158.657 91.7499H160.626C160.593 92.3245 160.437 92.8305 160.156 93.2679C159.878 93.7021 159.495 94.0416 159.005 94.2865C158.515 94.5313 157.936 94.6537 157.267 94.6537ZM164.106 94.6488C163.626 94.6488 163.199 94.5656 162.823 94.3991C162.448 94.2293 162.151 93.9796 161.932 93.6499C161.717 93.3169 161.609 92.9023 161.609 92.4061C161.609 91.9882 161.686 91.6373 161.839 91.3533C161.993 91.0693 162.202 90.8407 162.466 90.6677C162.73 90.4947 163.031 90.3641 163.367 90.276C163.706 90.1878 164.062 90.1258 164.434 90.0899C164.872 90.0442 165.224 90.0018 165.492 89.9626C165.76 89.9201 165.954 89.8581 166.075 89.7765C166.196 89.6949 166.256 89.5741 166.256 89.4141V89.3848C166.256 89.0746 166.158 88.8347 165.962 88.6649C165.77 88.4952 165.495 88.4103 165.14 88.4103C164.764 88.4103 164.465 88.4935 164.243 88.66C164.022 88.8232 163.875 89.0289 163.803 89.277L161.873 89.1203C161.971 88.6633 162.164 88.2683 162.451 87.9353C162.739 87.599 163.109 87.3411 163.563 87.1616C164.02 86.9788 164.549 86.8874 165.149 86.8874C165.567 86.8874 165.967 86.9363 166.349 87.0343C166.734 87.1322 167.075 87.284 167.373 87.4897C167.673 87.6953 167.91 87.9598 168.083 88.283C168.256 88.6029 168.342 88.9865 168.342 89.4337V94.5068H166.364V93.4638H166.305C166.184 93.6989 166.023 93.9062 165.82 94.0857C165.618 94.262 165.375 94.4007 165.091 94.5019C164.807 94.5999 164.479 94.6488 164.106 94.6488ZM164.704 93.2092C165.011 93.2092 165.282 93.1488 165.517 93.028C165.752 92.9039 165.936 92.7374 166.07 92.5285C166.204 92.3196 166.271 92.0829 166.271 91.8185V91.0203C166.205 91.0627 166.116 91.1019 166.001 91.1378C165.89 91.1705 165.765 91.2015 165.624 91.2309C165.484 91.257 165.344 91.2815 165.203 91.3043C165.063 91.3239 164.936 91.3419 164.821 91.3582C164.576 91.3941 164.363 91.4512 164.18 91.5296C163.997 91.6079 163.855 91.714 163.754 91.8479C163.653 91.9784 163.602 92.1417 163.602 92.3375C163.602 92.6216 163.705 92.8386 163.911 92.9888C164.119 93.1357 164.384 93.2092 164.704 93.2092ZM172.047 84.4781V94.5068H169.961V84.4781H172.047ZM177.145 94.6537C176.372 94.6537 175.706 94.497 175.148 94.1836C174.593 93.867 174.165 93.4197 173.865 92.8419C173.564 92.2608 173.414 91.5736 173.414 90.7803C173.414 90.0066 173.564 89.3276 173.865 88.7433C174.165 88.1589 174.588 87.7035 175.133 87.3771C175.681 87.0506 176.324 86.8874 177.062 86.8874C177.558 86.8874 178.02 86.9673 178.448 87.1273C178.879 87.284 179.254 87.5207 179.574 87.8374C179.897 88.154 180.149 88.5523 180.328 89.0322C180.508 89.5088 180.598 90.067 180.598 90.7069V91.2798H174.246V89.9871H178.634C178.634 89.6867 178.569 89.4207 178.438 89.1889C178.308 88.9571 178.126 88.7759 177.895 88.6453C177.666 88.5115 177.4 88.4446 177.096 88.4446C176.78 88.4446 176.499 88.518 176.254 88.6649C176.013 88.8086 175.823 89.0028 175.686 89.2476C175.549 89.4892 175.479 89.7585 175.476 90.0556V91.2847C175.476 91.6569 175.544 91.9784 175.681 92.2494C175.822 92.5204 176.019 92.7293 176.274 92.8762C176.528 93.0231 176.83 93.0965 177.18 93.0965C177.411 93.0965 177.624 93.0639 177.816 92.9986C178.009 92.9333 178.174 92.8354 178.311 92.7048C178.448 92.5742 178.552 92.4143 178.624 92.2249L180.554 92.3522C180.456 92.8158 180.255 93.2206 179.951 93.5666C179.651 93.9094 179.262 94.1771 178.786 94.3697C178.312 94.5591 177.766 94.6537 177.145 94.6537ZM186.634 94.5068L184.587 86.9853H186.698L187.863 92.0388H187.932L189.146 86.9853H191.218L192.452 92.0095H192.515L193.661 86.9853H195.767L193.725 94.5068H191.516L190.224 89.7765H190.131L188.838 94.5068H186.634ZM196.88 94.5068V86.9853H198.966V94.5068H196.88ZM197.928 86.0157C197.617 86.0157 197.351 85.9129 197.129 85.7072C196.911 85.4983 196.801 85.2486 196.801 84.958C196.801 84.6707 196.911 84.4243 197.129 84.2186C197.351 84.0097 197.617 83.9052 197.928 83.9052C198.238 83.9052 198.502 84.0097 198.721 84.2186C198.943 84.4243 199.054 84.6707 199.054 84.958C199.054 85.2486 198.943 85.4983 198.721 85.7072C198.502 85.9129 198.238 86.0157 197.928 86.0157ZM204.637 86.9853V88.5523H200.108V86.9853H204.637ZM201.136 85.1833H203.222V92.1955C203.222 92.3881 203.252 92.5383 203.31 92.646C203.369 92.7505 203.451 92.824 203.555 92.8664C203.663 92.9088 203.787 92.9301 203.927 92.9301C204.025 92.9301 204.123 92.9219 204.221 92.9056C204.319 92.886 204.394 92.8713 204.446 92.8615L204.775 94.4138C204.67 94.4464 204.523 94.484 204.334 94.5264C204.144 94.5721 203.914 94.5999 203.643 94.6097C203.141 94.6293 202.7 94.5623 202.321 94.4089C201.946 94.2555 201.654 94.0172 201.445 93.694C201.236 93.3708 201.133 92.9627 201.136 92.4698V85.1833ZM208.244 90.1585V94.5068H206.158V84.4781H208.185V88.3123H208.273C208.443 87.8684 208.717 87.5207 209.096 87.2693C209.475 87.0147 209.95 86.8874 210.521 86.8874C211.043 86.8874 211.499 87.0016 211.887 87.2301C212.279 87.4554 212.583 87.7802 212.798 88.2046C213.017 88.6257 213.124 89.1301 213.121 89.7177V94.5068H211.035V90.0899C211.038 89.6263 210.921 89.2656 210.683 89.0077C210.448 88.7498 210.118 88.6208 209.693 88.6208C209.409 88.6208 209.158 88.6812 208.939 88.802C208.724 88.9228 208.554 89.0991 208.43 89.3309C208.309 89.5594 208.247 89.8353 208.244 90.1585ZM221.382 94.6537C220.608 94.6537 219.942 94.497 219.384 94.1836C218.829 93.867 218.402 93.4197 218.101 92.8419C217.801 92.2608 217.651 91.5736 217.651 90.7803C217.651 90.0066 217.801 89.3276 218.101 88.7433C218.402 88.1589 218.824 87.7035 219.37 87.3771C219.918 87.0506 220.561 86.8874 221.299 86.8874C221.795 86.8874 222.257 86.9673 222.685 87.1273C223.116 87.284 223.491 87.5207 223.811 87.8374C224.134 88.154 224.386 88.5523 224.565 89.0322C224.745 89.5088 224.834 90.067 224.834 90.7069V91.2798H218.483V89.9871H222.871C222.871 89.6867 222.806 89.4207 222.675 89.1889C222.544 88.9571 222.363 88.7759 222.131 88.6453C221.903 88.5115 221.637 88.4446 221.333 88.4446C221.017 88.4446 220.736 88.518 220.491 88.6649C220.249 88.8086 220.06 89.0028 219.923 89.2476C219.786 89.4892 219.716 89.7585 219.712 90.0556V91.2847C219.712 91.6569 219.781 91.9784 219.918 92.2494C220.058 92.5204 220.256 92.7293 220.511 92.8762C220.765 93.0231 221.067 93.0965 221.416 93.0965C221.648 93.0965 221.86 93.0639 222.053 92.9986C222.246 92.9333 222.41 92.8354 222.548 92.7048C222.685 92.5742 222.789 92.4143 222.861 92.2249L224.79 92.3522C224.692 92.8158 224.492 93.2206 224.188 93.5666C223.888 93.9094 223.499 94.1771 223.023 94.3697C222.549 94.5591 222.002 94.6537 221.382 94.6537ZM228.341 94.6488C227.861 94.6488 227.433 94.5656 227.058 94.3991C226.682 94.2293 226.385 93.9796 226.166 93.6499C225.951 93.3169 225.843 92.9023 225.843 92.4061C225.843 91.9882 225.92 91.6373 226.073 91.3533C226.227 91.0693 226.436 90.8407 226.7 90.6677C226.965 90.4947 227.265 90.3641 227.601 90.276C227.941 90.1878 228.296 90.1258 228.669 90.0899C229.106 90.0442 229.459 90.0018 229.726 89.9626C229.994 89.9201 230.188 89.8581 230.309 89.7765C230.43 89.6949 230.49 89.5741 230.49 89.4141V89.3848C230.49 89.0746 230.392 88.8347 230.196 88.6649C230.004 88.4952 229.73 88.4103 229.374 88.4103C228.998 88.4103 228.7 88.4935 228.478 88.66C228.256 88.8232 228.109 89.0289 228.037 89.277L226.108 89.1203C226.206 88.6633 226.398 88.2683 226.685 87.9353C226.973 87.599 227.343 87.3411 227.797 87.1616C228.254 86.9788 228.783 86.8874 229.384 86.8874C229.801 86.8874 230.201 86.9363 230.583 87.0343C230.969 87.1322 231.31 87.284 231.607 87.4897C231.907 87.6953 232.144 87.9598 232.317 88.283C232.49 88.6029 232.576 88.9865 232.576 89.4337V94.5068H230.598V93.4638H230.539C230.418 93.6989 230.257 93.9062 230.054 94.0857C229.852 94.262 229.609 94.4007 229.325 94.5019C229.041 94.5999 228.713 94.6488 228.341 94.6488ZM228.938 93.2092C229.245 93.2092 229.516 93.1488 229.751 93.028C229.986 92.9039 230.17 92.7374 230.304 92.5285C230.438 92.3196 230.505 92.0829 230.505 91.8185V91.0203C230.44 91.0627 230.35 91.1019 230.236 91.1378C230.125 91.1705 229.999 91.2015 229.859 91.2309C229.718 91.257 229.578 91.2815 229.437 91.3043C229.297 91.3239 229.17 91.3419 229.055 91.3582C228.811 91.3941 228.597 91.4512 228.414 91.5296C228.231 91.6079 228.089 91.714 227.988 91.8479C227.887 91.9784 227.836 92.1417 227.836 92.3375C227.836 92.6216 227.939 92.8386 228.145 92.9888C228.354 93.1357 228.618 93.2092 228.938 93.2092ZM240.453 89.1301L238.543 89.2476C238.51 89.0844 238.44 88.9375 238.333 88.8069C238.225 88.6731 238.083 88.567 237.907 88.4886C237.733 88.407 237.526 88.3662 237.285 88.3662C236.961 88.3662 236.689 88.4348 236.467 88.5719C236.245 88.7057 236.134 88.8853 236.134 89.1105C236.134 89.2901 236.206 89.4419 236.349 89.5659C236.493 89.69 236.739 89.7896 237.089 89.8646L238.45 90.1389C239.181 90.289 239.726 90.5306 240.086 90.8636C240.445 91.1966 240.624 91.634 240.624 92.1759C240.624 92.6689 240.479 93.1014 240.188 93.4736C239.901 93.8458 239.506 94.1363 239.003 94.3452C238.504 94.5509 237.928 94.6537 237.275 94.6537C236.279 94.6537 235.486 94.4464 234.895 94.0318C234.307 93.614 233.963 93.0459 233.862 92.3277L235.913 92.22C235.976 92.5236 236.126 92.7554 236.364 92.9154C236.602 93.0721 236.908 93.1504 237.28 93.1504C237.645 93.1504 237.939 93.0802 238.161 92.9399C238.386 92.7962 238.501 92.6118 238.504 92.3865C238.501 92.1972 238.421 92.0421 238.264 91.9213C238.107 91.7973 237.866 91.7026 237.539 91.6373L236.237 91.3778C235.502 91.2309 234.955 90.9762 234.596 90.6139C234.24 90.2515 234.062 89.7896 234.062 89.2281C234.062 88.7449 234.193 88.3287 234.454 87.9794C234.719 87.6301 235.089 87.3607 235.566 87.1714C236.046 86.982 236.607 86.8874 237.25 86.8874C238.2 86.8874 238.948 87.0881 239.493 87.4897C240.042 87.8912 240.361 88.438 240.453 89.1301ZM245.366 94.6537C244.592 94.6537 243.926 94.497 243.368 94.1836C242.813 93.867 242.385 93.4197 242.085 92.8419C241.784 92.2608 241.634 91.5736 241.634 90.7803C241.634 90.0066 241.784 89.3276 242.085 88.7433C242.385 88.1589 242.808 87.7035 243.353 87.3771C243.901 87.0506 244.545 86.8874 245.282 86.8874C245.779 86.8874 246.241 86.9673 246.668 87.1273C247.099 87.284 247.475 87.5207 247.794 87.8374C248.118 88.154 248.369 88.5523 248.549 89.0322C248.728 89.5088 248.818 90.067 248.818 90.7069V91.2798H242.467V89.9871H246.854C246.854 89.6867 246.789 89.4207 246.658 89.1889C246.528 88.9571 246.347 88.7759 246.115 88.6453C245.886 88.5115 245.62 88.4446 245.317 88.4446C245 88.4446 244.719 88.518 244.474 88.6649C244.233 88.8086 244.043 89.0028 243.906 89.2476C243.769 89.4892 243.699 89.7585 243.696 90.0556V91.2847C243.696 91.6569 243.764 91.9784 243.901 92.2494C244.042 92.5204 244.239 92.7293 244.494 92.8762C244.749 93.0231 245.051 93.0965 245.4 93.0965C245.632 93.0965 245.844 93.0639 246.036 92.9986C246.229 92.9333 246.394 92.8354 246.531 92.7048C246.668 92.5742 246.773 92.4143 246.844 92.2249L248.774 92.3522C248.676 92.8158 248.475 93.2206 248.171 93.5666C247.871 93.9094 247.483 94.1771 247.006 94.3697C246.533 94.5591 245.986 94.6537 245.366 94.6537Z" fill="#111235"/>
<g filter="url(#filter2_d_119_4697)">
<rect x="88" y="135.954" width="44" height="44" rx="22" fill="white"/>
<path d="M110 167.954C104.477 167.954 100 163.477 100 157.954C100 152.431 104.477 147.954 110 147.954C115.523 147.954 120 152.431 120 157.954C120 163.477 115.523 167.954 110 167.954ZM110 165.954C114.418 165.954 118 162.372 118 157.954C118 153.536 114.418 149.954 110 149.954C105.582 149.954 102 153.536 102 157.954C102 162.372 105.582 165.954 110 165.954ZM109.003 161.954L104.76 157.712L106.174 156.297L109.003 159.126L114.66 153.469L116.074 154.883L109.003 161.954Z" fill="#449D5D"/>
</g>
<path d="M144.872 163.454V153.425H148.887C149.625 153.425 150.24 153.535 150.733 153.753C151.226 153.972 151.597 154.276 151.845 154.664C152.093 155.05 152.217 155.493 152.217 155.996C152.217 156.388 152.139 156.732 151.982 157.029C151.825 157.323 151.61 157.565 151.335 157.754C151.064 157.94 150.754 158.072 150.405 158.151V158.249C150.787 158.265 151.144 158.373 151.477 158.572C151.814 158.771 152.086 159.05 152.295 159.409C152.504 159.765 152.609 160.19 152.609 160.682C152.609 161.215 152.476 161.69 152.212 162.107C151.951 162.522 151.564 162.85 151.051 163.092C150.539 163.333 149.907 163.454 149.156 163.454H144.872ZM146.992 161.721H148.721C149.311 161.721 149.742 161.608 150.013 161.383C150.284 161.154 150.42 160.851 150.42 160.472C150.42 160.194 150.353 159.95 150.219 159.737C150.085 159.525 149.894 159.359 149.646 159.238C149.401 159.117 149.109 159.057 148.77 159.057H146.992V161.721ZM146.992 157.622H148.564C148.854 157.622 149.112 157.571 149.338 157.47C149.566 157.366 149.746 157.219 149.876 157.029C150.01 156.84 150.077 156.613 150.077 156.349C150.077 155.986 149.948 155.694 149.69 155.472C149.435 155.25 149.073 155.139 148.603 155.139H146.992V157.622ZM157.348 163.601C156.587 163.601 155.929 163.439 155.374 163.116C154.822 162.79 154.396 162.336 154.096 161.755C153.796 161.171 153.646 160.493 153.646 159.723C153.646 158.946 153.796 158.267 154.096 157.686C154.396 157.101 154.822 156.648 155.374 156.324C155.929 155.998 156.587 155.835 157.348 155.835C158.108 155.835 158.764 155.998 159.316 156.324C159.871 156.648 160.299 157.101 160.599 157.686C160.899 158.267 161.05 158.946 161.05 159.723C161.05 160.493 160.899 161.171 160.599 161.755C160.299 162.336 159.871 162.79 159.316 163.116C158.764 163.439 158.108 163.601 157.348 163.601ZM157.357 161.985C157.703 161.985 157.992 161.887 158.224 161.691C158.456 161.492 158.631 161.221 158.748 160.878C158.869 160.536 158.929 160.145 158.929 159.708C158.929 159.271 158.869 158.88 158.748 158.538C158.631 158.195 158.456 157.924 158.224 157.725C157.992 157.526 157.703 157.426 157.357 157.426C157.008 157.426 156.714 157.526 156.476 157.725C156.241 157.924 156.063 158.195 155.942 158.538C155.825 158.88 155.766 159.271 155.766 159.708C155.766 160.145 155.825 160.536 155.942 160.878C156.063 161.221 156.241 161.492 156.476 161.691C156.714 161.887 157.008 161.985 157.357 161.985ZM165.804 163.601C165.044 163.601 164.386 163.439 163.831 163.116C163.279 162.79 162.853 162.336 162.553 161.755C162.253 161.171 162.102 160.493 162.102 159.723C162.102 158.946 162.253 158.267 162.553 157.686C162.853 157.101 163.279 156.648 163.831 156.324C164.386 155.998 165.044 155.835 165.804 155.835C166.565 155.835 167.221 155.998 167.773 156.324C168.328 156.648 168.756 157.101 169.056 157.686C169.356 158.267 169.506 158.946 169.506 159.723C169.506 160.493 169.356 161.171 169.056 161.755C168.756 162.336 168.328 162.79 167.773 163.116C167.221 163.439 166.565 163.601 165.804 163.601ZM165.814 161.985C166.16 161.985 166.449 161.887 166.681 161.691C166.913 161.492 167.087 161.221 167.205 160.878C167.326 160.536 167.386 160.145 167.386 159.708C167.386 159.271 167.326 158.88 167.205 158.538C167.087 158.195 166.913 157.924 166.681 157.725C166.449 157.526 166.16 157.426 165.814 157.426C165.465 157.426 165.171 157.526 164.933 157.725C164.698 157.924 164.52 158.195 164.399 158.538C164.281 158.88 164.223 159.271 164.223 159.708C164.223 160.145 164.281 160.536 164.399 160.878C164.52 161.221 164.698 161.492 164.933 161.691C165.171 161.887 165.465 161.985 165.814 161.985ZM177.121 158.077L175.211 158.195C175.179 158.032 175.108 157.885 175.001 157.754C174.893 157.62 174.751 157.514 174.575 157.436C174.402 157.354 174.194 157.313 173.953 157.313C173.629 157.313 173.357 157.382 173.135 157.519C172.913 157.653 172.802 157.833 172.802 158.058C172.802 158.237 172.874 158.389 173.017 158.513C173.161 158.637 173.408 158.737 173.757 158.812L175.118 159.086C175.849 159.236 176.395 159.478 176.754 159.811C177.113 160.144 177.292 160.581 177.292 161.123C177.292 161.616 177.147 162.049 176.857 162.421C176.569 162.793 176.174 163.084 175.671 163.293C175.172 163.498 174.596 163.601 173.943 163.601C172.947 163.601 172.154 163.394 171.563 162.979C170.975 162.561 170.631 161.993 170.53 161.275L172.582 161.167C172.644 161.471 172.794 161.703 173.032 161.863C173.27 162.019 173.576 162.098 173.948 162.098C174.313 162.098 174.607 162.027 174.829 161.887C175.054 161.743 175.169 161.559 175.172 161.334C175.169 161.144 175.089 160.989 174.932 160.869C174.775 160.745 174.534 160.65 174.207 160.585L172.905 160.325C172.17 160.178 171.623 159.923 171.264 159.561C170.908 159.199 170.731 158.737 170.731 158.175C170.731 157.692 170.861 157.276 171.122 156.927C171.387 156.577 171.757 156.308 172.234 156.119C172.714 155.929 173.275 155.835 173.918 155.835C174.868 155.835 175.616 156.035 176.161 156.437C176.71 156.838 177.03 157.385 177.121 158.077ZM182.607 155.933V157.5H178.077V155.933H182.607ZM179.105 154.131H181.191V161.143C181.191 161.335 181.221 161.486 181.28 161.593C181.338 161.698 181.42 161.771 181.524 161.814C181.632 161.856 181.756 161.877 181.897 161.877C181.995 161.877 182.092 161.869 182.19 161.853C182.288 161.833 182.363 161.819 182.416 161.809L182.744 163.361C182.639 163.394 182.492 163.431 182.303 163.474C182.114 163.519 181.884 163.547 181.613 163.557C181.11 163.577 180.669 163.51 180.29 163.356C179.915 163.203 179.623 162.964 179.414 162.641C179.205 162.318 179.102 161.91 179.105 161.417V154.131ZM187.196 163.454V153.425H191.153C191.913 153.425 192.561 153.571 193.097 153.861C193.632 154.148 194.04 154.548 194.321 155.061C194.605 155.57 194.747 156.158 194.747 156.824C194.747 157.49 194.603 158.077 194.316 158.587C194.029 159.096 193.613 159.493 193.067 159.777C192.526 160.061 191.869 160.203 191.099 160.203H188.577V158.503H190.756C191.164 158.503 191.5 158.433 191.765 158.293C192.033 158.149 192.232 157.952 192.362 157.7C192.496 157.446 192.563 157.154 192.563 156.824C192.563 156.491 192.496 156.2 192.362 155.952C192.232 155.701 192.033 155.507 191.765 155.369C191.497 155.229 191.158 155.159 190.746 155.159H189.316V163.454H187.196ZM196.085 163.454V155.933H198.108V157.245H198.186C198.323 156.778 198.553 156.426 198.876 156.187C199.2 155.946 199.572 155.825 199.993 155.825C200.097 155.825 200.21 155.831 200.331 155.844C200.451 155.857 200.558 155.875 200.649 155.898V157.749C200.551 157.72 200.416 157.694 200.243 157.671C200.07 157.648 199.911 157.637 199.768 157.637C199.461 157.637 199.186 157.704 198.945 157.837C198.707 157.968 198.517 158.151 198.377 158.386C198.24 158.621 198.171 158.892 198.171 159.199V163.454H196.085ZM204.776 163.601C204.015 163.601 203.357 163.439 202.802 163.116C202.251 162.79 201.825 162.336 201.524 161.755C201.224 161.171 201.074 160.493 201.074 159.723C201.074 158.946 201.224 158.267 201.524 157.686C201.825 157.101 202.251 156.648 202.802 156.324C203.357 155.998 204.015 155.835 204.776 155.835C205.536 155.835 206.193 155.998 206.744 156.324C207.299 156.648 207.727 157.101 208.027 157.686C208.328 158.267 208.478 158.946 208.478 159.723C208.478 160.493 208.328 161.171 208.027 161.755C207.727 162.336 207.299 162.79 206.744 163.116C206.193 163.439 205.536 163.601 204.776 163.601ZM204.786 161.985C205.132 161.985 205.421 161.887 205.652 161.691C205.884 161.492 206.059 161.221 206.176 160.878C206.297 160.536 206.357 160.145 206.357 159.708C206.357 159.271 206.297 158.88 206.176 158.538C206.059 158.195 205.884 157.924 205.652 157.725C205.421 157.526 205.132 157.426 204.786 157.426C204.436 157.426 204.142 157.526 203.904 157.725C203.669 157.924 203.491 158.195 203.37 158.538C203.253 158.88 203.194 159.271 203.194 159.708C203.194 160.145 203.253 160.536 203.37 160.878C203.491 161.221 203.669 161.492 203.904 161.691C204.142 161.887 204.436 161.985 204.786 161.985ZM212.606 163.577C212.035 163.577 211.517 163.43 211.054 163.136C210.593 162.839 210.228 162.403 209.957 161.828C209.689 161.251 209.555 160.542 209.555 159.703C209.555 158.841 209.694 158.125 209.971 157.553C210.249 156.979 210.618 156.55 211.078 156.266C211.542 155.978 212.049 155.835 212.601 155.835C213.022 155.835 213.373 155.906 213.654 156.05C213.938 156.19 214.166 156.367 214.339 156.579C214.516 156.788 214.649 156.994 214.741 157.196H214.804V153.425H216.886V163.454H214.829V162.249H214.741C214.643 162.458 214.504 162.666 214.325 162.871C214.148 163.074 213.918 163.242 213.634 163.376C213.353 163.51 213.011 163.577 212.606 163.577ZM213.267 161.916C213.603 161.916 213.887 161.825 214.119 161.642C214.354 161.456 214.534 161.197 214.658 160.864C214.785 160.531 214.849 160.141 214.849 159.693C214.849 159.246 214.787 158.858 214.662 158.528C214.538 158.198 214.359 157.944 214.124 157.764C213.889 157.584 213.603 157.495 213.267 157.495C212.924 157.495 212.635 157.588 212.4 157.774C212.165 157.96 211.987 158.218 211.866 158.547C211.746 158.877 211.685 159.259 211.685 159.693C211.685 160.131 211.746 160.518 211.866 160.854C211.99 161.187 212.168 161.448 212.4 161.637C212.635 161.823 212.924 161.916 213.267 161.916ZM223.424 160.252V155.933H225.51V163.454H223.507V162.088H223.429C223.259 162.529 222.977 162.883 222.582 163.15C222.19 163.418 221.712 163.552 221.147 163.552C220.644 163.552 220.202 163.438 219.82 163.209C219.438 162.981 219.139 162.656 218.924 162.235C218.712 161.814 218.604 161.309 218.601 160.722V155.933H220.687V160.35C220.69 160.793 220.809 161.144 221.044 161.402C221.279 161.66 221.594 161.789 221.989 161.789C222.241 161.789 222.476 161.732 222.695 161.618C222.913 161.5 223.09 161.327 223.223 161.099C223.36 160.87 223.427 160.588 223.424 160.252ZM230.577 163.601C229.807 163.601 229.144 163.438 228.589 163.111C228.037 162.782 227.613 162.325 227.316 161.74C227.022 161.156 226.875 160.483 226.875 159.723C226.875 158.952 227.024 158.277 227.321 157.695C227.621 157.111 228.047 156.656 228.599 156.329C229.151 155.999 229.807 155.835 230.567 155.835C231.224 155.835 231.798 155.954 232.291 156.192C232.784 156.43 233.174 156.765 233.461 157.196C233.749 157.627 233.907 158.133 233.936 158.714H231.968C231.912 158.339 231.765 158.037 231.527 157.808C231.292 157.576 230.984 157.46 230.602 157.46C230.278 157.46 229.996 157.549 229.755 157.725C229.516 157.898 229.33 158.151 229.196 158.484C229.062 158.817 228.996 159.22 228.996 159.693C228.996 160.173 229.061 160.581 229.191 160.918C229.325 161.254 229.513 161.51 229.755 161.686C229.996 161.863 230.278 161.951 230.602 161.951C230.84 161.951 231.054 161.902 231.243 161.804C231.436 161.706 231.594 161.564 231.718 161.378C231.845 161.189 231.929 160.962 231.968 160.697H233.936C233.904 161.272 233.747 161.778 233.466 162.215C233.189 162.649 232.805 162.989 232.316 163.234C231.826 163.479 231.246 163.601 230.577 163.601ZM239.273 155.933V157.5H234.743V155.933H239.273ZM235.771 154.131H237.858V161.143C237.858 161.335 237.887 161.486 237.946 161.593C238.004 161.698 238.086 161.771 238.191 161.814C238.298 161.856 238.422 161.877 238.563 161.877C238.661 161.877 238.759 161.869 238.856 161.853C238.954 161.833 239.03 161.819 239.082 161.809L239.41 163.361C239.305 163.394 239.158 163.431 238.969 163.474C238.78 163.519 238.55 163.547 238.279 163.557C237.776 163.577 237.335 163.51 236.957 163.356C236.581 163.203 236.289 162.964 236.08 162.641C235.871 162.318 235.768 161.91 235.771 161.417V154.131ZM240.632 163.454V155.933H242.718V163.454H240.632ZM241.68 154.963C241.369 154.963 241.103 154.86 240.881 154.654C240.663 154.446 240.553 154.196 240.553 153.905C240.553 153.618 240.663 153.372 240.881 153.166C241.103 152.957 241.369 152.852 241.68 152.852C241.99 152.852 242.254 152.957 242.473 153.166C242.695 153.372 242.806 153.618 242.806 153.905C242.806 154.196 242.695 154.446 242.473 154.654C242.254 154.86 241.99 154.963 241.68 154.963ZM251.401 155.933L248.771 163.454H246.421L243.791 155.933H245.995L247.557 161.314H247.635L249.192 155.933H251.401ZM252.468 163.454V155.933H254.555V163.454H252.468ZM253.516 154.963C253.206 154.963 252.94 154.86 252.718 154.654C252.499 154.446 252.39 154.196 252.39 153.905C252.39 153.618 252.499 153.372 252.718 153.166C252.94 152.957 253.206 152.852 253.516 152.852C253.827 152.852 254.091 152.957 254.31 153.166C254.532 153.372 254.643 153.618 254.643 153.905C254.643 154.196 254.532 154.446 254.31 154.654C254.091 154.86 253.827 154.963 253.516 154.963ZM260.226 155.933V157.5H255.697V155.933H260.226ZM256.725 154.131H258.811V161.143C258.811 161.335 258.84 161.486 258.899 161.593C258.958 161.698 259.04 161.771 259.144 161.814C259.252 161.856 259.376 161.877 259.516 161.877C259.614 161.877 259.712 161.869 259.81 161.853C259.908 161.833 259.983 161.819 260.035 161.809L260.363 163.361C260.259 163.394 260.112 163.431 259.923 163.474C259.733 163.519 259.503 163.547 259.232 163.557C258.729 163.577 258.289 163.51 257.91 163.356C257.535 163.203 257.242 162.964 257.034 162.641C256.825 162.318 256.722 161.91 256.725 161.417V154.131ZM262.873 166.275C262.609 166.275 262.36 166.253 262.129 166.211C261.9 166.172 261.711 166.121 261.561 166.059L262.031 164.502C262.276 164.577 262.496 164.618 262.692 164.624C262.891 164.631 263.062 164.585 263.206 164.487C263.353 164.389 263.472 164.223 263.563 163.988L263.686 163.67L260.988 155.933H263.181L264.739 161.456H264.817L266.389 155.933H268.597L265.674 164.267C265.534 164.672 265.343 165.024 265.101 165.325C264.863 165.628 264.561 165.862 264.195 166.025C263.83 166.191 263.389 166.275 262.873 166.275Z" fill="#111235"/>
<g filter="url(#filter3_d_119_4697)">
<rect x="88" y="204.901" width="44" height="44" rx="22" fill="white"/>
<path d="M110 236.901C104.477 236.901 100 232.424 100 226.901C100 221.379 104.477 216.901 110 216.901C115.523 216.901 120 221.379 120 226.901C120 232.424 115.523 236.901 110 236.901ZM110 234.901C114.418 234.901 118 231.32 118 226.901C118 222.483 114.418 218.901 110 218.901C105.582 218.901 102 222.483 102 226.901C102 231.32 105.582 234.901 110 234.901ZM109.003 230.901L104.76 226.659L106.174 225.244L109.003 228.073L114.66 222.416L116.074 223.83L109.003 230.901Z" fill="#449D5D"/>
</g>
<path d="M144.872 232.401V222.373H151.629V224.121H146.992V226.51H151.282V228.259H146.992V230.653H151.649V232.401H144.872ZM155.421 232.543C154.941 232.543 154.513 232.46 154.138 232.294C153.762 232.124 153.465 231.874 153.246 231.544C153.031 231.211 152.923 230.797 152.923 230.301C152.923 229.883 153 229.532 153.153 229.248C153.307 228.964 153.516 228.735 153.78 228.562C154.045 228.389 154.345 228.259 154.681 228.171C155.021 228.082 155.377 228.02 155.749 227.984C156.186 227.939 156.539 227.896 156.806 227.857C157.074 227.815 157.268 227.753 157.389 227.671C157.51 227.589 157.57 227.469 157.57 227.309V227.279C157.57 226.969 157.472 226.729 157.277 226.559C157.084 226.39 156.81 226.305 156.454 226.305C156.078 226.305 155.78 226.388 155.558 226.555C155.336 226.718 155.189 226.923 155.117 227.172L153.188 227.015C153.286 226.558 153.478 226.163 153.766 225.83C154.053 225.494 154.423 225.236 154.877 225.056C155.334 224.873 155.863 224.782 156.464 224.782C156.882 224.782 157.281 224.831 157.663 224.929C158.049 225.027 158.39 225.179 158.687 225.384C158.987 225.59 159.224 225.854 159.397 226.177C159.57 226.497 159.656 226.881 159.656 227.328V232.401H157.678V231.358H157.619C157.499 231.593 157.337 231.801 157.135 231.98C156.932 232.157 156.689 232.295 156.405 232.396C156.121 232.494 155.793 232.543 155.421 232.543ZM156.018 231.104C156.325 231.104 156.596 231.043 156.831 230.923C157.066 230.798 157.25 230.632 157.384 230.423C157.518 230.214 157.585 229.977 157.585 229.713V228.915C157.52 228.957 157.43 228.996 157.316 229.032C157.205 229.065 157.079 229.096 156.939 229.125C156.798 229.152 156.658 229.176 156.518 229.199C156.377 229.218 156.25 229.236 156.136 229.253C155.891 229.289 155.677 229.346 155.494 229.424C155.311 229.502 155.169 229.609 155.068 229.742C154.967 229.873 154.916 230.036 154.916 230.232C154.916 230.516 155.019 230.733 155.225 230.883C155.434 231.03 155.698 231.104 156.018 231.104ZM167.533 227.025L165.623 227.142C165.591 226.979 165.52 226.832 165.413 226.701C165.305 226.568 165.163 226.462 164.987 226.383C164.814 226.302 164.606 226.261 164.365 226.261C164.042 226.261 163.769 226.329 163.547 226.466C163.325 226.6 163.214 226.78 163.214 227.005C163.214 227.185 163.286 227.336 163.429 227.46C163.573 227.585 163.82 227.684 164.169 227.759L165.53 228.033C166.261 228.184 166.807 228.425 167.166 228.758C167.525 229.091 167.704 229.529 167.704 230.07C167.704 230.563 167.559 230.996 167.269 231.368C166.981 231.74 166.586 232.031 166.083 232.24C165.584 232.445 165.008 232.548 164.355 232.548C163.359 232.548 162.566 232.341 161.975 231.926C161.387 231.509 161.043 230.94 160.942 230.222L162.994 230.115C163.056 230.418 163.206 230.65 163.444 230.81C163.682 230.967 163.988 231.045 164.36 231.045C164.725 231.045 165.019 230.975 165.241 230.834C165.466 230.691 165.581 230.506 165.584 230.281C165.581 230.092 165.501 229.937 165.344 229.816C165.187 229.692 164.946 229.597 164.619 229.532L163.317 229.272C162.582 229.125 162.035 228.871 161.676 228.508C161.32 228.146 161.143 227.684 161.143 227.123C161.143 226.639 161.273 226.223 161.534 225.874C161.799 225.525 162.169 225.255 162.646 225.066C163.126 224.877 163.687 224.782 164.33 224.782C165.28 224.782 166.028 224.983 166.573 225.384C167.122 225.786 167.442 226.333 167.533 227.025ZM170.306 235.222C170.041 235.222 169.793 235.201 169.561 235.158C169.333 235.119 169.144 235.069 168.993 235.006L169.464 233.449C169.708 233.524 169.929 233.565 170.125 233.572C170.324 233.578 170.495 233.533 170.639 233.435C170.786 233.337 170.905 233.17 170.996 232.935L171.119 232.617L168.42 224.88H170.614L172.171 230.403H172.25L173.822 224.88H176.03L173.107 233.214C172.966 233.619 172.775 233.972 172.534 234.272C172.296 234.576 171.994 234.809 171.628 234.972C171.262 235.139 170.822 235.222 170.306 235.222ZM184.29 224.88V226.447H179.76V224.88H184.29ZM180.789 223.078H182.875V230.09C182.875 230.283 182.904 230.433 182.963 230.541C183.022 230.645 183.103 230.718 183.208 230.761C183.315 230.803 183.439 230.825 183.58 230.825C183.678 230.825 183.776 230.816 183.874 230.8C183.972 230.781 184.047 230.766 184.099 230.756L184.427 232.308C184.323 232.341 184.176 232.379 183.986 232.421C183.797 232.467 183.567 232.494 183.296 232.504C182.793 232.524 182.352 232.457 181.974 232.303C181.598 232.15 181.306 231.912 181.097 231.588C180.888 231.265 180.785 230.857 180.789 230.364V223.078ZM188.966 232.548C188.206 232.548 187.548 232.387 186.993 232.063C186.441 231.737 186.015 231.283 185.715 230.702C185.415 230.118 185.264 229.44 185.264 228.67C185.264 227.893 185.415 227.214 185.715 226.633C186.015 226.049 186.441 225.595 186.993 225.272C187.548 224.945 188.206 224.782 188.966 224.782C189.727 224.782 190.383 224.945 190.935 225.272C191.49 225.595 191.918 226.049 192.218 226.633C192.518 227.214 192.668 227.893 192.668 228.67C192.668 229.44 192.518 230.118 192.218 230.702C191.918 231.283 191.49 231.737 190.935 232.063C190.383 232.387 189.727 232.548 188.966 232.548ZM188.976 230.932C189.322 230.932 189.611 230.834 189.843 230.639C190.075 230.439 190.249 230.168 190.367 229.826C190.488 229.483 190.548 229.093 190.548 228.655C190.548 228.218 190.488 227.828 190.367 227.485C190.249 227.142 190.075 226.871 189.843 226.672C189.611 226.473 189.322 226.373 188.976 226.373C188.627 226.373 188.333 226.473 188.095 226.672C187.86 226.871 187.682 227.142 187.561 227.485C187.443 227.828 187.385 228.218 187.385 228.655C187.385 229.093 187.443 229.483 187.561 229.826C187.682 230.168 187.86 230.439 188.095 230.639C188.333 230.834 188.627 230.932 188.976 230.932ZM202.04 229.199V224.88H204.126V232.401H202.123V231.035H202.045C201.875 231.476 201.592 231.83 201.197 232.098C200.806 232.365 200.327 232.499 199.763 232.499C199.26 232.499 198.818 232.385 198.436 232.157C198.054 231.928 197.755 231.603 197.539 231.182C197.327 230.761 197.22 230.257 197.216 229.669V224.88H199.302V229.297C199.306 229.741 199.425 230.092 199.66 230.35C199.895 230.607 200.21 230.736 200.605 230.736C200.856 230.736 201.091 230.679 201.31 230.565C201.529 230.448 201.705 230.275 201.839 230.046C201.976 229.817 202.043 229.535 202.04 229.199ZM212.052 227.025L210.143 227.142C210.11 226.979 210.04 226.832 209.932 226.701C209.824 226.568 209.682 226.462 209.506 226.383C209.333 226.302 209.126 226.261 208.884 226.261C208.561 226.261 208.288 226.329 208.066 226.466C207.844 226.6 207.733 226.78 207.733 227.005C207.733 227.185 207.805 227.336 207.949 227.46C208.093 227.585 208.339 227.684 208.688 227.759L210.05 228.033C210.781 228.184 211.326 228.425 211.685 228.758C212.044 229.091 212.224 229.529 212.224 230.07C212.224 230.563 212.079 230.996 211.788 231.368C211.501 231.74 211.106 232.031 210.603 232.24C210.104 232.445 209.527 232.548 208.874 232.548C207.879 232.548 207.085 232.341 206.495 231.926C205.907 231.509 205.563 230.94 205.461 230.222L207.513 230.115C207.575 230.418 207.725 230.65 207.964 230.81C208.202 230.967 208.507 231.045 208.879 231.045C209.245 231.045 209.539 230.975 209.761 230.834C209.986 230.691 210.1 230.506 210.104 230.281C210.1 230.092 210.02 229.937 209.864 229.816C209.707 229.692 209.465 229.597 209.139 229.532L207.836 229.272C207.102 229.125 206.555 228.871 206.196 228.508C205.84 228.146 205.662 227.684 205.662 227.123C205.662 226.639 205.793 226.223 206.054 225.874C206.318 225.525 206.689 225.255 207.165 225.066C207.645 224.877 208.207 224.782 208.85 224.782C209.8 224.782 210.548 224.983 211.093 225.384C211.641 225.786 211.961 226.333 212.052 227.025ZM216.965 232.548C216.192 232.548 215.526 232.392 214.967 232.078C214.412 231.762 213.985 231.314 213.684 230.736C213.384 230.155 213.234 229.468 213.234 228.675C213.234 227.901 213.384 227.222 213.684 226.638C213.985 226.053 214.407 225.598 214.953 225.272C215.501 224.945 216.144 224.782 216.882 224.782C217.378 224.782 217.84 224.862 218.268 225.022C218.699 225.179 219.074 225.415 219.394 225.732C219.717 226.049 219.969 226.447 220.148 226.927C220.328 227.403 220.417 227.962 220.417 228.601V229.174H214.066V227.882H218.454C218.454 227.581 218.389 227.315 218.258 227.083C218.127 226.852 217.946 226.67 217.714 226.54C217.486 226.406 217.22 226.339 216.916 226.339C216.6 226.339 216.319 226.413 216.074 226.559C215.832 226.703 215.643 226.897 215.506 227.142C215.369 227.384 215.299 227.653 215.295 227.95V229.179C215.295 229.551 215.364 229.873 215.501 230.144C215.641 230.415 215.839 230.624 216.094 230.771C216.348 230.918 216.65 230.991 216.999 230.991C217.231 230.991 217.443 230.958 217.636 230.893C217.829 230.828 217.994 230.73 218.131 230.599C218.268 230.469 218.372 230.309 218.444 230.119L220.373 230.247C220.275 230.71 220.075 231.115 219.771 231.461C219.471 231.804 219.082 232.072 218.606 232.264C218.132 232.454 217.585 232.548 216.965 232.548Z" fill="#111235"/>
<path d="M130.214 43.2574C128.596 43.2574 127.309 42.8161 126.353 41.9336C125.397 41.0388 124.919 39.7641 124.919 38.1093V35.0205C124.919 33.3658 125.397 32.0971 126.353 31.2146C127.309 30.3198 128.596 29.8724 130.214 29.8724C131.832 29.8724 133.119 30.3198 134.076 31.2146C135.032 32.0971 135.51 33.3658 135.51 35.0205V38.1093C135.51 39.7641 135.032 41.0388 134.076 41.9336C133.119 42.8161 131.832 43.2574 130.214 43.2574ZM130.214 41.0879C131.121 41.0879 131.826 40.8243 132.329 40.2973C132.831 39.7702 133.083 39.0654 133.083 38.1829V34.9469C133.083 34.0644 132.831 33.3596 132.329 32.8326C131.826 32.3055 131.121 32.042 130.214 32.042C129.32 32.042 128.615 32.3055 128.1 32.8326C127.598 33.3596 127.346 34.0644 127.346 34.9469V38.1829C127.346 39.0654 127.598 39.7702 128.1 40.2973C128.615 40.8243 129.32 41.0879 130.214 41.0879ZM141.187 43.1471C140.476 43.1471 139.851 42.9877 139.311 42.6691C138.784 42.3381 138.374 41.8846 138.08 41.3085C137.785 40.7324 137.638 40.0705 137.638 39.3228V33.8806H139.955V39.1389C139.955 39.8254 140.12 40.3402 140.451 40.6834C140.795 41.0266 141.279 41.1982 141.904 41.1982C142.615 41.1982 143.166 40.9653 143.559 40.4995C143.951 40.0215 144.147 39.3596 144.147 38.5138V33.8806H146.464V43H144.184V41.8049H143.853C143.706 42.1113 143.43 42.4116 143.025 42.7058C142.621 43 142.008 43.1471 141.187 43.1471ZM149.042 43V33.8806H151.321V34.9102H151.652C151.787 34.5425 152.008 34.2728 152.314 34.1012C152.633 33.9296 153.001 33.8438 153.417 33.8438H154.521V35.903H153.381C152.792 35.903 152.308 36.0624 151.928 36.3811C151.548 36.6875 151.358 37.1655 151.358 37.8152V43H149.042ZM159.828 43L163.211 30.1298H167.44L170.823 43H168.322L167.624 40.1686H163.027L162.329 43H159.828ZM163.597 37.9255H167.054L165.491 31.6559H165.16L163.597 37.9255ZM176.114 43.2574C175.391 43.2574 174.711 43.0797 174.073 42.7242C173.448 42.3565 172.946 41.8233 172.566 41.1246C172.186 40.426 171.996 39.5802 171.996 38.5874V38.2932C171.996 37.3004 172.186 36.4546 172.566 35.7559C172.946 35.0573 173.448 34.5302 174.073 34.1747C174.698 33.807 175.379 33.6232 176.114 33.6232C176.666 33.6232 177.125 33.6906 177.493 33.8254C177.873 33.948 178.18 34.1073 178.412 34.3034C178.645 34.4996 178.823 34.7079 178.946 34.9286H179.277V30.1298H181.593V43H179.313V41.8968H178.982C178.774 42.24 178.449 42.5526 178.008 42.8345C177.579 43.1164 176.948 43.2574 176.114 43.2574ZM176.813 41.2349C177.524 41.2349 178.118 41.0082 178.596 40.5547C179.074 40.0889 179.313 39.4147 179.313 38.5322V38.3484C179.313 37.4658 179.074 36.7978 178.596 36.3443C178.13 35.8785 177.536 35.6456 176.813 35.6456C176.102 35.6456 175.507 35.8785 175.029 36.3443C174.551 36.7978 174.312 37.4658 174.312 38.3484V38.5322C174.312 39.4147 174.551 40.0889 175.029 40.5547C175.507 41.0082 176.102 41.2349 176.813 41.2349ZM186.074 43L183.169 33.8806H185.632L187.747 41.3085H188.078L190.192 33.8806H192.656L189.751 43H186.074ZM196.85 43.2574C196.201 43.2574 195.619 43.1471 195.104 42.9265C194.589 42.6936 194.178 42.3626 193.872 41.9336C193.578 41.4924 193.431 40.9592 193.431 40.334C193.431 39.7089 193.578 39.188 193.872 38.7712C194.178 38.3422 194.595 38.0235 195.122 37.8152C195.661 37.5945 196.274 37.4842 196.961 37.4842H199.461V36.9694C199.461 36.5404 199.326 36.1911 199.057 35.9214C198.787 35.6395 198.358 35.4985 197.77 35.4985C197.194 35.4985 196.765 35.6334 196.483 35.903C196.201 36.1604 196.017 36.4975 195.931 36.9142L193.798 36.1972C193.945 35.7314 194.178 35.3085 194.497 34.9286C194.828 34.5363 195.263 34.2238 195.802 33.9909C196.354 33.7457 197.022 33.6232 197.806 33.6232C199.008 33.6232 199.958 33.9235 200.656 34.5241C201.355 35.1247 201.704 35.9949 201.704 37.1349V40.5363C201.704 40.904 201.876 41.0879 202.219 41.0879H202.955V43H201.41C200.957 43 200.583 42.8897 200.289 42.6691C199.994 42.4484 199.847 42.1542 199.847 41.7865V41.7681H199.498C199.449 41.9152 199.339 42.1113 199.167 42.3565C198.995 42.5894 198.726 42.7978 198.358 42.9816C197.99 43.1655 197.488 43.2574 196.85 43.2574ZM197.255 41.382C197.904 41.382 198.432 41.2043 198.836 40.8488C199.253 40.4811 199.461 39.997 199.461 39.3964V39.2125H197.126C196.697 39.2125 196.36 39.3044 196.115 39.4883C195.87 39.6721 195.747 39.9295 195.747 40.2605C195.747 40.5914 195.876 40.8611 196.133 41.0695C196.391 41.2778 196.765 41.382 197.255 41.382ZM204.648 43V33.8806H206.928V35.0756H207.259C207.406 34.757 207.682 34.4567 208.086 34.1747C208.491 33.8806 209.104 33.7335 209.925 33.7335C210.636 33.7335 211.255 33.8989 211.782 34.2299C212.321 34.5486 212.738 34.996 213.032 35.5721C213.326 36.1359 213.474 36.7978 213.474 37.5578V43H211.157V37.7416C211.157 37.0552 210.985 36.5404 210.642 36.1972C210.311 35.854 209.833 35.6824 209.208 35.6824C208.497 35.6824 207.946 35.9214 207.553 36.3994C207.161 36.8652 206.965 37.521 206.965 38.3667V43H204.648ZM219.22 43C218.619 43 218.129 42.8161 217.749 42.4484C217.381 42.0684 217.197 41.5659 217.197 40.9408V35.7927H214.918V33.8806H217.197V31.0491H219.514V33.8806H222.015V35.7927H219.514V40.5363C219.514 40.904 219.686 41.0879 220.029 41.0879H221.794V43H219.22ZM226.943 43.2574C226.293 43.2574 225.711 43.1471 225.196 42.9265C224.682 42.6936 224.271 42.3626 223.964 41.9336C223.67 41.4924 223.523 40.9592 223.523 40.334C223.523 39.7089 223.67 39.188 223.964 38.7712C224.271 38.3422 224.688 38.0235 225.215 37.8152C225.754 37.5945 226.367 37.4842 227.053 37.4842H229.554V36.9694C229.554 36.5404 229.419 36.1911 229.149 35.9214C228.88 35.6395 228.451 35.4985 227.862 35.4985C227.286 35.4985 226.857 35.6334 226.575 35.903C226.293 36.1604 226.11 36.4975 226.024 36.9142L223.891 36.1972C224.038 35.7314 224.271 35.3085 224.59 34.9286C224.921 34.5363 225.356 34.2238 225.895 33.9909C226.447 33.7457 227.115 33.6232 227.899 33.6232C229.1 33.6232 230.05 33.9235 230.749 34.5241C231.448 35.1247 231.797 35.9949 231.797 37.1349V40.5363C231.797 40.904 231.969 41.0879 232.312 41.0879H233.047V43H231.503C231.049 43 230.675 42.8897 230.381 42.6691C230.087 42.4484 229.94 42.1542 229.94 41.7865V41.7681H229.591C229.542 41.9152 229.431 42.1113 229.26 42.3565C229.088 42.5894 228.818 42.7978 228.451 42.9816C228.083 43.1655 227.58 43.2574 226.943 43.2574ZM227.348 41.382C227.997 41.382 228.524 41.2043 228.929 40.8488C229.345 40.4811 229.554 39.997 229.554 39.3964V39.2125H227.219C226.79 39.2125 226.453 39.3044 226.208 39.4883C225.962 39.6721 225.84 39.9295 225.84 40.2605C225.84 40.5914 225.969 40.8611 226.226 41.0695C226.483 41.2778 226.857 41.382 227.348 41.382ZM234.12 38.4771V38.1829C234.12 37.2268 234.31 36.4117 234.69 35.7375C235.07 35.0511 235.573 34.5302 236.198 34.1747C236.835 33.807 237.528 33.6232 238.275 33.6232C239.109 33.6232 239.74 33.7702 240.169 34.0644C240.598 34.3586 240.911 34.665 241.107 34.9837H241.438V33.8806H243.718V44.618C243.718 45.2431 243.534 45.7395 243.166 46.1072C242.798 46.4872 242.308 46.6772 241.695 46.6772H235.591V44.6547H240.886C241.229 44.6547 241.401 44.4709 241.401 44.1032V41.7314H241.07C240.947 41.9275 240.776 42.1297 240.555 42.3381C240.335 42.5342 240.04 42.6997 239.673 42.8345C239.305 42.9694 238.839 43.0368 238.275 43.0368C237.528 43.0368 236.835 42.859 236.198 42.5036C235.573 42.1359 235.07 41.6149 234.69 40.9408C234.31 40.2544 234.12 39.4331 234.12 38.4771ZM238.937 41.0143C239.648 41.0143 240.243 40.7876 240.721 40.334C241.199 39.8805 241.438 39.2431 241.438 38.4219V38.238C241.438 37.4045 241.199 36.7672 240.721 36.3259C240.255 35.8724 239.66 35.6456 238.937 35.6456C238.226 35.6456 237.632 35.8724 237.154 36.3259C236.676 36.7672 236.437 37.4045 236.437 38.238V38.4219C236.437 39.2431 236.676 39.8805 237.154 40.334C237.632 40.7876 238.226 41.0143 238.937 41.0143ZM250.441 43.2574C249.534 43.2574 248.731 43.0674 248.033 42.6874C247.346 42.2952 246.807 41.7498 246.415 41.0511C246.035 40.3402 245.845 39.5067 245.845 38.5506V38.33C245.845 37.3739 246.035 36.5465 246.415 35.8479C246.795 35.1369 247.328 34.5915 248.014 34.2115C248.701 33.8193 249.497 33.6232 250.405 33.6232C251.299 33.6232 252.078 33.8254 252.74 34.2299C253.401 34.6221 253.916 35.1737 254.284 35.8846C254.652 36.5833 254.836 37.3984 254.836 38.33V39.1206H248.198C248.223 39.7457 248.456 40.2544 248.897 40.6466C249.338 41.0388 249.877 41.2349 250.515 41.2349C251.164 41.2349 251.643 41.094 251.949 40.8121C252.255 40.5302 252.488 40.2176 252.648 39.8744L254.541 40.8672C254.37 41.1859 254.118 41.5353 253.788 41.9152C253.469 42.2829 253.04 42.6016 252.501 42.8713C251.961 43.1287 251.275 43.2574 250.441 43.2574ZM248.217 37.3923H252.482C252.433 36.8652 252.219 36.4423 251.839 36.1236C251.471 35.805 250.987 35.6456 250.386 35.6456C249.761 35.6456 249.265 35.805 248.897 36.1236C248.529 36.4423 248.302 36.8652 248.217 37.3923ZM260.685 43.2574C259.496 43.2574 258.522 43 257.762 42.4852C257.002 41.9704 256.542 41.2349 256.383 40.2789L258.515 39.7273C258.601 40.1563 258.742 40.4934 258.938 40.7385C259.147 40.9837 259.398 41.1614 259.692 41.2717C259.999 41.3698 260.33 41.4188 260.685 41.4188C261.224 41.4188 261.623 41.3269 261.88 41.143C262.137 40.9469 262.266 40.7079 262.266 40.426C262.266 40.144 262.144 39.9295 261.898 39.7825C261.653 39.6231 261.261 39.4944 260.722 39.3964L260.207 39.3044C259.57 39.1818 258.987 39.0164 258.46 38.808C257.933 38.5874 257.51 38.2871 257.192 37.9071C256.873 37.5271 256.714 37.0368 256.714 36.4362C256.714 35.5292 257.045 34.8366 257.706 34.3586C258.368 33.8683 259.239 33.6232 260.317 33.6232C261.335 33.6232 262.18 33.8499 262.855 34.3034C263.529 34.757 263.97 35.3514 264.178 36.0869L262.027 36.7488C261.929 36.283 261.727 35.952 261.42 35.7559C261.126 35.5598 260.759 35.4618 260.317 35.4618C259.876 35.4618 259.539 35.5414 259.306 35.7008C259.073 35.8479 258.957 36.0562 258.957 36.3259C258.957 36.6201 259.079 36.8407 259.324 36.9878C259.57 37.1226 259.901 37.2268 260.317 37.3004L260.832 37.3923C261.518 37.5149 262.137 37.6803 262.689 37.8887C263.253 38.0848 263.694 38.3729 264.013 38.7528C264.344 39.1206 264.509 39.6231 264.509 40.2605C264.509 41.2166 264.16 41.9581 263.461 42.4852C262.775 43 261.849 43.2574 260.685 43.2574Z" fill="#111235"/>
<path fill-rule="evenodd" clip-rule="evenodd" d="M72.5287 355.6C70.7327 362 69.8267 368.701 68.9967 375.201C68.8227 376.601 69.7937 377.9 71.1617 378C72.5307 378.2 73.7827 377.2 73.9567 375.9C74.7557 369.6 75.6107 363.1 77.3397 357C77.7147 355.7 76.9427 354.3 75.6147 353.9C74.2877 353.5 72.9047 354.3 72.5287 355.6Z" fill="black"/>
<path fill-rule="evenodd" clip-rule="evenodd" d="M47.0644 344.201C36.5534 354.501 27.3954 366.101 16.6024 376.201C15.5944 377.101 15.5404 378.701 16.4814 379.701C17.4234 380.701 19.0074 380.8 20.0154 379.8C30.8394 369.7 40.0274 358.1 50.5694 347.8C51.5534 346.8 51.5674 345.201 50.5994 344.201C49.6324 343.301 48.0484 343.201 47.0644 344.201Z" fill="black"/>
<path fill-rule="evenodd" clip-rule="evenodd" d="M14.6358 324.9C20.6518 324.6 26.6678 324.301 32.6848 324.001C34.0628 324.001 35.1268 322.8 35.0598 321.4C34.9918 320 33.8188 319.001 32.4398 319.001C26.4138 319.301 20.3888 319.6 14.3638 319.9C12.9858 320 11.9288 321.201 12.0038 322.601C12.0788 323.901 13.2588 325 14.6358 324.9Z" fill="black"/>
</g>
<defs>
<filter id="filter0_d_119_4697" x="0" y="0" width="320" height="394.026" filterUnits="userSpaceOnUse" color-interpolation-filters="sRGB">
<feFlood flood-opacity="0" result="BackgroundImageFix"/>
<feColorMatrix in="SourceAlpha" type="matrix" values="0 0 0 0 0 0 0 0 0 0 0 0 0 0 0 0 0 0 127 0" result="hardAlpha"/>
<feOffset dy="4"/>
<feGaussianBlur stdDeviation="2"/>
<feComposite in2="hardAlpha" operator="out"/>
<feColorMatrix type="matrix" values="0 0 0 0 0 0 0 0 0 0 0 0 0 0 0 0 0 0 0.25 0"/>
<feBlend mode="normal" in2="BackgroundImageFix" result="effect1_dropShadow_119_4697"/>
<feBlend mode="normal" in="SourceGraphic" in2="effect1_dropShadow_119_4697" result="shape"/>
</filter>
<filter id="filter1_d_119_4697" x="84" y="67.0068" width="52" height="52" filterUnits="userSpaceOnUse" color-interpolation-filters="sRGB">
<feFlood flood-opacity="0" result="BackgroundImageFix"/>
<feColorMatrix in="SourceAlpha" type="matrix" values="0 0 0 0 0 0 0 0 0 0 0 0 0 0 0 0 0 0 127 0" result="hardAlpha"/>
<feOffset dy="4"/>
<feGaussianBlur stdDeviation="2"/>
<feComposite in2="hardAlpha" operator="out"/>
<feColorMatrix type="matrix" values="0 0 0 0 0 0 0 0 0 0 0 0 0 0 0 0 0 0 0.25 0"/>
<feBlend mode="normal" in2="BackgroundImageFix" result="effect1_dropShadow_119_4697"/>
<feBlend mode="normal" in="SourceGraphic" in2="effect1_dropShadow_119_4697" result="shape"/>
</filter>
<filter id="filter2_d_119_4697" x="64" y="126.954" width="92" height="92" filterUnits="userSpaceOnUse" color-interpolation-filters="sRGB">
<feFlood flood-opacity="0" result="BackgroundImageFix"/>
<feColorMatrix in="SourceAlpha" type="matrix" values="0 0 0 0 0 0 0 0 0 0 0 0 0 0 0 0 0 0 127 0" result="hardAlpha"/>
<feOffset dy="15"/>
<feGaussianBlur stdDeviation="12"/>
<feComposite in2="hardAlpha" operator="out"/>
<feColorMatrix type="matrix" values="0 0 0 0 0.0171701 0 0 0 0 0.0891686 0 0 0 0 0.179167 0 0 0 0.11 0"/>
<feBlend mode="normal" in2="BackgroundImageFix" result="effect1_dropShadow_119_4697"/>
<feBlend mode="normal" in="SourceGraphic" in2="effect1_dropShadow_119_4697" result="shape"/>
</filter>
<filter id="filter3_d_119_4697" x="64" y="195.901" width="92" height="92" filterUnits="userSpaceOnUse" color-interpolation-filters="sRGB">
<feFlood flood-opacity="0" result="BackgroundImageFix"/>
<feColorMatrix in="SourceAlpha" type="matrix" values="0 0 0 0 0 0 0 0 0 0 0 0 0 0 0 0 0 0 127 0" result="hardAlpha"/>
<feOffset dy="15"/>
<feGaussianBlur stdDeviation="12"/>
<feComposite in2="hardAlpha" operator="out"/>
<feColorMatrix type="matrix" values="0 0 0 0 0.0171701 0 0 0 0 0.0891686 0 0 0 0 0.179167 0 0 0 0.11 0"/>
<feBlend mode="normal" in2="BackgroundImageFix" result="effect1_dropShadow_119_4697"/>
<feBlend mode="normal" in="SourceGraphic" in2="effect1_dropShadow_119_4697" result="shape"/>
</filter>
</defs>
</svg>
