<svg width="24" height="24" viewBox="0 0 24 24" fill="none" xmlns="http://www.w3.org/2000/svg">
<g id="Frame">
<path id="Vector" d="M12 22.0068C6.47715 22.0068 2 17.5296 2 12.0068C2 6.48399 6.47715 2.00684 12 2.00684C17.5228 2.00684 22 6.48399 22 12.0068C22 17.5296 17.5228 22.0068 12 22.0068ZM12 20.0068C16.4183 20.0068 20 16.4251 20 12.0068C20 7.58856 16.4183 4.00684 12 4.00684C7.58172 4.00684 4 7.58856 4 12.0068C4 16.4251 7.58172 20.0068 12 20.0068ZM11.0026 16.0068L6.75999 11.7642L8.17421 10.3499L11.0026 13.1784L16.6595 7.52156L18.0737 8.93577L11.0026 16.0068Z" fill="#449D5D"/>
</g>
</svg>
