<svg width="160" height="160" viewBox="0 0 160 160" fill="none" xmlns="http://www.w3.org/2000/svg">
<path d="M54.0192 15L71.3397 5L71.7147 5.64952L80 0.866025L88.2853 5.64952L88.6603 5L105.981 15L105.606 15.6495L122.926 25.6495L123.301 25L140.622 35L140.247 35.6495L148.532 40.433V50H149.282V70H148.532V90H149.282V110H148.532V119.567L140.247 124.35L140.622 125L123.301 135L122.926 134.35L105.606 144.35L105.981 145L88.6603 155L88.2853 154.35L80 159.134L71.7147 154.35L71.3397 155L54.0192 145L54.3942 144.35L37.0737 134.35L36.6987 135L19.3782 125L19.7532 124.35L11.468 119.567V110H10.718V90H11.468V70H10.718V50H11.468V40.433L19.7532 35.6495L19.3782 35L36.6987 25L37.0737 25.6495L54.3942 15.6495L54.0192 15Z" stroke="#828A91" stroke-width="1.5" stroke-dasharray="20 20"/>
<path d="M75.0002 81.6665C73.9002 82.2165 72.9835 83.0332 72.3002 84.0498C71.9169 84.6332 71.9169 85.3665 72.3002 85.9498C72.9835 86.9665 73.9002 87.7832 75.0002 88.3332" stroke="#449D5D" stroke-width="2.2" stroke-linecap="round" stroke-linejoin="round"/>
<path d="M85.3496 81.6665C86.4496 82.2165 87.3663 83.0332 88.0496 84.0498C88.4329 84.6332 88.4329 85.3665 88.0496 85.9498C87.3663 86.9665 86.4496 87.7832 85.3496 88.3332" stroke="#449D5D" stroke-width="2.2" stroke-linecap="round" stroke-linejoin="round"/>
<path d="M74.9997 96.6668H84.9997C93.333 96.6668 96.6663 93.3335 96.6663 85.0002V75.0002C96.6663 66.6668 93.333 63.3335 84.9997 63.3335H74.9997C66.6663 63.3335 63.333 66.6668 63.333 75.0002V85.0002C63.333 93.3335 66.6663 96.6668 74.9997 96.6668Z" stroke="#449D5D" stroke-width="2.2" stroke-linecap="round" stroke-linejoin="round"/>
<path d="M63.7168 73.3502L95.7501 73.3335" stroke="#449D5D" stroke-width="2.2" stroke-linecap="round" stroke-linejoin="round"/>
</svg>
