<svg width="160" height="168" viewBox="0 0 160 168" fill="none" xmlns="http://www.w3.org/2000/svg">
<g filter="url(#filter0_d_119_4934)">
<path d="M80 0L149.282 40V120L80 160L10.718 120V40L80 0Z" fill="white"/>
<path d="M71.4834 75C73.1167 75.8167 74.5167 77.05 75.5334 78.5833C76.1167 79.45 76.1167 80.5667 75.5334 81.4333C74.5167 82.95 73.1167 84.1833 71.4834 85" stroke="#3B88E9" stroke-width="2.2" stroke-linecap="round" stroke-linejoin="round"/>
<path d="M81.667 85H88.3337" stroke="#3B88E9" stroke-width="2.2" stroke-linecap="round" stroke-linejoin="round"/>
<path d="M74.9997 96.6668H84.9997C93.333 96.6668 96.6663 93.3335 96.6663 85.0002V75.0002C96.6663 66.6668 93.333 63.3335 84.9997 63.3335H74.9997C66.6663 63.3335 63.333 66.6668 63.333 75.0002V85.0002C63.333 93.3335 66.6663 96.6668 74.9997 96.6668Z" stroke="#3B88E9" stroke-width="2.2" stroke-linecap="round" stroke-linejoin="round"/>
</g>
<defs>
<filter id="filter0_d_119_4934" x="-4" y="0" width="168" height="168" filterUnits="userSpaceOnUse" color-interpolation-filters="sRGB">
<feFlood flood-opacity="0" result="BackgroundImageFix"/>
<feColorMatrix in="SourceAlpha" type="matrix" values="0 0 0 0 0 0 0 0 0 0 0 0 0 0 0 0 0 0 127 0" result="hardAlpha"/>
<feOffset dy="4"/>
<feGaussianBlur stdDeviation="2"/>
<feComposite in2="hardAlpha" operator="out"/>
<feColorMatrix type="matrix" values="0 0 0 0 0 0 0 0 0 0 0 0 0 0 0 0 0 0 0.25 0"/>
<feBlend mode="normal" in2="BackgroundImageFix" result="effect1_dropShadow_119_4934"/>
<feBlend mode="normal" in="SourceGraphic" in2="effect1_dropShadow_119_4934" result="shape"/>
</filter>
</defs>
</svg>
