<svg width="161" height="160" viewBox="0 0 161 160" fill="none" xmlns="http://www.w3.org/2000/svg">
<path d="M54.5192 15L71.8397 5L72.2147 5.64952L80.5 0.866025L88.7853 5.64952L89.1603 5L106.481 15L106.106 15.6495L123.426 25.6495L123.801 25L141.122 35L140.747 35.6495L149.032 40.433V50H149.782V70H149.032V90H149.782V110H149.032V119.567L140.747 124.35L141.122 125L123.801 135L123.426 134.35L106.106 144.35L106.481 145L89.1603 155L88.7853 154.35L80.5 159.134L72.2147 154.35L71.8397 155L54.5192 145L54.8942 144.35L37.5737 134.35L37.1987 135L19.8782 125L20.2532 124.35L11.968 119.567V110H11.218V90H11.968V70H11.218V50H11.968V40.433L20.2532 35.6495L19.8782 35L37.1987 25L37.5737 25.6495L54.8942 15.6495L54.5192 15Z" stroke="#828A91" stroke-width="1.5" stroke-dasharray="20 20"/>
<path d="M95.5 71.6663V88.333C95.5 93.333 93 96.6663 87.1667 96.6663H73.8333C68 96.6663 65.5 93.333 65.5 88.333V71.6663C65.5 66.6663 68 63.333 73.8333 63.333H87.1667C93 63.333 95.5 66.6663 95.5 71.6663Z" stroke="#9162C0" stroke-width="2.2" stroke-miterlimit="10" stroke-linecap="round" stroke-linejoin="round"/>
<path d="M84.666 67.5V70.8333C84.666 72.6667 86.166 74.1667 87.9993 74.1667H91.3327" stroke="#9162C0" stroke-width="2.2" stroke-miterlimit="10" stroke-linecap="round" stroke-linejoin="round"/>
<path d="M77.1673 81.667L73.834 85.0003L77.1673 88.3337" stroke="#9162C0" stroke-width="2.2" stroke-miterlimit="10" stroke-linecap="round" stroke-linejoin="round"/>
<path d="M83.834 81.667L87.1673 85.0003L83.834 88.3337" stroke="#9162C0" stroke-width="2.2" stroke-miterlimit="10" stroke-linecap="round" stroke-linejoin="round"/>
</svg>
