<svg width="160" height="160" viewBox="0 0 160 160" fill="none" xmlns="http://www.w3.org/2000/svg">
<path d="M54.0192 15L71.3397 5L71.7147 5.64952L80 0.866025L88.2853 5.64952L88.6603 5L105.981 15L105.606 15.6495L122.926 25.6495L123.301 25L140.622 35L140.247 35.6495L148.532 40.433V50H149.282V70H148.532V90H149.282V110H148.532V119.567L140.247 124.35L140.622 125L123.301 135L122.926 134.35L105.606 144.35L105.981 145L88.6603 155L88.2853 154.35L80 159.134L71.7147 154.35L71.3397 155L54.0192 145L54.3942 144.35L37.0737 134.35L36.6987 135L19.3782 125L19.7532 124.35L11.468 119.567V110H10.718V90H11.468V70H10.718V50H11.468V40.433L19.7532 35.6495L19.3782 35L36.6987 25L37.0737 25.6495L54.3942 15.6495L54.0192 15Z" stroke="#828A91" stroke-width="1.5" stroke-dasharray="20 20"/>
<path d="M95 71.6668V88.3335C95 93.3335 92.5 96.6668 86.6667 96.6668H73.3333C67.5 96.6668 65 93.3335 65 88.3335V71.6668C65 66.6668 67.5 63.3335 73.3333 63.3335H86.6667C92.5 63.3335 95 66.6668 95 71.6668Z" stroke="#9162C0" stroke-width="2.2" stroke-miterlimit="10" stroke-linecap="round" stroke-linejoin="round"/>
<path d="M84.166 67.5V70.8333C84.166 72.6667 85.666 74.1667 87.4993 74.1667H90.8327" stroke="#9162C0" stroke-width="2.2" stroke-miterlimit="10" stroke-linecap="round" stroke-linejoin="round"/>
<path d="M76.6673 81.6665L73.334 84.9998L76.6673 88.3332" stroke="#9162C0" stroke-width="2.2" stroke-miterlimit="10" stroke-linecap="round" stroke-linejoin="round"/>
<path d="M83.334 81.6665L86.6673 84.9998L83.334 88.3332" stroke="#9162C0" stroke-width="2.2" stroke-miterlimit="10" stroke-linecap="round" stroke-linejoin="round"/>
</svg>
