<svg width="41" height="40" viewBox="0 0 41 40" fill="none" xmlns="http://www.w3.org/2000/svg">
<rect x="0.5" width="40" height="40" rx="20" fill="#292D33"/>
<path fill-rule="evenodd" clip-rule="evenodd" d="M24.9165 22.7507C24.6665 22.9173 24.4999 22.9173 24.3332 23.0007C24.1665 23.0007 24.0832 23.084 23.9999 23.1673C23.8332 23.1673 23.8332 23.334 23.8332 23.4173C23.8332 23.5007 23.8332 23.584 23.7499 23.6673C23.6665 23.7507 23.4999 23.7507 23.3332 23.7507C23.0832 23.7507 22.7499 23.7507 22.4165 23.9173C22.2499 24.0007 22.0832 24.084 21.9165 24.1673C21.5832 24.4173 21.2499 24.584 20.5832 24.584C19.9165 24.584 19.5832 24.334 19.2499 24.1673C19.0832 24.084 18.9165 23.9173 18.7499 23.9173C18.4165 23.834 18.0832 23.7507 17.8332 23.7507C17.6665 23.7507 17.4999 23.7507 17.4165 23.6673C17.1665 23.584 17.1665 23.5007 17.1665 23.4173C17.1665 23.334 17.1665 23.1673 16.9999 23.1673C16.9165 23.084 16.7499 23.084 16.6665 23.0007C16.4999 22.9173 16.3332 22.9173 16.0832 22.7507C15.8332 22.584 15.9999 22.5007 16.0832 22.4173C17.6665 21.6673 17.9165 20.4173 17.9165 20.334C17.9165 20.2507 17.9165 20.1673 17.8332 20.084C17.7499 20.0007 17.4999 19.834 17.2499 19.7507C17.1665 19.6673 17.0832 19.6673 16.9999 19.584C16.7499 19.4173 16.6665 19.2507 16.7499 19.084C16.8332 18.9173 16.9165 18.9173 17.0832 18.9173C17.1665 18.9173 17.1665 18.9173 17.2499 18.9173C17.4165 18.9173 17.5832 19.0007 17.6665 19.084C17.7499 19.084 17.8332 19.1673 17.9165 19.1673C17.9165 19.1673 17.9165 19.1673 17.9999 19.1673C18.0832 19.1673 18.0832 19.1673 18.0832 19.0007V18.9173C18.0832 18.6673 17.9999 18.084 18.0832 17.6673C18.1665 17.0007 18.3332 16.584 18.6665 16.334C18.8332 16.1673 19.4165 15.584 20.5832 15.584C21.7499 15.584 22.3332 16.2507 22.4999 16.334C22.7499 16.6673 22.9999 17.0007 23.0832 17.6673C23.1665 18.1673 23.0832 18.6673 23.0832 19.0007C23.0832 19.084 23.0832 19.1673 23.1665 19.1673C23.1665 19.1673 23.1665 19.1673 23.2499 19.1673C23.3332 19.1673 23.4165 19.084 23.4999 19.084C23.6665 19.0007 23.7499 19.0007 23.9165 18.9173C23.9165 18.9173 23.9999 18.9173 24.0832 18.9173C24.2499 18.9173 24.3332 19.0007 24.4165 19.084C24.4999 19.2507 24.4165 19.4173 24.1665 19.584C24.0832 19.584 23.9999 19.6673 23.9165 19.7507C23.7499 19.9173 23.4165 20.084 23.3332 20.084C23.2499 20.1673 23.2499 20.2507 23.2499 20.334C23.2499 20.4173 23.4999 21.584 25.0832 22.4173C25.0832 22.5007 25.2499 22.584 24.9165 22.7507Z" stroke="white" stroke-width="1.2" stroke-miterlimit="10" stroke-linejoin="round"/>
<path d="M20.4993 28.3327C25.1017 28.3327 28.8327 24.6017 28.8327 19.9993C28.8327 15.397 25.1017 11.666 20.4993 11.666C15.897 11.666 12.166 15.397 12.166 19.9993C12.166 24.6017 15.897 28.3327 20.4993 28.3327Z" stroke="white" stroke-width="1.2" stroke-miterlimit="10" stroke-linejoin="round"/>
</svg>
