<svg width="161" height="160" viewBox="0 0 161 160" fill="none" xmlns="http://www.w3.org/2000/svg">
<path d="M54.5192 15L71.8397 5L72.2147 5.64952L80.5 0.866025L88.7853 5.64952L89.1603 5L106.481 15L106.106 15.6495L123.426 25.6495L123.801 25L141.122 35L140.747 35.6495L149.032 40.433V50H149.782V70H149.032V90H149.782V110H149.032V119.567L140.747 124.35L141.122 125L123.801 135L123.426 134.35L106.106 144.35L106.481 145L89.1603 155L88.7853 154.35L80.5 159.134L72.2147 154.35L71.8397 155L54.5192 145L54.8942 144.35L37.5737 134.35L37.1987 135L19.8782 125L20.2532 124.35L11.968 119.567V110H11.218V90H11.968V70H11.218V50H11.968V40.433L20.2532 35.6495L19.8782 35L37.1987 25L37.5737 25.6495L54.8942 15.6495L54.5192 15Z" stroke="#828A91" stroke-width="1.5" stroke-dasharray="20 20"/>
<path d="M75.4992 81.667C74.3992 82.217 73.4826 83.0337 72.7992 84.0503C72.4159 84.6337 72.4159 85.367 72.7992 85.9503C73.4826 86.967 74.3992 87.7837 75.4992 88.3337" stroke="#449D5D" stroke-width="2.2" stroke-linecap="round" stroke-linejoin="round"/>
<path d="M85.8496 81.667C86.9496 82.217 87.8663 83.0337 88.5496 84.0503C88.9329 84.6337 88.9329 85.367 88.5496 85.9503C87.8663 86.967 86.9496 87.7837 85.8496 88.3337" stroke="#449D5D" stroke-width="2.2" stroke-linecap="round" stroke-linejoin="round"/>
<path d="M75.5007 96.6663H85.5007C93.834 96.6663 97.1673 93.333 97.1673 84.9997V74.9997C97.1673 66.6663 93.834 63.333 85.5007 63.333H75.5007C67.1673 63.333 63.834 66.6663 63.834 74.9997V84.9997C63.834 93.333 67.1673 96.6663 75.5007 96.6663Z" stroke="#449D5D" stroke-width="2.2" stroke-linecap="round" stroke-linejoin="round"/>
<path d="M64.2168 73.3497L96.2501 73.333" stroke="#449D5D" stroke-width="2.2" stroke-linecap="round" stroke-linejoin="round"/>
</svg>
