<svg width="335" height="321" viewBox="0 0 335 321" fill="none" xmlns="http://www.w3.org/2000/svg">
<g filter="url(#filter0_d_304_2179)">
<path d="M167.5 34L236.782 74V154L167.5 194L98.218 154V74L167.5 34Z" fill="white"/>
</g>
<path d="M158.982 109C160.616 109.817 162.016 111.05 163.032 112.583C163.616 113.45 163.616 114.567 163.032 115.433C162.016 116.95 160.616 118.183 158.982 119" stroke="#3B88E9" stroke-width="2.2" stroke-linecap="round" stroke-linejoin="round"/>
<path d="M169.166 119H175.833" stroke="#3B88E9" stroke-width="2.2" stroke-linecap="round" stroke-linejoin="round"/>
<path d="M162.501 130.666H172.501C180.834 130.666 184.167 127.333 184.167 119V109C184.167 100.666 180.834 97.333 172.501 97.333H162.501C154.167 97.333 150.834 100.666 150.834 109V119C150.834 127.333 154.167 130.666 162.501 130.666Z" stroke="#3B88E9" stroke-width="2.2" stroke-linecap="round" stroke-linejoin="round"/>
<path d="M85.82 244V230H88.46V244H85.82ZM90.1734 244V234.08H92.6534V235.38H93.0134C93.1734 235.033 93.4734 234.707 93.9134 234.4C94.3534 234.08 95.0201 233.92 95.9134 233.92C96.6868 233.92 97.3601 234.1 97.9334 234.46C98.5201 234.807 98.9734 235.293 99.2934 235.92C99.6134 236.533 99.7734 237.253 99.7734 238.08V244H97.2534V238.28C97.2534 237.533 97.0668 236.973 96.6934 236.6C96.3334 236.227 95.8134 236.04 95.1334 236.04C94.3601 236.04 93.7601 236.3 93.3334 236.82C92.9068 237.327 92.6934 238.04 92.6934 238.96V244H90.1734ZM101.498 248V234.08H103.978V235.28H104.338C104.564 234.893 104.918 234.553 105.398 234.26C105.878 233.953 106.564 233.8 107.458 233.8C108.258 233.8 108.998 234 109.678 234.4C110.358 234.787 110.904 235.36 111.318 236.12C111.731 236.88 111.938 237.8 111.938 238.88V239.2C111.938 240.28 111.731 241.2 111.318 241.96C110.904 242.72 110.358 243.3 109.678 243.7C108.998 244.087 108.258 244.28 107.458 244.28C106.858 244.28 106.351 244.207 105.938 244.06C105.538 243.927 105.211 243.753 104.958 243.54C104.718 243.313 104.524 243.087 104.378 242.86H104.018V248H101.498ZM106.698 242.08C107.484 242.08 108.131 241.833 108.638 241.34C109.158 240.833 109.418 240.1 109.418 239.14V238.94C109.418 237.98 109.158 237.253 108.638 236.76C108.118 236.253 107.471 236 106.698 236C105.924 236 105.278 236.253 104.758 236.76C104.238 237.253 103.978 237.98 103.978 238.94V239.14C103.978 240.1 104.238 240.833 104.758 241.34C105.278 241.833 105.924 242.08 106.698 242.08ZM117.032 244.16C116.258 244.16 115.578 243.987 114.992 243.64C114.418 243.28 113.972 242.787 113.652 242.16C113.332 241.533 113.172 240.813 113.172 240V234.08H115.692V239.8C115.692 240.547 115.872 241.107 116.232 241.48C116.605 241.853 117.132 242.04 117.812 242.04C118.585 242.04 119.185 241.787 119.612 241.28C120.038 240.76 120.252 240.04 120.252 239.12V234.08H122.772V244H120.292V242.7H119.932C119.772 243.033 119.472 243.36 119.032 243.68C118.592 244 117.925 244.16 117.032 244.16ZM128.376 244C127.722 244 127.189 243.8 126.776 243.4C126.376 242.987 126.176 242.44 126.176 241.76V236.16H123.696V234.08H126.176V231H128.696V234.08H131.416V236.16H128.696V241.32C128.696 241.72 128.882 241.92 129.256 241.92H131.176V244H128.376ZM140.1 244V239.18L135.34 230H138.28L141.24 236H141.6L144.56 230H147.5L142.74 239.18V244H140.1ZM151.022 244.28C150.036 244.28 149.149 244.08 148.362 243.68C147.576 243.28 146.956 242.7 146.502 241.94C146.049 241.18 145.822 240.267 145.822 239.2V238.88C145.822 237.813 146.049 236.9 146.502 236.14C146.956 235.38 147.576 234.8 148.362 234.4C149.149 234 150.036 233.8 151.022 233.8C152.009 233.8 152.896 234 153.682 234.4C154.469 234.8 155.089 235.38 155.542 236.14C155.996 236.9 156.222 237.813 156.222 238.88V239.2C156.222 240.267 155.996 241.18 155.542 241.94C155.089 242.7 154.469 243.28 153.682 243.68C152.896 244.08 152.009 244.28 151.022 244.28ZM151.022 242.04C151.796 242.04 152.436 241.793 152.942 241.3C153.449 240.793 153.702 240.073 153.702 239.14V238.94C153.702 238.007 153.449 237.293 152.942 236.8C152.449 236.293 151.809 236.04 151.022 236.04C150.249 236.04 149.609 236.293 149.102 236.8C148.596 237.293 148.342 238.007 148.342 238.94V239.14C148.342 240.073 148.596 240.793 149.102 241.3C149.609 241.793 150.249 242.04 151.022 242.04ZM161.328 244.16C160.555 244.16 159.875 243.987 159.288 243.64C158.715 243.28 158.268 242.787 157.948 242.16C157.628 241.533 157.468 240.813 157.468 240V234.08H159.988V239.8C159.988 240.547 160.168 241.107 160.528 241.48C160.902 241.853 161.428 242.04 162.108 242.04C162.882 242.04 163.482 241.787 163.908 241.28C164.335 240.76 164.548 240.04 164.548 239.12V234.08H167.068V244H164.588V242.7H164.228C164.068 243.033 163.768 243.36 163.328 243.68C162.888 244 162.222 244.16 161.328 244.16ZM168.873 244V234.08H171.353V235.2H171.713C171.859 234.8 172.099 234.507 172.433 234.32C172.779 234.133 173.179 234.04 173.633 234.04H174.833V236.28H173.593C172.953 236.28 172.426 236.453 172.013 236.8C171.599 237.133 171.393 237.653 171.393 238.36V244H168.873ZM184.54 244.28C183.58 244.28 182.707 244.08 181.92 243.68C181.147 243.28 180.534 242.7 180.08 241.94C179.627 241.18 179.4 240.26 179.4 239.18V238.9C179.4 237.82 179.627 236.9 180.08 236.14C180.534 235.38 181.147 234.8 181.92 234.4C182.707 234 183.58 233.8 184.54 233.8C185.487 233.8 186.3 233.967 186.98 234.3C187.66 234.633 188.207 235.093 188.62 235.68C189.047 236.253 189.327 236.907 189.46 237.64L187.02 238.16C186.967 237.76 186.847 237.4 186.66 237.08C186.474 236.76 186.207 236.507 185.86 236.32C185.527 236.133 185.107 236.04 184.6 236.04C184.094 236.04 183.634 236.153 183.22 236.38C182.82 236.593 182.5 236.92 182.26 237.36C182.034 237.787 181.92 238.313 181.92 238.94V239.14C181.92 239.767 182.034 240.3 182.26 240.74C182.5 241.167 182.82 241.493 183.22 241.72C183.634 241.933 184.094 242.04 184.6 242.04C185.36 242.04 185.934 241.847 186.32 241.46C186.72 241.06 186.974 240.54 187.08 239.9L189.52 240.48C189.347 241.187 189.047 241.833 188.62 242.42C188.207 242.993 187.66 243.447 186.98 243.78C186.3 244.113 185.487 244.28 184.54 244.28ZM195.319 244.28C194.333 244.28 193.446 244.08 192.659 243.68C191.873 243.28 191.253 242.7 190.799 241.94C190.346 241.18 190.119 240.267 190.119 239.2V238.88C190.119 237.813 190.346 236.9 190.799 236.14C191.253 235.38 191.873 234.8 192.659 234.4C193.446 234 194.333 233.8 195.319 233.8C196.306 233.8 197.193 234 197.979 234.4C198.766 234.8 199.386 235.38 199.839 236.14C200.293 236.9 200.519 237.813 200.519 238.88V239.2C200.519 240.267 200.293 241.18 199.839 241.94C199.386 242.7 198.766 243.28 197.979 243.68C197.193 244.08 196.306 244.28 195.319 244.28ZM195.319 242.04C196.093 242.04 196.733 241.793 197.239 241.3C197.746 240.793 197.999 240.073 197.999 239.14V238.94C197.999 238.007 197.746 237.293 197.239 236.8C196.746 236.293 196.106 236.04 195.319 236.04C194.546 236.04 193.906 236.293 193.399 236.8C192.893 237.293 192.639 238.007 192.639 238.94V239.14C192.639 240.073 192.893 240.793 193.399 241.3C193.906 241.793 194.546 242.04 195.319 242.04ZM201.845 244V234.08H204.325V235.38H204.685C204.845 235.033 205.145 234.707 205.585 234.4C206.025 234.08 206.692 233.92 207.585 233.92C208.359 233.92 209.032 234.1 209.605 234.46C210.192 234.807 210.645 235.293 210.965 235.92C211.285 236.533 211.445 237.253 211.445 238.08V244H208.925V238.28C208.925 237.533 208.739 236.973 208.365 236.6C208.005 236.227 207.485 236.04 206.805 236.04C206.032 236.04 205.432 236.3 205.005 236.82C204.579 237.327 204.365 238.04 204.365 238.96V244H201.845ZM216.696 244C216.043 244 215.509 243.8 215.096 243.4C214.696 242.987 214.496 242.44 214.496 241.76V236.16H212.016V234.08H214.496V231H217.016V234.08H219.736V236.16H217.016V241.32C217.016 241.72 217.203 241.92 217.576 241.92H219.496V244H216.696ZM225.186 244.28C224.199 244.28 223.326 244.073 222.566 243.66C221.819 243.233 221.232 242.64 220.806 241.88C220.392 241.107 220.186 240.2 220.186 239.16V238.92C220.186 237.88 220.392 236.98 220.806 236.22C221.219 235.447 221.799 234.853 222.546 234.44C223.292 234.013 224.159 233.8 225.146 233.8C226.119 233.8 226.966 234.02 227.686 234.46C228.406 234.887 228.966 235.487 229.366 236.26C229.766 237.02 229.966 237.907 229.966 238.92V239.78H222.746C222.772 240.46 223.026 241.013 223.506 241.44C223.986 241.867 224.572 242.08 225.266 242.08C225.972 242.08 226.492 241.927 226.826 241.62C227.159 241.313 227.412 240.973 227.586 240.6L229.646 241.68C229.459 242.027 229.186 242.407 228.826 242.82C228.479 243.22 228.012 243.567 227.426 243.86C226.839 244.14 226.092 244.28 225.186 244.28ZM222.766 237.9H227.406C227.352 237.327 227.119 236.867 226.706 236.52C226.306 236.173 225.779 236 225.126 236C224.446 236 223.906 236.173 223.506 236.52C223.106 236.867 222.859 237.327 222.766 237.9ZM231.209 244V234.08H233.689V235.38H234.049C234.209 235.033 234.509 234.707 234.949 234.4C235.389 234.08 236.055 233.92 236.949 233.92C237.722 233.92 238.395 234.1 238.969 234.46C239.555 234.807 240.009 235.293 240.329 235.92C240.649 236.533 240.809 237.253 240.809 238.08V244H238.289V238.28C238.289 237.533 238.102 236.973 237.729 236.6C237.369 236.227 236.849 236.04 236.169 236.04C235.395 236.04 234.795 236.3 234.369 236.82C233.942 237.327 233.729 238.04 233.729 238.96V244H231.209ZM246.059 244C245.406 244 244.873 243.8 244.459 243.4C244.059 242.987 243.859 242.44 243.859 241.76V236.16H241.379V234.08H243.859V231H246.379V234.08H249.099V236.16H246.379V241.32C246.379 241.72 246.566 241.92 246.939 241.92H248.859V244H246.059Z" fill="#282828"/>
<path d="M16.7699 270.273C16.7017 269.697 16.4252 269.25 15.9404 268.932C15.4555 268.614 14.8608 268.455 14.1563 268.455C13.6411 268.455 13.1904 268.538 12.804 268.705C12.4214 268.871 12.1222 269.1 11.9063 269.392C11.6942 269.684 11.5881 270.015 11.5881 270.386C11.5881 270.697 11.662 270.964 11.8097 271.188C11.9612 271.407 12.1544 271.591 12.3892 271.739C12.6241 271.883 12.8703 272.002 13.1279 272.097C13.3855 272.187 13.6222 272.261 13.8381 272.318L15.0199 272.636C15.323 272.716 15.6601 272.826 16.0313 272.966C16.4063 273.106 16.7642 273.297 17.1051 273.54C17.4498 273.778 17.7339 274.085 17.9574 274.46C18.1809 274.835 18.2926 275.295 18.2926 275.841C18.2926 276.47 18.1279 277.038 17.7983 277.545C17.4726 278.053 16.9953 278.456 16.3665 278.756C15.7415 279.055 14.982 279.205 14.0881 279.205C13.2548 279.205 12.5332 279.07 11.9233 278.801C11.3173 278.532 10.84 278.157 10.4915 277.676C10.1468 277.195 9.95174 276.636 9.90628 276H11.3608C11.3987 276.439 11.5464 276.803 11.804 277.091C12.0654 277.375 12.3949 277.587 12.7926 277.727C13.1942 277.864 13.626 277.932 14.0881 277.932C14.626 277.932 15.1089 277.845 15.537 277.67C15.965 277.492 16.304 277.246 16.554 276.932C16.804 276.614 16.929 276.242 16.929 275.818C16.929 275.432 16.8211 275.117 16.6051 274.875C16.3892 274.633 16.1051 274.436 15.7529 274.284C15.4006 274.133 15.0199 274 14.6108 273.886L13.179 273.477C12.2699 273.216 11.5502 272.843 11.0199 272.358C10.4896 271.873 10.2245 271.239 10.2245 270.455C10.2245 269.803 10.4006 269.235 10.7529 268.75C11.1089 268.261 11.5862 267.883 12.1847 267.614C12.787 267.341 13.4593 267.205 14.2017 267.205C14.9517 267.205 15.6184 267.339 16.2017 267.608C16.7851 267.873 17.2472 268.237 17.5881 268.699C17.9328 269.161 18.1146 269.686 18.1336 270.273H16.7699ZM20.1076 279V270.273H21.4485V279H20.1076ZM20.7894 268.818C20.528 268.818 20.3027 268.729 20.1133 268.551C19.9277 268.373 19.8349 268.159 19.8349 267.909C19.8349 267.659 19.9277 267.445 20.1133 267.267C20.3027 267.089 20.528 267 20.7894 267C21.0508 267 21.2743 267.089 21.4599 267.267C21.6493 267.445 21.744 267.659 21.744 267.909C21.744 268.159 21.6493 268.373 21.4599 268.551C21.2743 268.729 21.0508 268.818 20.7894 268.818ZM23.5845 279V270.273H24.8799V271.636H24.9936C25.1754 271.17 25.4689 270.809 25.8742 270.551C26.2795 270.29 26.7663 270.159 27.3345 270.159C27.9102 270.159 28.3894 270.29 28.772 270.551C29.1583 270.809 29.4595 271.17 29.6754 271.636H29.7663C29.9898 271.186 30.325 270.828 30.772 270.562C31.2189 270.294 31.7549 270.159 32.3799 270.159C33.1602 270.159 33.7985 270.403 34.2947 270.892C34.7909 271.377 35.039 272.133 35.039 273.159V279H33.6981V273.159C33.6981 272.515 33.522 272.055 33.1697 271.778C32.8174 271.502 32.4026 271.364 31.9254 271.364C31.3117 271.364 30.8364 271.549 30.4992 271.92C30.1621 272.288 29.9936 272.754 29.9936 273.318V279H28.6299V273.023C28.6299 272.527 28.4689 272.127 28.147 271.824C27.825 271.517 27.4102 271.364 26.9026 271.364C26.5542 271.364 26.2284 271.456 25.9254 271.642C25.6261 271.828 25.3837 272.085 25.1981 272.415C25.0163 272.741 24.9254 273.117 24.9254 273.545V279H23.5845ZM37.1707 282.273V270.273H38.4662V271.659H38.6253C38.7237 271.508 38.8601 271.314 39.0344 271.08C39.2124 270.841 39.4662 270.629 39.7957 270.443C40.129 270.254 40.5798 270.159 41.148 270.159C41.8828 270.159 42.5306 270.343 43.0912 270.71C43.6518 271.078 44.0893 271.598 44.4037 272.273C44.7181 272.947 44.8753 273.742 44.8753 274.659C44.8753 275.583 44.7181 276.384 44.4037 277.062C44.0893 277.737 43.6537 278.259 43.0969 278.631C42.54 278.998 41.898 279.182 41.1707 279.182C40.6101 279.182 40.1612 279.089 39.8241 278.903C39.487 278.714 39.2275 278.5 39.0457 278.261C38.8639 278.019 38.7237 277.818 38.6253 277.659H38.5116V282.273H37.1707ZM38.4889 274.636C38.4889 275.295 38.5855 275.877 38.7787 276.381C38.9719 276.881 39.254 277.273 39.6253 277.557C39.9965 277.837 40.451 277.977 40.9889 277.977C41.5495 277.977 42.0173 277.83 42.3923 277.534C42.7711 277.235 43.0552 276.833 43.2446 276.33C43.4378 275.822 43.5344 275.258 43.5344 274.636C43.5344 274.023 43.4397 273.47 43.2503 272.977C43.0647 272.481 42.7825 272.089 42.4037 271.801C42.0287 271.509 41.5571 271.364 40.9889 271.364C40.4434 271.364 39.9851 271.502 39.6139 271.778C39.2427 272.051 38.9624 272.434 38.773 272.926C38.5836 273.415 38.4889 273.985 38.4889 274.636ZM47.9416 267.364V279H46.6007V267.364H47.9416ZM53.7367 279.182C52.8958 279.182 52.1704 278.996 51.5605 278.625C50.9545 278.25 50.4867 277.727 50.1571 277.057C49.8314 276.383 49.6685 275.598 49.6685 274.705C49.6685 273.811 49.8314 273.023 50.1571 272.341C50.4867 271.655 50.945 271.121 51.5321 270.739C52.123 270.352 52.8124 270.159 53.6003 270.159C54.0549 270.159 54.5037 270.235 54.9469 270.386C55.3901 270.538 55.7935 270.784 56.1571 271.125C56.5208 271.462 56.8105 271.909 57.0265 272.466C57.2424 273.023 57.3503 273.708 57.3503 274.523V275.091H50.623V273.932H55.9867C55.9867 273.439 55.8882 273 55.6912 272.614C55.498 272.227 55.2215 271.922 54.8617 271.699C54.5056 271.475 54.0852 271.364 53.6003 271.364C53.0662 271.364 52.6041 271.496 52.214 271.761C51.8276 272.023 51.5302 272.364 51.3219 272.784C51.1136 273.205 51.0094 273.655 51.0094 274.136V274.909C51.0094 275.568 51.123 276.127 51.3503 276.585C51.5814 277.04 51.9015 277.386 52.3105 277.625C52.7196 277.86 53.195 277.977 53.7367 277.977C54.089 277.977 54.4071 277.928 54.6912 277.83C54.9791 277.727 55.2272 277.576 55.4355 277.375C55.6439 277.17 55.8049 276.917 55.9185 276.614L57.214 276.977C57.0776 277.417 56.8484 277.803 56.5265 278.136C56.2045 278.466 55.8068 278.723 55.3333 278.909C54.8598 279.091 54.3276 279.182 53.7367 279.182ZM63.2501 282.273V270.273H64.5455V271.659H64.7046C64.8031 271.508 64.9395 271.314 65.1137 271.08C65.2918 270.841 65.5455 270.629 65.8751 270.443C66.2084 270.254 66.6592 270.159 67.2274 270.159C67.9622 270.159 68.6099 270.343 69.1705 270.71C69.7311 271.078 70.1686 271.598 70.483 272.273C70.7974 272.947 70.9546 273.742 70.9546 274.659C70.9546 275.583 70.7974 276.384 70.483 277.062C70.1686 277.737 69.733 278.259 69.1762 278.631C68.6194 278.998 67.9774 279.182 67.2501 279.182C66.6895 279.182 66.2406 279.089 65.9035 278.903C65.5664 278.714 65.3069 278.5 65.1251 278.261C64.9433 278.019 64.8031 277.818 64.7046 277.659H64.591V282.273H63.2501ZM64.5683 274.636C64.5683 275.295 64.6649 275.877 64.858 276.381C65.0512 276.881 65.3334 277.273 65.7046 277.557C66.0758 277.837 66.5304 277.977 67.0683 277.977C67.6289 277.977 68.0967 277.83 68.4717 277.534C68.8505 277.235 69.1346 276.833 69.324 276.33C69.5171 275.822 69.6137 275.258 69.6137 274.636C69.6137 274.023 69.519 273.47 69.3296 272.977C69.144 272.481 68.8618 272.089 68.483 271.801C68.108 271.509 67.6365 271.364 67.0683 271.364C66.5228 271.364 66.0645 271.502 65.6933 271.778C65.3221 272.051 65.0418 272.434 64.8524 272.926C64.663 273.415 64.5683 273.985 64.5683 274.636ZM75.2483 279.205C74.6952 279.205 74.1934 279.1 73.7426 278.892C73.2918 278.68 72.9339 278.375 72.6687 277.977C72.4036 277.576 72.271 277.091 72.271 276.523C72.271 276.023 72.3695 275.617 72.5665 275.307C72.7634 274.992 73.0267 274.746 73.3562 274.568C73.6858 274.39 74.0494 274.258 74.4471 274.17C74.8487 274.08 75.2521 274.008 75.6574 273.955C76.1877 273.886 76.6176 273.835 76.9471 273.801C77.2805 273.763 77.5229 273.701 77.6744 273.614C77.8297 273.527 77.9074 273.375 77.9074 273.159V273.114C77.9074 272.553 77.754 272.117 77.4471 271.807C77.1441 271.496 76.6839 271.341 76.0665 271.341C75.4263 271.341 74.9244 271.481 74.5608 271.761C74.1971 272.042 73.9415 272.341 73.7937 272.659L72.521 272.205C72.7483 271.674 73.0513 271.261 73.4301 270.966C73.8127 270.667 74.2293 270.458 74.6801 270.341C75.1346 270.22 75.5816 270.159 76.021 270.159C76.3013 270.159 76.6233 270.193 76.9869 270.261C77.3543 270.326 77.7085 270.46 78.0494 270.665C78.3941 270.869 78.6801 271.178 78.9074 271.591C79.1346 272.004 79.2483 272.557 79.2483 273.25V279H77.9074V277.818H77.8392C77.7483 278.008 77.5968 278.21 77.3846 278.426C77.1725 278.642 76.8903 278.826 76.538 278.977C76.1858 279.129 75.7559 279.205 75.2483 279.205ZM75.4528 278C75.9831 278 76.4301 277.896 76.7937 277.688C77.1612 277.479 77.4377 277.21 77.6233 276.881C77.8127 276.551 77.9074 276.205 77.9074 275.841V274.614C77.8505 274.682 77.7255 274.744 77.5324 274.801C77.343 274.854 77.1233 274.902 76.8733 274.943C76.6271 274.981 76.3865 275.015 76.1517 275.045C75.9206 275.072 75.7331 275.095 75.5892 275.114C75.2407 275.159 74.9149 275.233 74.6119 275.335C74.3127 275.434 74.0702 275.583 73.8846 275.784C73.7028 275.981 73.6119 276.25 73.6119 276.591C73.6119 277.057 73.7843 277.409 74.129 277.648C74.4774 277.883 74.9187 278 75.4528 278ZM87.5575 272.227L86.353 272.568C86.2772 272.367 86.1655 272.172 86.0178 271.983C85.8738 271.79 85.6769 271.631 85.4269 271.506C85.1769 271.381 84.8568 271.318 84.4666 271.318C83.9325 271.318 83.4875 271.441 83.1314 271.688C82.7791 271.93 82.603 272.239 82.603 272.614C82.603 272.947 82.7242 273.21 82.9666 273.403C83.2091 273.597 83.5878 273.758 84.103 273.886L85.3984 274.205C86.1787 274.394 86.7602 274.684 87.1428 275.074C87.5253 275.46 87.7166 275.958 87.7166 276.568C87.7166 277.068 87.5727 277.515 87.2848 277.909C87.0007 278.303 86.603 278.614 86.0916 278.841C85.5803 279.068 84.9856 279.182 84.3075 279.182C83.4174 279.182 82.6806 278.989 82.0973 278.602C81.514 278.216 81.1447 277.652 80.9894 276.909L82.2621 276.591C82.3833 277.061 82.6125 277.413 82.9496 277.648C83.2905 277.883 83.7356 278 84.2848 278C84.9098 278 85.406 277.867 85.7734 277.602C86.1447 277.333 86.3303 277.011 86.3303 276.636C86.3303 276.333 86.2242 276.08 86.0121 275.875C85.8 275.667 85.4742 275.511 85.0348 275.409L83.5803 275.068C82.781 274.879 82.1939 274.585 81.8189 274.188C81.4477 273.786 81.2621 273.284 81.2621 272.682C81.2621 272.189 81.4003 271.754 81.6769 271.375C81.9572 270.996 82.3378 270.699 82.8189 270.483C83.3037 270.267 83.853 270.159 84.4666 270.159C85.3303 270.159 86.0083 270.348 86.5007 270.727C86.9969 271.106 87.3492 271.606 87.5575 272.227ZM93.2105 270.273V271.409H88.6878V270.273H93.2105ZM90.006 268.182H91.3469V276.5C91.3469 276.879 91.4018 277.163 91.5117 277.352C91.6253 277.538 91.7693 277.663 91.9435 277.727C92.1215 277.788 92.309 277.818 92.506 277.818C92.6537 277.818 92.7749 277.811 92.8696 277.795C92.9643 277.777 93.0401 277.761 93.0969 277.75L93.3696 278.955C93.2787 278.989 93.1518 279.023 92.989 279.057C92.8261 279.095 92.6196 279.114 92.3696 279.114C91.9909 279.114 91.6196 279.032 91.256 278.869C90.8962 278.706 90.5969 278.458 90.3583 278.125C90.1234 277.792 90.006 277.371 90.006 276.864V268.182ZM98.4729 279.182C97.632 279.182 96.9066 278.996 96.2968 278.625C95.6907 278.25 95.2229 277.727 94.8934 277.057C94.5676 276.383 94.4048 275.598 94.4048 274.705C94.4048 273.811 94.5676 273.023 94.8934 272.341C95.2229 271.655 95.6813 271.121 96.2684 270.739C96.8593 270.352 97.5487 270.159 98.3366 270.159C98.7911 270.159 99.24 270.235 99.6832 270.386C100.126 270.538 100.53 270.784 100.893 271.125C101.257 271.462 101.547 271.909 101.763 272.466C101.979 273.023 102.087 273.708 102.087 274.523V275.091H95.3593V273.932H100.723C100.723 273.439 100.624 273 100.427 272.614C100.234 272.227 99.9578 271.922 99.5979 271.699C99.2419 271.475 98.8214 271.364 98.3366 271.364C97.8025 271.364 97.3404 271.496 96.9502 271.761C96.5638 272.023 96.2665 272.364 96.0582 272.784C95.8498 273.205 95.7457 273.655 95.7457 274.136V274.909C95.7457 275.568 95.8593 276.127 96.0866 276.585C96.3176 277.04 96.6377 277.386 97.0468 277.625C97.4559 277.86 97.9313 277.977 98.4729 277.977C98.8252 277.977 99.1434 277.928 99.4275 277.83C99.7154 277.727 99.9635 277.576 100.172 277.375C100.38 277.17 100.541 276.917 100.655 276.614L101.95 276.977C101.814 277.417 101.585 277.803 101.263 278.136C100.941 278.466 100.543 278.723 100.07 278.909C99.596 279.091 99.0638 279.182 98.4729 279.182ZM111.532 279.182C110.744 279.182 110.053 278.994 109.458 278.619C108.867 278.244 108.405 277.72 108.072 277.045C107.742 276.371 107.577 275.583 107.577 274.682C107.577 273.773 107.742 272.979 108.072 272.301C108.405 271.623 108.867 271.097 109.458 270.722C110.053 270.347 110.744 270.159 111.532 270.159C112.32 270.159 113.009 270.347 113.6 270.722C114.195 271.097 114.657 271.623 114.986 272.301C115.32 272.979 115.486 273.773 115.486 274.682C115.486 275.583 115.32 276.371 114.986 277.045C114.657 277.72 114.195 278.244 113.6 278.619C113.009 278.994 112.32 279.182 111.532 279.182ZM111.532 277.977C112.13 277.977 112.623 277.824 113.009 277.517C113.395 277.21 113.681 276.807 113.867 276.307C114.053 275.807 114.145 275.265 114.145 274.682C114.145 274.098 114.053 273.555 113.867 273.051C113.681 272.547 113.395 272.14 113.009 271.83C112.623 271.519 112.13 271.364 111.532 271.364C110.933 271.364 110.441 271.519 110.055 271.83C109.668 272.14 109.382 272.547 109.197 273.051C109.011 273.555 108.918 274.098 108.918 274.682C108.918 275.265 109.011 275.807 109.197 276.307C109.382 276.807 109.668 277.21 110.055 277.517C110.441 277.824 110.933 277.977 111.532 277.977ZM117.213 279V270.273H118.509V271.591H118.6C118.759 271.159 119.047 270.809 119.463 270.54C119.88 270.271 120.35 270.136 120.872 270.136C120.971 270.136 121.094 270.138 121.242 270.142C121.389 270.146 121.501 270.152 121.577 270.159V271.523C121.531 271.511 121.427 271.494 121.264 271.472C121.105 271.445 120.937 271.432 120.759 271.432C120.334 271.432 119.956 271.521 119.622 271.699C119.293 271.873 119.031 272.116 118.838 272.426C118.649 272.733 118.554 273.083 118.554 273.477V279H117.213ZM132.526 275.432V270.273H133.867V279H132.526V277.523H132.435C132.231 277.966 131.913 278.343 131.481 278.653C131.049 278.96 130.504 279.114 129.845 279.114C129.299 279.114 128.814 278.994 128.39 278.756C127.966 278.513 127.632 278.15 127.39 277.665C127.148 277.176 127.026 276.561 127.026 275.818V270.273H128.367V275.727C128.367 276.364 128.545 276.871 128.901 277.25C129.261 277.629 129.72 277.818 130.276 277.818C130.61 277.818 130.949 277.733 131.293 277.562C131.642 277.392 131.934 277.131 132.168 276.778C132.407 276.426 132.526 275.977 132.526 275.432ZM136.003 282.273V270.273H137.299V271.659H137.458C137.556 271.508 137.693 271.314 137.867 271.08C138.045 270.841 138.299 270.629 138.628 270.443C138.962 270.254 139.412 270.159 139.98 270.159C140.715 270.159 141.363 270.343 141.924 270.71C142.484 271.078 142.922 271.598 143.236 272.273C143.551 272.947 143.708 273.742 143.708 274.659C143.708 275.583 143.551 276.384 143.236 277.062C142.922 277.737 142.486 278.259 141.929 278.631C141.373 278.998 140.73 279.182 140.003 279.182C139.443 279.182 138.994 279.089 138.657 278.903C138.32 278.714 138.06 278.5 137.878 278.261C137.696 278.019 137.556 277.818 137.458 277.659H137.344V282.273H136.003ZM137.321 274.636C137.321 275.295 137.418 275.877 137.611 276.381C137.804 276.881 138.087 277.273 138.458 277.557C138.829 277.837 139.284 277.977 139.821 277.977C140.382 277.977 140.85 277.83 141.225 277.534C141.604 277.235 141.888 276.833 142.077 276.33C142.27 275.822 142.367 275.258 142.367 274.636C142.367 274.023 142.272 273.47 142.083 272.977C141.897 272.481 141.615 272.089 141.236 271.801C140.861 271.509 140.39 271.364 139.821 271.364C139.276 271.364 138.818 271.502 138.446 271.778C138.075 272.051 137.795 272.434 137.605 272.926C137.416 273.415 137.321 273.985 137.321 274.636ZM146.774 267.364V279H145.433V267.364H146.774ZM152.456 279.182C151.668 279.182 150.976 278.994 150.382 278.619C149.791 278.244 149.329 277.72 148.995 277.045C148.666 276.371 148.501 275.583 148.501 274.682C148.501 273.773 148.666 272.979 148.995 272.301C149.329 271.623 149.791 271.097 150.382 270.722C150.976 270.347 151.668 270.159 152.456 270.159C153.243 270.159 153.933 270.347 154.524 270.722C155.118 271.097 155.581 271.623 155.91 272.301C156.243 272.979 156.41 273.773 156.41 274.682C156.41 275.583 156.243 276.371 155.91 277.045C155.581 277.72 155.118 278.244 154.524 278.619C153.933 278.994 153.243 279.182 152.456 279.182ZM152.456 277.977C153.054 277.977 153.546 277.824 153.933 277.517C154.319 277.21 154.605 276.807 154.791 276.307C154.976 275.807 155.069 275.265 155.069 274.682C155.069 274.098 154.976 273.555 154.791 273.051C154.605 272.547 154.319 272.14 153.933 271.83C153.546 271.519 153.054 271.364 152.456 271.364C151.857 271.364 151.365 271.519 150.978 271.83C150.592 272.14 150.306 272.547 150.12 273.051C149.935 273.555 149.842 274.098 149.842 274.682C149.842 275.265 149.935 275.807 150.12 276.307C150.306 276.807 150.592 277.21 150.978 277.517C151.365 277.824 151.857 277.977 152.456 277.977ZM160.705 279.205C160.152 279.205 159.65 279.1 159.199 278.892C158.749 278.68 158.391 278.375 158.126 277.977C157.86 277.576 157.728 277.091 157.728 276.523C157.728 276.023 157.826 275.617 158.023 275.307C158.22 274.992 158.484 274.746 158.813 274.568C159.143 274.39 159.506 274.258 159.904 274.17C160.306 274.08 160.709 274.008 161.114 273.955C161.645 273.886 162.074 273.835 162.404 273.801C162.737 273.763 162.98 273.701 163.131 273.614C163.287 273.527 163.364 273.375 163.364 273.159V273.114C163.364 272.553 163.211 272.117 162.904 271.807C162.601 271.496 162.141 271.341 161.523 271.341C160.883 271.341 160.381 271.481 160.018 271.761C159.654 272.042 159.398 272.341 159.251 272.659L157.978 272.205C158.205 271.674 158.508 271.261 158.887 270.966C159.27 270.667 159.686 270.458 160.137 270.341C160.592 270.22 161.038 270.159 161.478 270.159C161.758 270.159 162.08 270.193 162.444 270.261C162.811 270.326 163.165 270.46 163.506 270.665C163.851 270.869 164.137 271.178 164.364 271.591C164.592 272.004 164.705 272.557 164.705 273.25V279H163.364V277.818H163.296C163.205 278.008 163.054 278.21 162.842 278.426C162.629 278.642 162.347 278.826 161.995 278.977C161.643 279.129 161.213 279.205 160.705 279.205ZM160.91 278C161.44 278 161.887 277.896 162.251 277.688C162.618 277.479 162.895 277.21 163.08 276.881C163.27 276.551 163.364 276.205 163.364 275.841V274.614C163.307 274.682 163.182 274.744 162.989 274.801C162.8 274.854 162.58 274.902 162.33 274.943C162.084 274.981 161.843 275.015 161.609 275.045C161.378 275.072 161.19 275.095 161.046 275.114C160.698 275.159 160.372 275.233 160.069 275.335C159.77 275.434 159.527 275.583 159.342 275.784C159.16 275.981 159.069 276.25 159.069 276.591C159.069 277.057 159.241 277.409 159.586 277.648C159.934 277.883 160.376 278 160.91 278ZM170.128 279.182C169.401 279.182 168.759 278.998 168.202 278.631C167.645 278.259 167.209 277.737 166.895 277.062C166.581 276.384 166.423 275.583 166.423 274.659C166.423 273.742 166.581 272.947 166.895 272.273C167.209 271.598 167.647 271.078 168.208 270.71C168.768 270.343 169.416 270.159 170.151 270.159C170.719 270.159 171.168 270.254 171.497 270.443C171.831 270.629 172.084 270.841 172.259 271.08C172.437 271.314 172.575 271.508 172.673 271.659H172.787V267.364H174.128V279H172.833V277.659H172.673C172.575 277.818 172.435 278.019 172.253 278.261C172.071 278.5 171.812 278.714 171.475 278.903C171.138 279.089 170.689 279.182 170.128 279.182ZM170.31 277.977C170.848 277.977 171.302 277.837 171.673 277.557C172.045 277.273 172.327 276.881 172.52 276.381C172.713 275.877 172.81 275.295 172.81 274.636C172.81 273.985 172.715 273.415 172.526 272.926C172.336 272.434 172.056 272.051 171.685 271.778C171.314 271.502 170.855 271.364 170.31 271.364C169.742 271.364 169.268 271.509 168.889 271.801C168.514 272.089 168.232 272.481 168.043 272.977C167.857 273.47 167.764 274.023 167.764 274.636C167.764 275.258 167.859 275.822 168.048 276.33C168.242 276.833 168.526 277.235 168.901 277.534C169.28 277.83 169.749 277.977 170.31 277.977ZM184.426 270.273V271.409H179.903V270.273H184.426ZM181.221 268.182H182.562V276.5C182.562 276.879 182.617 277.163 182.727 277.352C182.84 277.538 182.984 277.663 183.158 277.727C183.337 277.788 183.524 277.818 183.721 277.818C183.869 277.818 183.99 277.811 184.085 277.795C184.179 277.777 184.255 277.761 184.312 277.75L184.585 278.955C184.494 278.989 184.367 279.023 184.204 279.057C184.041 279.095 183.835 279.114 183.585 279.114C183.206 279.114 182.835 279.032 182.471 278.869C182.111 278.706 181.812 278.458 181.573 278.125C181.338 277.792 181.221 277.371 181.221 276.864V268.182ZM187.651 273.75V279H186.31V267.364H187.651V271.636H187.765C187.969 271.186 188.276 270.828 188.685 270.562C189.098 270.294 189.647 270.159 190.333 270.159C190.928 270.159 191.448 270.278 191.895 270.517C192.342 270.752 192.689 271.114 192.935 271.602C193.185 272.087 193.31 272.705 193.31 273.455V279H191.969V273.545C191.969 272.852 191.789 272.316 191.429 271.938C191.073 271.555 190.579 271.364 189.946 271.364C189.507 271.364 189.113 271.456 188.765 271.642C188.42 271.828 188.147 272.098 187.946 272.455C187.749 272.811 187.651 273.242 187.651 273.75ZM199.102 279.182C198.261 279.182 197.536 278.996 196.926 278.625C196.32 278.25 195.852 277.727 195.523 277.057C195.197 276.383 195.034 275.598 195.034 274.705C195.034 273.811 195.197 273.023 195.523 272.341C195.852 271.655 196.311 271.121 196.898 270.739C197.489 270.352 198.178 270.159 198.966 270.159C199.42 270.159 199.869 270.235 200.313 270.386C200.756 270.538 201.159 270.784 201.523 271.125C201.886 271.462 202.176 271.909 202.392 272.466C202.608 273.023 202.716 273.708 202.716 274.523V275.091H195.989V273.932H201.352C201.352 273.439 201.254 273 201.057 272.614C200.864 272.227 200.587 271.922 200.227 271.699C199.871 271.475 199.451 271.364 198.966 271.364C198.432 271.364 197.97 271.496 197.58 271.761C197.193 272.023 196.896 272.364 196.688 272.784C196.479 273.205 196.375 273.655 196.375 274.136V274.909C196.375 275.568 196.489 276.127 196.716 276.585C196.947 277.04 197.267 277.386 197.676 277.625C198.085 277.86 198.561 277.977 199.102 277.977C199.455 277.977 199.773 277.928 200.057 277.83C200.345 277.727 200.593 277.576 200.801 277.375C201.01 277.17 201.17 276.917 201.284 276.614L202.58 276.977C202.443 277.417 202.214 277.803 201.892 278.136C201.57 278.466 201.172 278.723 200.699 278.909C200.225 279.091 199.693 279.182 199.102 279.182ZM212.411 270.273V271.409H207.888V270.273H212.411ZM209.207 268.182H210.548V276.5C210.548 276.879 210.602 277.163 210.712 277.352C210.826 277.538 210.97 277.663 211.144 277.727C211.322 277.788 211.51 277.818 211.707 277.818C211.854 277.818 211.976 277.811 212.07 277.795C212.165 277.777 212.241 277.761 212.298 277.75L212.57 278.955C212.479 278.989 212.352 279.023 212.19 279.057C212.027 279.095 211.82 279.114 211.57 279.114C211.191 279.114 210.82 279.032 210.457 278.869C210.097 278.706 209.798 278.458 209.559 278.125C209.324 277.792 209.207 277.371 209.207 276.864V268.182ZM217.674 279.182C216.833 279.182 216.107 278.996 215.497 278.625C214.891 278.25 214.424 277.727 214.094 277.057C213.768 276.383 213.605 275.598 213.605 274.705C213.605 273.811 213.768 273.023 214.094 272.341C214.424 271.655 214.882 271.121 215.469 270.739C216.06 270.352 216.749 270.159 217.537 270.159C217.992 270.159 218.441 270.235 218.884 270.386C219.327 270.538 219.73 270.784 220.094 271.125C220.458 271.462 220.747 271.909 220.963 272.466C221.179 273.023 221.287 273.708 221.287 274.523V275.091H214.56V273.932H219.924C219.924 273.439 219.825 273 219.628 272.614C219.435 272.227 219.158 271.922 218.799 271.699C218.442 271.475 218.022 271.364 217.537 271.364C217.003 271.364 216.541 271.496 216.151 271.761C215.764 272.023 215.467 272.364 215.259 272.784C215.05 273.205 214.946 273.655 214.946 274.136V274.909C214.946 275.568 215.06 276.127 215.287 276.585C215.518 277.04 215.838 277.386 216.247 277.625C216.657 277.86 217.132 277.977 217.674 277.977C218.026 277.977 218.344 277.928 218.628 277.83C218.916 277.727 219.164 277.576 219.372 277.375C219.581 277.17 219.742 276.917 219.855 276.614L221.151 276.977C221.014 277.417 220.785 277.803 220.463 278.136C220.141 278.466 219.744 278.723 219.27 278.909C218.797 279.091 218.264 279.182 217.674 279.182ZM223.773 270.273L225.864 273.841L227.954 270.273H229.5L226.682 274.636L229.5 279H227.954L225.864 275.614L223.773 279H222.227L225 274.636L222.227 270.273H223.773ZM234.889 270.273V271.409H230.366V270.273H234.889ZM231.684 268.182H233.025V276.5C233.025 276.879 233.08 277.163 233.19 277.352C233.303 277.538 233.447 277.663 233.622 277.727C233.8 277.788 233.987 277.818 234.184 277.818C234.332 277.818 234.453 277.811 234.548 277.795C234.642 277.777 234.718 277.761 234.775 277.75L235.048 278.955C234.957 278.989 234.83 279.023 234.667 279.057C234.504 279.095 234.298 279.114 234.048 279.114C233.669 279.114 233.298 279.032 232.934 278.869C232.574 278.706 232.275 278.458 232.036 278.125C231.802 277.792 231.684 277.371 231.684 276.864V268.182ZM244.311 279.182C243.493 279.182 242.788 278.989 242.198 278.602C241.607 278.216 241.152 277.684 240.834 277.006C240.516 276.328 240.357 275.553 240.357 274.682C240.357 273.795 240.519 273.013 240.845 272.335C241.175 271.653 241.633 271.121 242.22 270.739C242.811 270.352 243.501 270.159 244.288 270.159C244.902 270.159 245.455 270.273 245.948 270.5C246.44 270.727 246.843 271.045 247.158 271.455C247.472 271.864 247.667 272.341 247.743 272.886H246.402C246.3 272.489 246.073 272.136 245.72 271.83C245.372 271.519 244.902 271.364 244.311 271.364C243.788 271.364 243.33 271.5 242.936 271.773C242.546 272.042 242.241 272.422 242.021 272.915C241.805 273.403 241.698 273.977 241.698 274.636C241.698 275.311 241.804 275.898 242.016 276.398C242.232 276.898 242.535 277.286 242.925 277.562C243.319 277.839 243.781 277.977 244.311 277.977C244.66 277.977 244.976 277.917 245.26 277.795C245.544 277.674 245.785 277.5 245.982 277.273C246.179 277.045 246.319 276.773 246.402 276.455H247.743C247.667 276.97 247.48 277.434 247.18 277.847C246.885 278.256 246.493 278.581 246.004 278.824C245.519 279.062 244.955 279.182 244.311 279.182ZM252.929 279.182C252.141 279.182 251.45 278.994 250.855 278.619C250.264 278.244 249.802 277.72 249.468 277.045C249.139 276.371 248.974 275.583 248.974 274.682C248.974 273.773 249.139 272.979 249.468 272.301C249.802 271.623 250.264 271.097 250.855 270.722C251.45 270.347 252.141 270.159 252.929 270.159C253.717 270.159 254.406 270.347 254.997 270.722C255.592 271.097 256.054 271.623 256.383 272.301C256.717 272.979 256.883 273.773 256.883 274.682C256.883 275.583 256.717 276.371 256.383 277.045C256.054 277.72 255.592 278.244 254.997 278.619C254.406 278.994 253.717 279.182 252.929 279.182ZM252.929 277.977C253.527 277.977 254.02 277.824 254.406 277.517C254.792 277.21 255.078 276.807 255.264 276.307C255.45 275.807 255.542 275.265 255.542 274.682C255.542 274.098 255.45 273.555 255.264 273.051C255.078 272.547 254.792 272.14 254.406 271.83C254.02 271.519 253.527 271.364 252.929 271.364C252.33 271.364 251.838 271.519 251.451 271.83C251.065 272.14 250.779 272.547 250.593 273.051C250.408 273.555 250.315 274.098 250.315 274.682C250.315 275.265 250.408 275.807 250.593 276.307C250.779 276.807 251.065 277.21 251.451 277.517C251.838 277.824 252.33 277.977 252.929 277.977ZM259.951 273.75V279H258.61V270.273H259.906V271.636H260.019C260.224 271.193 260.534 270.837 260.951 270.568C261.368 270.295 261.906 270.159 262.565 270.159C263.156 270.159 263.673 270.28 264.116 270.523C264.559 270.761 264.904 271.125 265.15 271.614C265.396 272.098 265.519 272.712 265.519 273.455V279H264.178V273.545C264.178 272.86 264 272.326 263.644 271.943C263.288 271.557 262.799 271.364 262.178 271.364C261.75 271.364 261.368 271.456 261.031 271.642C260.697 271.828 260.434 272.098 260.241 272.455C260.048 272.811 259.951 273.242 259.951 273.75ZM271.445 270.273V271.409H266.922V270.273H271.445ZM268.24 268.182H269.581V276.5C269.581 276.879 269.636 277.163 269.746 277.352C269.86 277.538 270.004 277.663 270.178 277.727C270.356 277.788 270.543 277.818 270.74 277.818C270.888 277.818 271.009 277.811 271.104 277.795C271.199 277.777 271.274 277.761 271.331 277.75L271.604 278.955C271.513 278.989 271.386 279.023 271.223 279.057C271.06 279.095 270.854 279.114 270.604 279.114C270.225 279.114 269.854 279.032 269.49 278.869C269.131 278.706 268.831 278.458 268.593 278.125C268.358 277.792 268.24 277.371 268.24 276.864V268.182ZM276.707 279.182C275.866 279.182 275.141 278.996 274.531 278.625C273.925 278.25 273.457 277.727 273.128 277.057C272.802 276.383 272.639 275.598 272.639 274.705C272.639 273.811 272.802 273.023 273.128 272.341C273.457 271.655 273.916 271.121 274.503 270.739C275.094 270.352 275.783 270.159 276.571 270.159C277.025 270.159 277.474 270.235 277.918 270.386C278.361 270.538 278.764 270.784 279.128 271.125C279.491 271.462 279.781 271.909 279.997 272.466C280.213 273.023 280.321 273.708 280.321 274.523V275.091H273.594V273.932H278.957C278.957 273.439 278.859 273 278.662 272.614C278.469 272.227 278.192 271.922 277.832 271.699C277.476 271.475 277.056 271.364 276.571 271.364C276.037 271.364 275.575 271.496 275.185 271.761C274.798 272.023 274.501 272.364 274.293 272.784C274.084 273.205 273.98 273.655 273.98 274.136V274.909C273.98 275.568 274.094 276.127 274.321 276.585C274.552 277.04 274.872 277.386 275.281 277.625C275.69 277.86 276.166 277.977 276.707 277.977C277.06 277.977 277.378 277.928 277.662 277.83C277.95 277.727 278.198 277.576 278.406 277.375C278.615 277.17 278.775 276.917 278.889 276.614L280.185 276.977C280.048 277.417 279.819 277.803 279.497 278.136C279.175 278.466 278.777 278.723 278.304 278.909C277.83 279.091 277.298 279.182 276.707 279.182ZM283.382 273.75V279H282.041V270.273H283.336V271.636H283.45C283.654 271.193 283.965 270.837 284.382 270.568C284.798 270.295 285.336 270.159 285.995 270.159C286.586 270.159 287.103 270.28 287.546 270.523C287.99 270.761 288.334 271.125 288.58 271.614C288.827 272.098 288.95 272.712 288.95 273.455V279H287.609V273.545C287.609 272.86 287.431 272.326 287.075 271.943C286.719 271.557 286.23 271.364 285.609 271.364C285.181 271.364 284.798 271.456 284.461 271.642C284.128 271.828 283.865 272.098 283.671 272.455C283.478 272.811 283.382 273.242 283.382 273.75ZM294.876 270.273V271.409H290.353V270.273H294.876ZM291.671 268.182H293.012V276.5C293.012 276.879 293.067 277.163 293.177 277.352C293.29 277.538 293.434 277.663 293.608 277.727C293.787 277.788 293.974 277.818 294.171 277.818C294.319 277.818 294.44 277.811 294.535 277.795C294.629 277.777 294.705 277.761 294.762 277.75L295.035 278.955C294.944 278.989 294.817 279.023 294.654 279.057C294.491 279.095 294.285 279.114 294.035 279.114C293.656 279.114 293.285 279.032 292.921 278.869C292.561 278.706 292.262 278.458 292.023 278.125C291.788 277.792 291.671 277.371 291.671 276.864V268.182ZM301.616 282.273C301.389 282.273 301.186 282.254 301.008 282.216C300.83 282.182 300.707 282.148 300.639 282.114L300.98 280.932C301.306 281.015 301.594 281.045 301.844 281.023C302.094 281 302.315 280.888 302.508 280.688C302.705 280.491 302.885 280.17 303.048 279.727L303.298 279.045L300.071 270.273H301.525L303.934 277.227H304.025L306.434 270.273H307.889L304.184 280.273C304.018 280.723 303.811 281.097 303.565 281.392C303.319 281.691 303.033 281.913 302.707 282.057C302.385 282.201 302.022 282.273 301.616 282.273ZM312.572 279.182C311.784 279.182 311.093 278.994 310.498 278.619C309.907 278.244 309.445 277.72 309.112 277.045C308.782 276.371 308.617 275.583 308.617 274.682C308.617 273.773 308.782 272.979 309.112 272.301C309.445 271.623 309.907 271.097 310.498 270.722C311.093 270.347 311.784 270.159 312.572 270.159C313.36 270.159 314.049 270.347 314.64 270.722C315.235 271.097 315.697 271.623 316.026 272.301C316.36 272.979 316.526 273.773 316.526 274.682C316.526 275.583 316.36 276.371 316.026 277.045C315.697 277.72 315.235 278.244 314.64 278.619C314.049 278.994 313.36 279.182 312.572 279.182ZM312.572 277.977C313.17 277.977 313.663 277.824 314.049 277.517C314.435 277.21 314.721 276.807 314.907 276.307C315.093 275.807 315.185 275.265 315.185 274.682C315.185 274.098 315.093 273.555 314.907 273.051C314.721 272.547 314.435 272.14 314.049 271.83C313.663 271.519 313.17 271.364 312.572 271.364C311.973 271.364 311.481 271.519 311.095 271.83C310.708 272.14 310.422 272.547 310.237 273.051C310.051 273.555 309.958 274.098 309.958 274.682C309.958 275.265 310.051 275.807 310.237 276.307C310.422 276.807 310.708 277.21 311.095 277.517C311.481 277.824 311.973 277.977 312.572 277.977ZM323.753 275.432V270.273H325.094V279H323.753V277.523H323.662C323.458 277.966 323.14 278.343 322.708 278.653C322.276 278.96 321.73 279.114 321.071 279.114C320.526 279.114 320.041 278.994 319.617 278.756C319.193 278.513 318.859 278.15 318.617 277.665C318.374 277.176 318.253 276.561 318.253 275.818V270.273H319.594V275.727C319.594 276.364 319.772 276.871 320.128 277.25C320.488 277.629 320.946 277.818 321.503 277.818C321.837 277.818 322.176 277.733 322.52 277.562C322.869 277.392 323.16 277.131 323.395 276.778C323.634 276.426 323.753 275.977 323.753 275.432ZM113.312 311L110.653 302.273H112.062L113.948 308.955H114.039L115.903 302.273H117.334L119.175 308.932H119.266L121.153 302.273H122.562L119.903 311H118.584L116.675 304.295H116.539L114.63 311H113.312ZM126.583 311.205C126.03 311.205 125.528 311.1 125.077 310.892C124.626 310.68 124.268 310.375 124.003 309.977C123.738 309.576 123.605 309.091 123.605 308.523C123.605 308.023 123.704 307.617 123.901 307.307C124.098 306.992 124.361 306.746 124.691 306.568C125.02 306.39 125.384 306.258 125.782 306.17C126.183 306.08 126.586 306.008 126.992 305.955C127.522 305.886 127.952 305.835 128.282 305.801C128.615 305.763 128.857 305.701 129.009 305.614C129.164 305.527 129.242 305.375 129.242 305.159V305.114C129.242 304.553 129.088 304.117 128.782 303.807C128.478 303.496 128.018 303.341 127.401 303.341C126.761 303.341 126.259 303.481 125.895 303.761C125.532 304.042 125.276 304.341 125.128 304.659L123.855 304.205C124.083 303.674 124.386 303.261 124.764 302.966C125.147 302.667 125.564 302.458 126.014 302.341C126.469 302.22 126.916 302.159 127.355 302.159C127.636 302.159 127.958 302.193 128.321 302.261C128.689 302.326 129.043 302.46 129.384 302.665C129.728 302.869 130.014 303.178 130.242 303.591C130.469 304.004 130.583 304.557 130.583 305.25V311H129.242V309.818H129.174C129.083 310.008 128.931 310.21 128.719 310.426C128.507 310.642 128.225 310.826 127.872 310.977C127.52 311.129 127.09 311.205 126.583 311.205ZM126.787 310C127.317 310 127.764 309.896 128.128 309.688C128.496 309.479 128.772 309.21 128.958 308.881C129.147 308.551 129.242 308.205 129.242 307.841V306.614C129.185 306.682 129.06 306.744 128.867 306.801C128.677 306.854 128.458 306.902 128.208 306.943C127.961 306.981 127.721 307.015 127.486 307.045C127.255 307.072 127.067 307.095 126.924 307.114C126.575 307.159 126.249 307.233 125.946 307.335C125.647 307.434 125.405 307.583 125.219 307.784C125.037 307.981 124.946 308.25 124.946 308.591C124.946 309.057 125.119 309.409 125.463 309.648C125.812 309.883 126.253 310 126.787 310ZM134.051 305.75V311H132.71V302.273H134.006V303.636H134.119C134.324 303.193 134.634 302.837 135.051 302.568C135.468 302.295 136.006 302.159 136.665 302.159C137.256 302.159 137.773 302.28 138.216 302.523C138.659 302.761 139.004 303.125 139.25 303.614C139.496 304.098 139.619 304.712 139.619 305.455V311H138.278V305.545C138.278 304.86 138.1 304.326 137.744 303.943C137.388 303.557 136.899 303.364 136.278 303.364C135.85 303.364 135.468 303.456 135.131 303.642C134.797 303.828 134.534 304.098 134.341 304.455C134.148 304.811 134.051 305.242 134.051 305.75ZM145.545 302.273V303.409H141.022V302.273H145.545ZM142.34 300.182H143.681V308.5C143.681 308.879 143.736 309.163 143.846 309.352C143.96 309.538 144.104 309.663 144.278 309.727C144.456 309.788 144.643 309.818 144.84 309.818C144.988 309.818 145.109 309.811 145.204 309.795C145.299 309.777 145.374 309.761 145.431 309.75L145.704 310.955C145.613 310.989 145.486 311.023 145.323 311.057C145.16 311.095 144.954 311.114 144.704 311.114C144.325 311.114 143.954 311.032 143.59 310.869C143.231 310.706 142.931 310.458 142.693 310.125C142.458 309.792 142.34 309.371 142.34 308.864V300.182ZM155.217 302.273V303.409H150.695V302.273H155.217ZM152.013 300.182H153.354V308.5C153.354 308.879 153.409 309.163 153.519 309.352C153.632 309.538 153.776 309.663 153.95 309.727C154.128 309.788 154.316 309.818 154.513 309.818C154.661 309.818 154.782 309.811 154.877 309.795C154.971 309.777 155.047 309.761 155.104 309.75L155.377 310.955C155.286 310.989 155.159 311.023 154.996 311.057C154.833 311.095 154.627 311.114 154.377 311.114C153.998 311.114 153.627 311.032 153.263 310.869C152.903 310.706 152.604 310.458 152.365 310.125C152.13 309.792 152.013 309.371 152.013 308.864V300.182ZM160.366 311.182C159.578 311.182 158.887 310.994 158.292 310.619C157.701 310.244 157.239 309.72 156.906 309.045C156.576 308.371 156.412 307.583 156.412 306.682C156.412 305.773 156.576 304.979 156.906 304.301C157.239 303.623 157.701 303.097 158.292 302.722C158.887 302.347 159.578 302.159 160.366 302.159C161.154 302.159 161.843 302.347 162.434 302.722C163.029 303.097 163.491 303.623 163.821 304.301C164.154 304.979 164.321 305.773 164.321 306.682C164.321 307.583 164.154 308.371 163.821 309.045C163.491 309.72 163.029 310.244 162.434 310.619C161.843 310.994 161.154 311.182 160.366 311.182ZM160.366 309.977C160.965 309.977 161.457 309.824 161.843 309.517C162.23 309.21 162.516 308.807 162.701 308.307C162.887 307.807 162.98 307.265 162.98 306.682C162.98 306.098 162.887 305.555 162.701 305.051C162.516 304.547 162.23 304.14 161.843 303.83C161.457 303.519 160.965 303.364 160.366 303.364C159.768 303.364 159.275 303.519 158.889 303.83C158.503 304.14 158.217 304.547 158.031 305.051C157.845 305.555 157.753 306.098 157.753 306.682C157.753 307.265 157.845 307.807 158.031 308.307C158.217 308.807 158.503 309.21 158.889 309.517C159.275 309.824 159.768 309.977 160.366 309.977ZM172.796 311.205C172.243 311.205 171.741 311.1 171.29 310.892C170.839 310.68 170.481 310.375 170.216 309.977C169.951 309.576 169.819 309.091 169.819 308.523C169.819 308.023 169.917 307.617 170.114 307.307C170.311 306.992 170.574 306.746 170.904 306.568C171.233 306.39 171.597 306.258 171.995 306.17C172.396 306.08 172.8 306.008 173.205 305.955C173.735 305.886 174.165 305.835 174.495 305.801C174.828 305.763 175.07 305.701 175.222 305.614C175.377 305.527 175.455 305.375 175.455 305.159V305.114C175.455 304.553 175.301 304.117 174.995 303.807C174.692 303.496 174.231 303.341 173.614 303.341C172.974 303.341 172.472 303.481 172.108 303.761C171.745 304.042 171.489 304.341 171.341 304.659L170.069 304.205C170.296 303.674 170.599 303.261 170.978 302.966C171.36 302.667 171.777 302.458 172.228 302.341C172.682 302.22 173.129 302.159 173.569 302.159C173.849 302.159 174.171 302.193 174.534 302.261C174.902 302.326 175.256 302.46 175.597 302.665C175.942 302.869 176.228 303.178 176.455 303.591C176.682 304.004 176.796 304.557 176.796 305.25V311H175.455V309.818H175.387C175.296 310.008 175.144 310.21 174.932 310.426C174.72 310.642 174.438 310.826 174.086 310.977C173.733 311.129 173.303 311.205 172.796 311.205ZM173 310C173.531 310 173.978 309.896 174.341 309.688C174.709 309.479 174.985 309.21 175.171 308.881C175.36 308.551 175.455 308.205 175.455 307.841V306.614C175.398 306.682 175.273 306.744 175.08 306.801C174.89 306.854 174.671 306.902 174.421 306.943C174.175 306.981 173.934 307.015 173.699 307.045C173.468 307.072 173.281 307.095 173.137 307.114C172.788 307.159 172.462 307.233 172.159 307.335C171.86 307.434 171.618 307.583 171.432 307.784C171.25 307.981 171.159 308.25 171.159 308.591C171.159 309.057 171.332 309.409 171.676 309.648C172.025 309.883 172.466 310 173 310ZM180.264 305.75V311H178.923V302.273H180.219V303.636H180.332C180.537 303.193 180.847 302.837 181.264 302.568C181.681 302.295 182.219 302.159 182.878 302.159C183.469 302.159 183.986 302.28 184.429 302.523C184.872 302.761 185.217 303.125 185.463 303.614C185.709 304.098 185.832 304.712 185.832 305.455V311H184.491V305.545C184.491 304.86 184.313 304.326 183.957 303.943C183.601 303.557 183.113 303.364 182.491 303.364C182.063 303.364 181.681 303.456 181.344 303.642C181.01 303.828 180.747 304.098 180.554 304.455C180.361 304.811 180.264 305.242 180.264 305.75ZM190.531 311.205C189.978 311.205 189.476 311.1 189.025 310.892C188.574 310.68 188.216 310.375 187.951 309.977C187.686 309.576 187.554 309.091 187.554 308.523C187.554 308.023 187.652 307.617 187.849 307.307C188.046 306.992 188.309 306.746 188.639 306.568C188.968 306.39 189.332 306.258 189.73 306.17C190.131 306.08 190.535 306.008 190.94 305.955C191.47 305.886 191.9 305.835 192.23 305.801C192.563 305.763 192.805 305.701 192.957 305.614C193.112 305.527 193.19 305.375 193.19 305.159V305.114C193.19 304.553 193.036 304.117 192.73 303.807C192.427 303.496 191.966 303.341 191.349 303.341C190.709 303.341 190.207 303.481 189.843 303.761C189.48 304.042 189.224 304.341 189.076 304.659L187.804 304.205C188.031 303.674 188.334 303.261 188.713 302.966C189.095 302.667 189.512 302.458 189.963 302.341C190.417 302.22 190.864 302.159 191.304 302.159C191.584 302.159 191.906 302.193 192.269 302.261C192.637 302.326 192.991 302.46 193.332 302.665C193.677 302.869 193.963 303.178 194.19 303.591C194.417 304.004 194.531 304.557 194.531 305.25V311H193.19V309.818H193.122C193.031 310.008 192.879 310.21 192.667 310.426C192.455 310.642 192.173 310.826 191.821 310.977C191.468 311.129 191.038 311.205 190.531 311.205ZM190.735 310C191.266 310 191.713 309.896 192.076 309.688C192.444 309.479 192.72 309.21 192.906 308.881C193.095 308.551 193.19 308.205 193.19 307.841V306.614C193.133 306.682 193.008 306.744 192.815 306.801C192.625 306.854 192.406 306.902 192.156 306.943C191.91 306.981 191.669 307.015 191.434 307.045C191.203 307.072 191.016 307.095 190.872 307.114C190.523 307.159 190.197 307.233 189.894 307.335C189.595 307.434 189.353 307.583 189.167 307.784C188.985 307.981 188.894 308.25 188.894 308.591C188.894 309.057 189.067 309.409 189.411 309.648C189.76 309.883 190.201 310 190.735 310ZM197.999 299.364V311H196.658V299.364H197.999ZM200.999 314.273C200.771 314.273 200.569 314.254 200.391 314.216C200.213 314.182 200.09 314.148 200.021 314.114L200.362 312.932C200.688 313.015 200.976 313.045 201.226 313.023C201.476 313 201.698 312.888 201.891 312.688C202.088 312.491 202.268 312.17 202.431 311.727L202.681 311.045L199.453 302.273H200.908L203.317 309.227H203.408L205.817 302.273H207.271L203.567 312.273C203.4 312.723 203.194 313.097 202.948 313.392C202.701 313.691 202.415 313.913 202.09 314.057C201.768 314.201 201.404 314.273 200.999 314.273ZM208.471 311V309.977L213.426 303.614V303.523H208.63V302.273H215.153V303.341L210.335 309.659V309.75H215.312V311H208.471ZM220.467 311.182C219.626 311.182 218.9 310.996 218.291 310.625C217.684 310.25 217.217 309.727 216.887 309.057C216.561 308.383 216.399 307.598 216.399 306.705C216.399 305.811 216.561 305.023 216.887 304.341C217.217 303.655 217.675 303.121 218.262 302.739C218.853 302.352 219.542 302.159 220.33 302.159C220.785 302.159 221.234 302.235 221.677 302.386C222.12 302.538 222.524 302.784 222.887 303.125C223.251 303.462 223.541 303.909 223.756 304.466C223.972 305.023 224.08 305.708 224.08 306.523V307.091H217.353V305.932H222.717C222.717 305.439 222.618 305 222.421 304.614C222.228 304.227 221.952 303.922 221.592 303.699C221.236 303.475 220.815 303.364 220.33 303.364C219.796 303.364 219.334 303.496 218.944 303.761C218.558 304.023 218.26 304.364 218.052 304.784C217.844 305.205 217.739 305.655 217.739 306.136V306.909C217.739 307.568 217.853 308.127 218.08 308.585C218.311 309.04 218.631 309.386 219.041 309.625C219.45 309.86 219.925 309.977 220.467 309.977C220.819 309.977 221.137 309.928 221.421 309.83C221.709 309.727 221.957 309.576 222.166 309.375C222.374 309.17 222.535 308.917 222.649 308.614L223.944 308.977C223.808 309.417 223.578 309.803 223.256 310.136C222.934 310.466 222.537 310.723 222.063 310.909C221.59 311.091 221.058 311.182 220.467 311.182Z" fill="#828A91"/>
<g filter="url(#filter1_d_304_2179)">
<rect x="77.5" y="20" width="40" height="40" rx="20" fill="white"/>
<path d="M92.6836 46V43.457H96.5859V33.6133L93.1875 35.4883L92.25 33.1562L97.1133 30.5898H99.5156V43.457H102.879V46H92.6836Z" fill="black"/>
</g>
<defs>
<filter id="filter0_d_304_2179" x="66.2188" y="14" width="202.562" height="224" filterUnits="userSpaceOnUse" color-interpolation-filters="sRGB">
<feFlood flood-opacity="0" result="BackgroundImageFix"/>
<feColorMatrix in="SourceAlpha" type="matrix" values="0 0 0 0 0 0 0 0 0 0 0 0 0 0 0 0 0 0 127 0" result="hardAlpha"/>
<feOffset dy="12"/>
<feGaussianBlur stdDeviation="16"/>
<feComposite in2="hardAlpha" operator="out"/>
<feColorMatrix type="matrix" values="0 0 0 0 0 0 0 0 0 0 0 0 0 0 0 0 0 0 0.06 0"/>
<feBlend mode="normal" in2="BackgroundImageFix" result="effect1_dropShadow_304_2179"/>
<feBlend mode="normal" in="SourceGraphic" in2="effect1_dropShadow_304_2179" result="shape"/>
</filter>
<filter id="filter1_d_304_2179" x="45.5" y="0" width="104" height="104" filterUnits="userSpaceOnUse" color-interpolation-filters="sRGB">
<feFlood flood-opacity="0" result="BackgroundImageFix"/>
<feColorMatrix in="SourceAlpha" type="matrix" values="0 0 0 0 0 0 0 0 0 0 0 0 0 0 0 0 0 0 127 0" result="hardAlpha"/>
<feOffset dy="12"/>
<feGaussianBlur stdDeviation="16"/>
<feComposite in2="hardAlpha" operator="out"/>
<feColorMatrix type="matrix" values="0 0 0 0 0 0 0 0 0 0 0 0 0 0 0 0 0 0 0.06 0"/>
<feBlend mode="normal" in2="BackgroundImageFix" result="effect1_dropShadow_304_2179"/>
<feBlend mode="normal" in="SourceGraphic" in2="effect1_dropShadow_304_2179" result="shape"/>
</filter>
</defs>
</svg>
