<svg width="91" height="80" viewBox="0 0 91 80" fill="none" xmlns="http://www.w3.org/2000/svg">
<path d="M35 0L69.641 20V60L35 80L0.358982 60V20L35 0Z" fill="#EFF5FD"/>
<path d="M31.4995 41.166C30.7295 41.551 30.0878 42.1227 29.6095 42.8343C29.3411 43.2427 29.3411 43.756 29.6095 44.1643C30.0878 44.876 30.7295 45.4477 31.4995 45.8327" stroke="#3B88E9" stroke-width="2" stroke-linecap="round" stroke-linejoin="round"/>
<path d="M38.7441 41.166C39.5141 41.551 40.1558 42.1227 40.6341 42.8343C40.9025 43.2427 40.9025 43.756 40.6341 44.1643C40.1558 44.876 39.5141 45.4477 38.7441 45.8327" stroke="#3B88E9" stroke-width="2" stroke-linecap="round" stroke-linejoin="round"/>
<path d="M31.5007 51.6673H38.5007C44.334 51.6673 46.6673 49.334 46.6673 43.5007V36.5007C46.6673 30.6673 44.334 28.334 38.5007 28.334H31.5007C25.6673 28.334 23.334 30.6673 23.334 36.5007V43.5007C23.334 49.334 25.6673 51.6673 31.5007 51.6673Z" stroke="#3B88E9" stroke-width="2" stroke-linecap="round" stroke-linejoin="round"/>
<path d="M23.6016 35.3457L46.0249 35.334" stroke="#3B88E9" stroke-width="2" stroke-linecap="round" stroke-linejoin="round"/>
</svg>
