<svg width="37" height="36" viewBox="0 0 37 36" fill="none" xmlns="http://www.w3.org/2000/svg">
<rect x="0.5" width="36" height="36" rx="18" fill="#292D33"/>
<path d="M15.9993 26.3327H20.9993C25.166 26.3327 26.8327 24.666 26.8327 20.4993V15.4993C26.8327 11.3327 25.166 9.66602 20.9993 9.66602H15.9993C11.8327 9.66602 10.166 11.3327 10.166 15.4993V20.4993C10.166 24.666 11.8327 26.3327 15.9993 26.3327Z" stroke="white" stroke-width="1.2" stroke-linecap="round" stroke-linejoin="round"/>
<path d="M18.5007 20.9173C20.1115 20.9173 21.4173 19.6115 21.4173 18.0007C21.4173 16.3898 20.1115 15.084 18.5007 15.084C16.8898 15.084 15.584 16.3898 15.584 18.0007C15.584 19.6115 16.8898 20.9173 18.5007 20.9173Z" stroke="white" stroke-width="1.2" stroke-linecap="round" stroke-linejoin="round"/>
<path d="M23.1961 13.8327H23.2057" stroke="white" stroke-width="2" stroke-linecap="round" stroke-linejoin="round"/>
</svg>
