<svg width="41" height="40" viewBox="0 0 41 40" fill="none" xmlns="http://www.w3.org/2000/svg">
<rect x="0.5" width="40" height="40" rx="20" fill="#292D33"/>
<path d="M16.2493 27.166C17.4993 27.916 18.9993 28.3327 20.4993 28.3327C25.0827 28.3327 28.8327 24.5827 28.8327 19.9993C28.8327 15.416 25.0827 11.666 20.4993 11.666C15.916 11.666 12.166 15.416 12.166 19.9993C12.166 21.4993 12.5827 22.916 13.2493 24.166L12.6065 26.6387C12.4117 27.3876 13.1049 28.0644 13.849 27.8518L16.2493 27.166Z" stroke="white" stroke-width="1.2" stroke-miterlimit="10" stroke-linecap="round" stroke-linejoin="round"/>
<path d="M24.25 22.3737C24.25 22.5087 24.22 22.6475 24.1561 22.7825C24.0923 22.9175 24.0096 23.045 23.9007 23.165C23.7167 23.3675 23.5139 23.5138 23.2848 23.6075C23.0595 23.7013 22.8153 23.75 22.5525 23.75C22.1694 23.75 21.76 23.66 21.3281 23.4763C20.8962 23.2925 20.4643 23.045 20.0362 22.7338C19.6043 22.4188 19.1949 22.07 18.8043 21.6837C18.4175 21.2937 18.0682 20.885 17.7565 20.4575C17.4485 20.03 17.2007 19.6025 17.0204 19.1788C16.8401 18.7513 16.75 18.3425 16.75 17.9525C16.75 17.6975 16.7951 17.4538 16.8852 17.2288C16.9753 17 17.1181 16.79 17.3171 16.6025C17.5575 16.3663 17.8204 16.25 18.0983 16.25C18.2034 16.25 18.3086 16.2725 18.4025 16.3175C18.5001 16.3625 18.5865 16.43 18.6541 16.5275L19.5254 17.7538C19.593 17.8475 19.6418 17.9338 19.6756 18.0163C19.7094 18.095 19.7282 18.1738 19.7282 18.245C19.7282 18.335 19.7019 18.425 19.6493 18.5112C19.6005 18.5975 19.5292 18.6875 19.439 18.7775L19.1536 19.0737C19.1123 19.115 19.0935 19.1638 19.0935 19.2238C19.0935 19.2538 19.0973 19.28 19.1048 19.31C19.116 19.34 19.1273 19.3625 19.1348 19.385C19.2024 19.5087 19.3189 19.67 19.4841 19.865C19.6531 20.06 19.8334 20.2588 20.0287 20.4575C20.2315 20.6563 20.4268 20.84 20.6258 21.0087C20.8211 21.1737 20.9826 21.2862 21.1103 21.3537C21.1291 21.3612 21.1516 21.3725 21.1779 21.3837C21.2079 21.395 21.238 21.3987 21.2718 21.3987C21.3356 21.3987 21.3845 21.3763 21.4258 21.335L21.7112 21.0538C21.8051 20.96 21.8952 20.8887 21.9816 20.8438C22.068 20.7912 22.1544 20.765 22.2482 20.765C22.3196 20.765 22.3947 20.78 22.4773 20.8138C22.56 20.8475 22.6463 20.8963 22.7402 20.96L23.9834 21.8412C24.081 21.9087 24.1486 21.9875 24.1899 22.0812C24.2275 22.175 24.25 22.2687 24.25 22.3737Z" stroke="white" stroke-width="1.2" stroke-miterlimit="10"/>
</svg>
