<svg width="37" height="36" viewBox="0 0 37 36" fill="none" xmlns="http://www.w3.org/2000/svg">
<rect x="0.5" width="36" height="36" rx="18" fill="#292D33"/>
<path d="M20.1667 15.75V18.1667H22.3333C22.5 18.1667 22.5833 18.3333 22.5833 18.5L22.25 20.0833C22.25 20.1667 22.0833 20.25 22 20.25H20.1667V26.3333H17.6667V20.3333H16.25C16.0833 20.3333 16 20.25 16 20.0833V18.5C16 18.3333 16.0833 18.25 16.25 18.25H17.6667V15.5C17.6667 14.0833 18.75 13 20.1667 13H22.4167C22.5833 13 22.6667 13.0833 22.6667 13.25V15.25C22.6667 15.4167 22.5833 15.5 22.4167 15.5H20.4167C20.25 15.5 20.1667 15.5833 20.1667 15.75Z" stroke="white" stroke-width="1.2" stroke-miterlimit="10" stroke-linecap="round"/>
<path d="M20.9993 26.3327H15.9993C11.8327 26.3327 10.166 24.666 10.166 20.4993V15.4993C10.166 11.3327 11.8327 9.66602 15.9993 9.66602H20.9993C25.166 9.66602 26.8327 11.3327 26.8327 15.4993V20.4993C26.8327 24.666 25.166 26.3327 20.9993 26.3327Z" stroke="white" stroke-width="1.2" stroke-linecap="round" stroke-linejoin="round"/>
</svg>
