<svg width="68" height="74" viewBox="0 0 68 74" fill="none" xmlns="http://www.w3.org/2000/svg">
<path fill-rule="evenodd" clip-rule="evenodd" d="M30.4259 68.5287C24.0259 66.7327 17.3253 65.8267 10.8253 64.9967C9.42534 64.8227 8.12553 65.7937 8.02553 67.1617C7.82553 68.5307 8.82612 69.7827 10.1261 69.9567C16.4261 70.7557 22.9255 71.6107 29.0255 73.3397C30.3255 73.7147 31.7261 72.9427 32.1261 71.6147C32.5261 70.2877 31.7259 68.9047 30.4259 68.5287Z" fill="#585F66"/>
<path fill-rule="evenodd" clip-rule="evenodd" d="M41.8251 43.0649C31.5251 32.5539 19.9251 23.3959 9.8251 12.6029C8.9251 11.5949 7.3251 11.5409 6.3251 12.4819C5.3251 13.4239 5.22549 15.0079 6.22549 16.0159C16.3255 26.8399 27.9255 36.0279 38.2255 46.5699C39.2255 47.5539 40.8251 47.5679 41.8251 46.5999C42.7251 45.6329 42.8251 44.0489 41.8251 43.0649Z" fill="#585F66"/>
<path fill-rule="evenodd" clip-rule="evenodd" d="M61.1255 10.6358C61.4255 16.6518 61.7249 22.6678 62.0249 28.6848C62.0249 30.0628 63.2255 31.1268 64.6255 31.0598C66.0255 30.9918 67.0249 29.8188 67.0249 28.4398C66.7249 22.4138 66.4255 16.3888 66.1255 10.3638C66.0255 8.98576 64.8253 7.92876 63.4253 8.00376C62.1253 8.07876 61.0255 9.25876 61.1255 10.6358Z" fill="#585F66"/>
</svg>
