<svg width="74" height="68" viewBox="0 0 74 68" fill="none" xmlns="http://www.w3.org/2000/svg">
<g id="Highlight_05">
<path id="Vector" fill-rule="evenodd" clip-rule="evenodd" d="M68.5287 36.6C66.7327 43 65.8267 49.7005 64.9967 56.2005C64.8227 57.6005 65.7937 58.9003 67.1617 59.0003C68.5307 59.2003 69.7827 58.1998 69.9567 56.8998C70.7557 50.5998 71.6107 44.1003 73.3397 38.0003C73.7147 36.7003 72.9427 35.2998 71.6147 34.8998C70.2877 34.4998 68.9047 35.3 68.5287 36.6Z" fill="black"/>
<path id="Vector_2" fill-rule="evenodd" clip-rule="evenodd" d="M43.0644 25.2008C32.5534 35.5008 23.3954 47.1008 12.6024 57.2008C11.5944 58.1008 11.5404 59.7008 12.4814 60.7008C13.4234 61.7008 15.0074 61.8004 16.0154 60.8004C26.8394 50.7004 36.0274 39.1004 46.5694 28.8004C47.5534 27.8004 47.5674 26.2008 46.5994 25.2008C45.6324 24.3008 44.0484 24.2008 43.0644 25.2008Z" fill="black"/>
<path id="Vector_3" fill-rule="evenodd" clip-rule="evenodd" d="M10.6358 5.90041C16.6518 5.60041 22.6678 5.301 28.6848 5.001C30.0628 5.001 31.1268 3.80041 31.0598 2.40041C30.9918 1.00041 29.8188 0.00099802 28.4398 0.00099808C22.4138 0.300999 16.3888 0.600412 10.3638 0.900413C8.98576 1.00041 7.92876 2.20061 8.00376 3.60061C8.07876 4.90061 9.25876 6.00041 10.6358 5.90041Z" fill="black"/>
</g>
</svg>
