<svg width="68" height="74" viewBox="0 0 68 74" fill="none" xmlns="http://www.w3.org/2000/svg">
<path fill-rule="evenodd" clip-rule="evenodd" d="M36.5995 4.90486C42.9995 6.70086 49.7001 7.60686 56.2001 8.43686C57.6001 8.61086 58.8999 7.63987 58.9999 6.27187C59.1999 4.90287 58.1993 3.65087 56.8993 3.47687C50.5993 2.67787 44.0999 1.82287 37.9999 0.0938721C36.6999 -0.281128 35.2993 0.490862 34.8993 1.81886C34.4993 3.14586 35.2995 4.52886 36.5995 4.90486Z" fill="#585F66"/>
<path fill-rule="evenodd" clip-rule="evenodd" d="M25.2003 30.3687C35.5003 40.8797 47.1003 50.0377 57.2003 60.8307C58.1003 61.8387 59.7003 61.8927 60.7003 60.9517C61.7003 60.0097 61.7999 58.4257 60.7999 57.4177C50.6999 46.5937 39.0999 37.4057 28.7999 26.8637C27.7999 25.8797 26.2003 25.8657 25.2003 26.8337C24.3003 27.8007 24.2003 29.3847 25.2003 30.3687Z" fill="#585F66"/>
<path fill-rule="evenodd" clip-rule="evenodd" d="M5.89992 62.7978C5.59992 56.7818 5.30051 50.7658 5.00051 44.7488C5.00051 43.3708 3.79992 42.3068 2.39992 42.3738C0.999925 42.4418 0.000510693 43.6148 0.000510693 44.9938C0.300511 51.0198 0.599925 57.0448 0.899925 63.0698C0.999925 64.4478 2.20012 65.5048 3.60012 65.4298C4.90012 65.3548 5.99992 64.1748 5.89992 62.7978Z" fill="#585F66"/>
</svg>
