<svg width="16" height="16" viewBox="0 0 16 16" fill="none" xmlns="http://www.w3.org/2000/svg">
<path d="M13.1938 9.95289C11.8204 11.3196 9.85376 11.7396 8.12709 11.1996L4.98709 14.3329C4.76042 14.5662 4.31376 14.7062 3.99376 14.6596L2.54042 14.4596C2.06042 14.3929 1.61376 13.9396 1.54042 13.4596L1.34042 12.0062C1.29376 11.6862 1.44709 11.2396 1.66709 11.0129L4.80042 7.87956C4.26709 6.14622 4.68042 4.17956 6.05376 2.81289C8.02042 0.846224 11.2138 0.846224 13.1871 2.81289C15.1604 4.77956 15.1604 7.98622 13.1938 9.95289Z" stroke="#828A91" stroke-width="1.2" stroke-miterlimit="10" stroke-linecap="round" stroke-linejoin="round"/>
<path d="M4.59375 11.6602L6.12708 13.1935" stroke="#828A91" stroke-width="1.2" stroke-miterlimit="10" stroke-linecap="round" stroke-linejoin="round"/>
<path d="M9.66699 7.33301C10.2193 7.33301 10.667 6.88529 10.667 6.33301C10.667 5.78072 10.2193 5.33301 9.66699 5.33301C9.11471 5.33301 8.66699 5.78072 8.66699 6.33301C8.66699 6.88529 9.11471 7.33301 9.66699 7.33301Z" stroke="#828A91" stroke-width="1.2" stroke-linecap="round" stroke-linejoin="round"/>
</svg>
