<svg width="172" height="48" viewBox="0 0 172 48" fill="none" xmlns="http://www.w3.org/2000/svg">
<path d="M53.8418 35.8319C55.7081 35.3677 56.4758 34.4632 56.4758 32.5047V19.8281H59.1319V32.6515C59.1319 35.9363 57.2656 37.5152 54.5007 38.0218L53.8418 35.8319Z" fill="#343434"/>
<path d="M61.1719 33.2194L62.4014 31.3033C63.675 32.2303 65.1016 32.799 67.1194 32.799C68.9416 32.799 70.302 32.0822 70.302 30.6091C70.302 29.2192 69.3593 28.5871 66.7252 28.0396C63.6088 27.3736 61.8087 26.2448 61.8087 23.7445C61.8087 21.0494 64.2015 19.4902 67.3841 19.4902C69.5122 19.4902 71.3785 20.0546 72.7389 21.0494L71.4433 22.8837C70.1711 22.0371 68.796 21.6618 67.1856 21.6618C65.4296 21.6618 64.3765 22.3363 64.3765 23.4961C64.3765 24.6334 65.1663 25.2006 67.9974 25.8116C71.2021 26.5284 72.8698 27.7278 72.8698 30.3819C72.8698 33.345 70.3461 35.0142 67.0106 35.0142C64.531 35.01 62.5337 34.2876 61.1719 33.2194Z" fill="#343434"/>
<path d="M74.3418 27.2607C74.3418 22.8386 77.6994 19.4902 82.3086 19.4902C87.181 19.4902 90.2974 22.8386 90.2974 27.2607C90.2974 31.6349 86.9398 35.01 82.3086 35.01C77.4582 35.01 74.3418 31.6405 74.3418 27.2607ZM87.5531 27.2607C87.5531 24.1649 85.425 21.8283 82.3086 21.8283C79.1922 21.8283 77.0847 24.1649 77.0847 27.2607C77.0847 30.3565 79.1922 32.672 82.3086 32.672C85.425 32.672 87.5531 30.3565 87.5531 27.2607Z" fill="#343434"/>
<path d="M102.959 19.8281H105.394V34.6311H102.849L95.145 23.5758V34.6311H92.6875V19.8281H95.3215L102.959 30.7776V19.8281Z" fill="#343434"/>
<path d="M112.215 33.2194L113.444 31.3033C114.718 32.2303 116.145 32.799 118.164 32.799C119.985 32.799 121.345 32.0822 121.345 30.6091C121.345 29.2192 120.402 28.5871 117.768 28.0396C114.656 27.3736 112.856 26.2448 112.856 23.7445C112.856 21.0494 115.249 19.4902 118.432 19.4902C120.56 19.4902 122.426 20.0546 123.786 21.0494L122.491 22.8837C121.218 22.0371 119.843 21.6618 118.226 21.6618C116.471 21.6618 115.417 22.3363 115.417 23.4961C115.417 24.6334 116.206 25.2006 119.039 25.8116C122.242 26.5284 123.91 27.7278 123.91 30.3819C123.91 33.345 121.386 35.0142 118.051 35.0142C115.578 35.01 113.581 34.2876 112.215 33.2194Z" fill="#343434"/>
<path d="M125.256 29.4097C125.256 26.0402 127.737 23.7656 131.05 23.7656C132.718 23.7656 133.948 24.1226 134.979 25.0073L133.596 26.7344C132.939 26.17 132.236 25.8878 131.243 25.8878C129.311 25.8878 127.884 27.2353 127.884 29.3406C127.884 31.5305 129.289 32.8371 131.221 32.8371C131.67 32.8518 132.117 32.7791 132.535 32.6234C132.954 32.4677 133.335 32.2322 133.657 31.9312L134.951 33.5948C133.921 34.4583 132.712 34.9635 130.98 34.9635C127.715 34.9691 125.256 32.926 125.256 29.4097Z" fill="#343434"/>
<path d="M135.615 29.3484C135.615 26.0847 138.183 23.748 141.563 23.748C145.053 23.748 147.532 26.0057 147.532 29.3484C147.532 32.6544 144.942 34.9924 141.563 34.9924C138.099 34.9924 135.615 32.7348 135.615 29.3484ZM144.92 29.3484C144.92 27.2855 143.538 25.9168 141.563 25.9168C139.61 25.9168 138.205 27.2855 138.205 29.3484C138.205 31.455 139.588 32.8237 141.563 32.8237C143.538 32.8237 144.92 31.4296 144.92 29.3484Z" fill="#343434"/>
<path d="M156.641 24.1016H159.278V34.6306H156.778V33.3466L156.558 33.5145C155.55 34.3611 154.561 34.9255 152.982 34.9255C150.874 34.9255 149.359 33.8517 149.359 31.2568V24.1016H151.993V30.7136C151.993 32.0202 152.52 32.6086 153.794 32.6086C154.758 32.6086 155.242 32.2304 155.988 31.6406L156.647 31.1355L156.641 24.1016Z" fill="#343434"/>
<path d="M169.609 33.7886C168.758 34.4104 167.716 34.7438 166.646 34.7368C164.518 34.7368 162.85 33.749 162.85 30.9453V26.1041H160.654V24.1019H162.981V21.1543H165.481V24.1019H168.97V26.1041H165.481V30.7154C165.481 32.1052 166.205 32.5059 167.149 32.5059C167.664 32.5212 168.166 32.3482 168.553 32.022L169.609 33.7886Z" fill="#343434"/>
<path d="M17.9177 45.0378C17.9353 44.939 17.9603 44.7937 17.9853 44.6483C18.05 44.297 17.8721 44.2405 17.5691 44.3351C17.1117 44.4762 16.6573 44.6328 16.194 44.7584C15.7866 44.8684 15.6337 44.7104 15.8116 44.3351C16.4697 42.89 17.0105 41.3984 17.4294 39.8734C17.4814 39.6994 17.575 39.5393 17.7026 39.4058C17.8302 39.2723 17.9884 39.1692 18.1647 39.1044C19.2928 38.6402 20.4252 38.1873 21.5474 37.7146C21.6607 37.6527 21.7922 37.6286 21.9213 37.6463C22.0505 37.6639 22.1698 37.7222 22.2606 37.812C23.952 39.223 25.7521 40.4929 27.817 41.3649C28.1493 41.506 28.1111 41.6979 27.9184 41.9025C27.5684 42.2778 27.2066 42.6433 26.8404 43.0031C26.6933 43.1442 26.5169 43.171 26.3889 42.9918C26.0948 42.5868 25.833 42.8197 25.5638 43.0059L21.2444 45.9874C20.6135 46.4234 20.5208 46.3895 20.362 45.6784C20.0943 44.4677 20.0958 44.4691 19.0192 45.1281C18.8372 45.2449 18.6481 45.3514 18.453 45.447C17.975 45.6713 17.8838 45.6064 17.9177 45.0378Z" fill="#C6C6C6"/>
<path d="M23.4262 14.7349C23.4262 14.7349 26.4735 12.0074 29.9237 14.5402C31.5327 15.7349 32.7344 17.3623 33.3755 19.2149C35.5668 25.3698 37.1375 35.4924 40.279 37.1348L38.2479 39.8623C38.2479 39.8623 31.9548 42.9779 27.2838 42.0043C22.6129 41.0307 18.1478 38.3032 17.5375 39.6323C17.336 41.4201 13.0724 44.1476 10.6355 39.2768L8.80889 38.1084H7.38672V34.7982L9.2148 30.1235L15.5079 21.1649L20.1789 15.1258L23.4262 14.7349Z" fill="white"/>
<path d="M6.33648 36.5072L3.73334 36.7668L3.63039 36.6257L6.54973 33.489L3.13477 33.6724C3.30831 33.1828 3.68775 32.9147 3.97307 32.5916C4.60988 31.8692 5.27317 31.1707 5.93645 30.4751C6.23059 30.1717 6.12323 30.0518 5.74526 30.0221C5.33052 29.9854 4.91873 29.9191 4.50399 29.898C3.98042 29.8712 3.88776 29.7075 4.22014 29.3025C5.2261 28.082 6.21883 26.853 7.21302 25.6254C7.8013 24.8945 8.37635 24.1509 8.97786 23.4299C9.22494 23.135 9.1867 22.9487 8.90433 22.6947C7.81013 21.707 7.79836 21.6788 8.92051 20.6854C9.37789 20.2819 9.46908 20.0434 8.91168 19.6469C8.2631 19.1855 7.70718 18.607 7.08066 18.1146C6.69092 17.8055 6.73063 17.5939 7.13213 17.3625C7.26302 17.2877 7.36891 17.1734 7.50128 17.1C7.9219 16.87 7.98661 16.6062 7.63511 16.2534C7.28361 15.9007 7.33215 15.6156 7.78218 15.4068C8.41311 15.1246 8.49988 14.7013 8.33958 14.0734C8.08809 13.0659 7.96455 12.0161 7.74247 10.9889C7.66158 10.6122 7.74247 10.4132 8.10132 10.2425C8.81314 9.90667 9.53526 9.60048 10.3206 9.48901C10.7127 9.43285 11.0696 9.24054 11.3236 8.94859C13.2659 6.92236 15.2156 4.90273 17.1726 2.88968C17.3213 2.73545 17.4794 2.58986 17.6462 2.45367C18.8948 1.44056 20.1567 1.58448 21.0479 2.89391C21.9847 4.27106 22.6657 5.77803 23.3157 7.29628C24.1436 9.24364 24.7449 11.2728 25.1085 13.3467C25.2173 13.9633 25.082 14.3006 24.4702 14.6463C21.5641 16.2901 19.3845 18.5393 18.4404 21.7338C18.4918 22.2319 18.1212 22.3631 17.7344 22.4845C15.7225 23.1237 13.7253 23.8066 11.6928 24.3894C10.7927 24.6476 9.91176 24.965 9.01169 25.2261C8.92749 25.2498 8.84615 25.2819 8.76902 25.322C8.4587 25.4885 8.22633 25.7214 8.3484 26.0812C8.46459 26.465 8.82344 26.3859 9.11758 26.3154C10.6216 25.9579 12.1242 25.5887 13.6253 25.2077C14.743 24.9255 15.8725 24.673 16.9932 24.395C17.6212 24.2384 17.7535 24.395 17.6535 25.0187C17.4712 25.6437 17.3153 26.2787 17.1005 26.8925C16.5961 28.3346 15.6387 29.3928 14.1724 30.0235C12.8576 30.588 11.5589 31.1933 10.2559 31.7817C10.1088 31.8508 9.91029 31.8677 9.81469 32.0822C10.2044 32.2882 10.6545 32.2487 11.0648 32.3517C11.7249 32.504 12.3574 32.7504 12.9414 33.0826C13.3238 33.3056 13.3826 33.5469 13.1311 33.901C12.5166 34.7465 11.7326 35.466 10.8251 36.0175C9.77792 36.2278 8.69108 36.1897 7.66453 36.5354C7.23361 36.6723 6.78505 36.2631 6.33648 36.5072Z" fill="#343434"/>
<path d="M17.6483 25.0186C17.6483 24.4627 17.2777 24.6377 16.9688 24.7139C14.2966 25.3728 11.6272 26.043 8.94909 26.6808C8.64025 26.7542 8.17403 27.1606 7.96519 26.551C7.71665 25.8272 7.95343 25.219 8.53289 25.037C11.3419 24.1509 14.1583 23.2845 16.9659 22.3942C17.4762 22.2333 18.0498 22.1783 18.4263 21.7338C18.4724 21.7795 18.5303 21.8128 18.594 21.8304C18.6577 21.8479 18.7252 21.8492 18.7896 21.834C20.5544 21.3796 22.3192 21.6929 24.0723 21.882C25.6371 22.0485 27.2064 22.1811 28.755 22.4718C30.111 22.7271 31.3538 23.2041 32.4156 24.0733C32.7053 24.3329 33.0529 24.5259 33.4319 24.6377C33.4783 24.6824 33.5391 24.7109 33.6044 24.7185C33.6697 24.7262 33.7358 24.7126 33.7922 24.68C34.7452 24.1565 35.7806 23.7911 36.7336 23.269C37.0748 23.1053 37.2189 23.5272 37.5116 23.5103C37.7469 23.7558 38.0616 23.7276 38.3661 23.736C40.4956 23.7882 42.5796 24.1593 44.6607 24.5502C45.5637 24.7181 45.7799 25.0666 45.5534 25.9612C45.1049 27.6684 44.4889 29.3309 43.7135 30.9266C43.4125 31.6008 43.0687 32.2568 42.684 32.8907C42.5323 33.147 42.3238 33.3683 42.0732 33.539C41.8227 33.7096 41.5362 33.8255 41.2339 33.8784C40.278 34.0548 39.322 34.0195 38.3587 33.9574C38.1712 33.9515 37.9894 33.894 37.835 33.7916C37.6806 33.6893 37.5602 33.5465 37.4881 33.3803C37.4881 32.9641 37.1792 32.648 37.0763 32.2614C36.8542 31.4261 36.9145 30.6035 37.1042 29.771C37.3616 28.6421 37.6013 27.5133 37.3248 26.3464C37.1704 25.6959 36.9807 25.6127 36.3939 26.0106C36.1247 26.1926 35.8556 26.3704 35.5717 26.527C35.1599 26.7528 34.8084 27.0181 34.757 27.5147C34.7537 27.5893 34.7234 27.6604 34.6713 27.7157C34.6192 27.7711 34.5486 27.8073 34.4716 27.8181C34.3952 27.5571 34.3349 27.2904 34.2407 27.035C34.126 26.726 33.9348 26.4706 33.5598 26.4311C33.3971 26.4014 33.2288 26.4188 33.0764 26.4811C32.9239 26.5434 32.7943 26.6478 32.7039 26.781C32.4093 27.2231 32.1586 27.6908 31.9553 28.1779C31.2317 29.8062 30.236 31.2511 28.7786 32.363C27.424 33.3973 25.8136 33.4198 24.2032 33.3507C22.8 33.2978 21.4093 33.077 20.0632 32.6932C18.8793 32.3461 18.238 31.5982 18.1336 30.413C17.9866 28.7959 18.0601 27.1775 18.0586 25.5591C18.0586 25.418 18.0777 25.2627 18.0586 25.1174C18.0395 24.9721 18.1454 24.7308 17.8998 24.7068C17.7351 24.6715 17.7748 24.9326 17.6483 25.0186Z" fill="#FD8032"/>
<path d="M37.5021 23.4999C37.1757 23.9514 37.0448 23.5225 36.8521 23.3588C36.5197 23.3588 36.4109 23.1175 36.3168 22.8875C35.5211 21.0306 34.3637 19.3981 33.0003 17.8897C32.6621 17.5158 32.4503 17.0529 32.1076 16.6804C30.9346 15.5749 29.5764 14.6663 28.0897 13.9924C27.2278 13.5861 27.0955 12.683 27.8264 12.1116C28.3529 11.701 28.8868 11.2974 29.4001 10.8713C29.7427 10.5891 29.8883 10.6512 29.878 11.0759C29.8663 11.5725 30.0678 11.5443 30.4134 11.303C31.5301 10.5242 32.6528 9.75375 33.7813 8.9918C33.946 8.87892 34.1842 8.57837 34.3004 9.0172C34.4299 9.50964 34.6578 9.23449 34.8519 9.10609C36.0447 8.32157 37.2286 7.52575 38.4213 6.74123C38.7241 6.5323 39.0415 6.34372 39.3714 6.17682C40.6039 5.58278 41.7245 6.26712 41.6628 7.58784C41.5642 9.51811 41.4466 11.4498 41.2789 13.373C41.226 13.9924 41.3921 14.4242 41.9216 14.76C42.1025 14.8743 42.2363 15.0535 42.4099 15.1833C42.7849 15.4571 42.7246 15.6998 42.4363 16.0158C41.1495 17.4269 39.8876 18.8478 38.6125 20.256C38.289 20.6087 38.1434 20.8486 38.7699 21.0306C39.0376 21.1082 39.4758 21.1364 39.4935 21.4539C39.5082 21.7121 39.1008 21.8038 38.8758 21.9605C38.525 22.2124 38.1597 22.4451 37.7816 22.6575C37.3963 22.8762 37.3227 23.1401 37.5021 23.4999Z" fill="#343434"/>
<path d="M34.729 39.8036C34.4952 39.3549 34.229 38.9175 34.0334 38.4532C33.6672 37.5798 33.8863 36.9872 34.7482 36.5611C35.3677 36.2409 36.048 36.0436 36.7486 35.9808C37.4492 35.918 38.1558 35.9911 38.8264 36.1956C40.4059 36.6739 40.781 37.6969 39.9794 39.0811C39.8191 39.3549 39.6309 39.6145 39.4559 39.8798C38.5573 41.5928 35.9909 41.2767 34.9967 40.423C34.7908 40.2452 34.8393 40.0011 34.729 39.8036Z" fill="#2E2E2E"/>
<path d="M6.33649 36.5076C7.82337 36.2748 9.24554 35.5044 10.8207 36.0109C10.0853 36.5951 9.17936 36.9337 8.38371 37.4742C8.62637 37.7112 8.88081 37.6251 9.10729 37.6378C10.1133 37.6943 11.1222 37.714 12.1252 37.7959C12.7635 37.8495 12.7532 38.0061 12.5017 38.5705C11.9722 39.7544 10.9604 40.1396 9.75587 40.2638C9.28378 40.3145 8.66461 40.735 8.40136 40.4429C8.10722 40.1142 8.70432 39.6598 8.84257 39.2351C8.89257 39.0827 9.08817 38.9303 8.9514 38.7794C8.81462 38.6284 8.61461 38.7469 8.45283 38.7794C7.36745 39.0051 6.28502 39.2436 5.09375 39.3438L7.00566 36.6261C6.76447 36.4385 6.5321 36.5979 6.33649 36.5076Z" fill="#818181"/>
<path d="M34.4741 27.8053C34.2506 26.9897 34.6712 26.558 35.4007 26.2221C35.9051 25.9893 36.3463 25.6239 36.8008 25.2993C37.2052 25.0101 37.4067 25.1046 37.5229 25.5632C37.8355 26.7029 37.8602 27.8977 37.595 29.0484C37.2817 30.3099 37.1037 31.56 37.5626 32.8229C37.5988 32.9113 37.6112 33.007 37.5986 33.1013C37.586 33.1955 37.5489 33.2851 37.4905 33.3619C36.1095 31.6983 34.9742 29.9134 34.4741 27.8053Z" fill="#CF5713"/>
<path d="M32.1133 16.6875C34.2576 18.4932 35.8899 20.7909 36.8578 23.3658C36.8269 23.5069 36.8283 23.7003 36.6651 23.744C35.8165 23.9726 35.0988 24.4932 34.2576 24.7317C34.121 24.7753 33.976 24.7894 33.8331 24.7728C33.6901 24.7562 33.5528 24.7094 33.431 24.6358C33.8722 24.5779 33.8178 24.2548 33.8266 23.9655C33.8914 21.9054 33.4222 19.9399 32.6736 18.0251C32.5015 17.5736 32.3001 17.132 32.1133 16.6875Z" fill="#C5C5C5"/>
<path d="M34.7295 39.8047C36.4105 41.1663 37.4988 41.1833 39.4578 39.8809C39.3004 40.8686 38.5415 41.3469 37.6812 41.6376C35.4825 42.384 33.2147 42.2613 30.9336 42.0186C32.4822 41.7067 33.9838 41.3526 34.7295 39.8047Z" fill="#C6C6C6"/>
<path d="M19.1392 12.6575C19.1911 13.0721 19.1297 13.4925 18.9611 13.8774C18.7925 14.2623 18.5224 14.5985 18.1774 14.853C17.8185 15.1353 17.7744 15.536 17.7817 15.9452C17.7817 16.5096 17.5273 16.7622 16.9331 16.7001C16.2056 16.6185 15.4733 16.8107 14.8903 17.2363C14.583 17.4521 14.3021 17.479 14.0462 17.1417C13.4755 16.3939 12.9152 15.6418 12.524 14.7881C12.3034 14.3084 12.3328 13.878 12.8637 13.5958C15.3639 12.2681 16.792 10.1261 17.7994 7.66109C17.8391 7.56232 17.8847 7.46637 17.9318 7.37889C17.9788 7.2914 18.0215 7.10797 18.17 7.10938C18.3818 7.10938 18.3656 7.31398 18.3891 7.4452C18.6789 9.09468 19.0613 10.7385 19.1392 12.6575Z" fill="#A2A2A2"/>
<path d="M38.5331 10.7131C38.2934 11.3608 38.0581 12.0113 37.8169 12.6589C37.5979 13.2328 37.5001 13.8427 37.5292 14.4531C37.5582 15.0636 37.7135 15.6624 37.986 16.2147C38.3831 17.0698 38.3596 17.2024 37.6522 17.8614C37.3404 18.1534 36.9962 18.4173 36.68 18.708C36.3094 19.0452 36.0917 18.9577 35.93 18.5161C35.8682 18.3425 35.7829 18.0928 35.6358 18.042C34.9152 17.7682 34.9799 17.2673 35.1225 16.7015C35.1425 16.5342 35.1244 16.3648 35.0696 16.2048C34.9223 15.6263 35.0107 15.0156 35.3167 14.4975C36.1579 13.0681 37.2477 11.825 38.3846 10.6172L38.5331 10.7131Z" fill="#A3A3A3"/>
</svg>
