<svg width="173" height="48" viewBox="0 0 173 48" fill="none" xmlns="http://www.w3.org/2000/svg">
<path d="M54.3418 35.8319C56.2081 35.3677 56.9758 34.4632 56.9758 32.5047V19.8281H59.6319V32.6515C59.6319 35.9363 57.7656 37.5152 55.0007 38.0218L54.3418 35.8319Z" fill="white"/>
<path d="M61.6719 33.2194L62.9014 31.3033C64.175 32.2303 65.6016 32.799 67.6194 32.799C69.4416 32.799 70.802 32.0822 70.802 30.6091C70.802 29.2192 69.8593 28.5871 67.2252 28.0396C64.1088 27.3736 62.3087 26.2448 62.3087 23.7445C62.3087 21.0494 64.7015 19.4902 67.8841 19.4902C70.0122 19.4902 71.8785 20.0546 73.2389 21.0494L71.9433 22.8837C70.6711 22.0371 69.296 21.6618 67.6856 21.6618C65.9296 21.6618 64.8765 22.3363 64.8765 23.4961C64.8765 24.6334 65.6663 25.2006 68.4974 25.8116C71.7021 26.5284 73.3698 27.7278 73.3698 30.3819C73.3698 33.345 70.8461 35.0142 67.5106 35.0142C65.031 35.01 63.0337 34.2876 61.6719 33.2194Z" fill="white"/>
<path d="M74.8418 27.2607C74.8418 22.8386 78.1994 19.4902 82.8086 19.4902C87.681 19.4902 90.7974 22.8386 90.7974 27.2607C90.7974 31.6349 87.4398 35.01 82.8086 35.01C77.9582 35.01 74.8418 31.6405 74.8418 27.2607ZM88.0531 27.2607C88.0531 24.1649 85.925 21.8283 82.8086 21.8283C79.6922 21.8283 77.5847 24.1649 77.5847 27.2607C77.5847 30.3565 79.6922 32.672 82.8086 32.672C85.925 32.672 88.0531 30.3565 88.0531 27.2607Z" fill="white"/>
<path d="M103.459 19.8281H105.894V34.6311H103.349L95.645 23.5758V34.6311H93.1875V19.8281H95.8215L103.459 30.7776V19.8281Z" fill="white"/>
<path d="M112.715 33.2194L113.944 31.3033C115.218 32.2303 116.645 32.799 118.664 32.799C120.485 32.799 121.845 32.0822 121.845 30.6091C121.845 29.2192 120.902 28.5871 118.268 28.0396C115.156 27.3736 113.356 26.2448 113.356 23.7445C113.356 21.0494 115.749 19.4902 118.932 19.4902C121.06 19.4902 122.926 20.0546 124.286 21.0494L122.991 22.8837C121.718 22.0371 120.343 21.6618 118.726 21.6618C116.971 21.6618 115.917 22.3363 115.917 23.4961C115.917 24.6334 116.706 25.2006 119.539 25.8116C122.742 26.5284 124.41 27.7278 124.41 30.3819C124.41 33.345 121.886 35.0142 118.551 35.0142C116.078 35.01 114.081 34.2876 112.715 33.2194Z" fill="white"/>
<path d="M125.756 29.4097C125.756 26.0402 128.237 23.7656 131.55 23.7656C133.218 23.7656 134.448 24.1226 135.479 25.0073L134.096 26.7344C133.439 26.17 132.736 25.8878 131.743 25.8878C129.811 25.8878 128.384 27.2353 128.384 29.3406C128.384 31.5305 129.789 32.8371 131.721 32.8371C132.17 32.8518 132.617 32.7791 133.035 32.6234C133.454 32.4677 133.835 32.2322 134.157 31.9312L135.451 33.5948C134.421 34.4583 133.212 34.9635 131.48 34.9635C128.215 34.9691 125.756 32.926 125.756 29.4097Z" fill="white"/>
<path d="M136.115 29.3503C136.115 26.0866 138.683 23.75 142.063 23.75C145.553 23.75 148.032 26.0076 148.032 29.3503C148.032 32.6563 145.442 34.9944 142.063 34.9944C138.599 34.9944 136.115 32.7368 136.115 29.3503ZM145.42 29.3503C145.42 27.2874 144.038 25.9187 142.063 25.9187C140.11 25.9187 138.705 27.2874 138.705 29.3503C138.705 31.457 140.088 32.8257 142.063 32.8257C144.038 32.8257 145.42 31.4316 145.42 29.3503Z" fill="white"/>
<path d="M157.141 24.1016H159.778V34.6306H157.278V33.3466L157.058 33.5145C156.05 34.3611 155.061 34.9255 153.482 34.9255C151.374 34.9255 149.859 33.8517 149.859 31.2568V24.1016H152.493V30.7136C152.493 32.0202 153.02 32.6086 154.294 32.6086C155.258 32.6086 155.742 32.2304 156.488 31.6406L157.147 31.1355L157.141 24.1016Z" fill="white"/>
<path d="M170.109 33.7886C169.258 34.4104 168.216 34.7438 167.146 34.7368C165.018 34.7368 163.35 33.749 163.35 30.9453V26.1041H161.154V24.1019H163.481V21.1543H165.981V24.1019H169.47V26.1041H165.981V30.7154C165.981 32.1052 166.705 32.5059 167.649 32.5059C168.164 32.5212 168.666 32.3482 169.053 32.022L170.109 33.7886Z" fill="white"/>
<path d="M18.4177 45.0378C18.4353 44.939 18.4603 44.7937 18.4853 44.6483C18.55 44.297 18.3721 44.2405 18.0691 44.3351C17.6117 44.4762 17.1573 44.6328 16.694 44.7584C16.2866 44.8684 16.1337 44.7104 16.3116 44.3351C16.9697 42.89 17.5105 41.3984 17.9294 39.8734C17.9814 39.6994 18.075 39.5393 18.2026 39.4058C18.3302 39.2723 18.4884 39.1692 18.6647 39.1044C19.7928 38.6402 20.9252 38.1873 22.0474 37.7146C22.1607 37.6527 22.2922 37.6286 22.4213 37.6463C22.5505 37.6639 22.6698 37.7222 22.7606 37.812C24.452 39.223 26.2521 40.4929 28.317 41.3649C28.6493 41.506 28.6111 41.6979 28.4184 41.9025C28.0684 42.2778 27.7066 42.6433 27.3404 43.0031C27.1933 43.1442 27.0169 43.171 26.8889 42.9918C26.5948 42.5868 26.333 42.8197 26.0638 43.0059L21.7444 45.9874C21.1135 46.4234 21.0208 46.3895 20.862 45.6784C20.5943 44.4677 20.5958 44.4691 19.5192 45.1281C19.3372 45.2449 19.1481 45.3514 18.953 45.447C18.475 45.6713 18.3838 45.6064 18.4177 45.0378Z" fill="#C6C6C6"/>
<path d="M23.9262 14.7349C23.9262 14.7349 26.9735 12.0074 30.4237 14.5402C32.0327 15.7349 33.2344 17.3623 33.8755 19.2149C36.0668 25.3698 37.6375 35.4924 40.779 37.1348L38.7479 39.8623C38.7479 39.8623 32.4548 42.9779 27.7838 42.0043C23.1129 41.0307 18.6478 38.3032 18.0375 39.6323C17.836 41.4201 13.5724 44.1476 11.1355 39.2768L9.30889 38.1084H7.88672V34.7982L9.7148 30.1235L16.0079 21.1649L20.6789 15.1258L23.9262 14.7349Z" fill="white"/>
<path d="M6.83648 36.5072L4.23334 36.7668L4.13039 36.6257L7.04973 33.489L3.63477 33.6724C3.80831 33.1828 4.18775 32.9147 4.47307 32.5916C5.10988 31.8692 5.77317 31.1707 6.43645 30.4751C6.73059 30.1717 6.62323 30.0518 6.24526 30.0221C5.83052 29.9854 5.41873 29.9191 5.00399 29.898C4.48042 29.8712 4.38776 29.7075 4.72014 29.3025C5.7261 28.082 6.71883 26.853 7.71302 25.6254C8.3013 24.8945 8.87635 24.1509 9.47786 23.4299C9.72494 23.135 9.6867 22.9487 9.40433 22.6947C8.31013 21.707 8.29836 21.6788 9.42051 20.6854C9.87789 20.2819 9.96908 20.0434 9.41168 19.6469C8.7631 19.1855 8.20718 18.607 7.58066 18.1146C7.19092 17.8055 7.23063 17.5939 7.63213 17.3625C7.76302 17.2877 7.86891 17.1734 8.00128 17.1C8.4219 16.87 8.48661 16.6062 8.13511 16.2534C7.78361 15.9007 7.83215 15.6156 8.28218 15.4068C8.91311 15.1246 8.99988 14.7013 8.83958 14.0734C8.58809 13.0659 8.46455 12.0161 8.24247 10.9889C8.16158 10.6122 8.24247 10.4132 8.60132 10.2425C9.31314 9.90667 10.0353 9.60048 10.8206 9.48901C11.2127 9.43285 11.5696 9.24054 11.8236 8.94859C13.7659 6.92236 15.7156 4.90273 17.6726 2.88968C17.8213 2.73545 17.9794 2.58986 18.1462 2.45367C19.3948 1.44056 20.6567 1.58448 21.5479 2.89391C22.4847 4.27106 23.1657 5.77803 23.8157 7.29628C24.6436 9.24364 25.2449 11.2728 25.6085 13.3467C25.7173 13.9633 25.582 14.3006 24.9702 14.6463C22.0641 16.2901 19.8845 18.5393 18.9404 21.7338C18.9918 22.2319 18.6212 22.3631 18.2344 22.4845C16.2225 23.1237 14.2253 23.8066 12.1928 24.3894C11.2927 24.6476 10.4118 24.965 9.51169 25.2261C9.42749 25.2498 9.34615 25.2819 9.26902 25.322C8.9587 25.4885 8.72633 25.7214 8.8484 26.0812C8.96459 26.465 9.32344 26.3859 9.61758 26.3154C11.1216 25.9579 12.6242 25.5887 14.1253 25.2077C15.243 24.9255 16.3725 24.673 17.4932 24.395C18.1212 24.2384 18.2535 24.395 18.1535 25.0187C17.9712 25.6437 17.8153 26.2787 17.6005 26.8925C17.0961 28.3346 16.1387 29.3928 14.6724 30.0235C13.3576 30.588 12.0589 31.1933 10.7559 31.7817C10.6088 31.8508 10.4103 31.8677 10.3147 32.0822C10.7044 32.2882 11.1545 32.2487 11.5648 32.3517C12.2249 32.504 12.8574 32.7504 13.4414 33.0826C13.8238 33.3056 13.8826 33.5469 13.6311 33.901C13.0166 34.7465 12.2326 35.466 11.3251 36.0175C10.2779 36.2278 9.19108 36.1897 8.16453 36.5354C7.73361 36.6723 7.28505 36.2631 6.83648 36.5072Z" fill="#343434"/>
<path d="M18.1483 25.0186C18.1483 24.4627 17.7777 24.6377 17.4688 24.7139C14.7966 25.3728 12.1272 26.043 9.44909 26.6808C9.14025 26.7542 8.67403 27.1606 8.46519 26.551C8.21665 25.8272 8.45343 25.219 9.03289 25.037C11.8419 24.1509 14.6583 23.2845 17.4659 22.3942C17.9762 22.2333 18.5498 22.1783 18.9263 21.7338C18.9724 21.7795 19.0303 21.8128 19.094 21.8304C19.1577 21.8479 19.2252 21.8492 19.2896 21.834C21.0544 21.3796 22.8192 21.6929 24.5723 21.882C26.1371 22.0485 27.7064 22.1811 29.255 22.4718C30.611 22.7271 31.8538 23.2041 32.9156 24.0733C33.2053 24.3329 33.5529 24.5259 33.9319 24.6377C33.9783 24.6824 34.0391 24.7109 34.1044 24.7185C34.1697 24.7262 34.2358 24.7126 34.2922 24.68C35.2452 24.1565 36.2806 23.7911 37.2336 23.269C37.5748 23.1053 37.7189 23.5272 38.0116 23.5103C38.2469 23.7558 38.5616 23.7276 38.8661 23.736C40.9956 23.7882 43.0796 24.1593 45.1607 24.5502C46.0637 24.7181 46.2799 25.0666 46.0534 25.9612C45.6049 27.6684 44.9889 29.3309 44.2135 30.9266C43.9125 31.6008 43.5687 32.2568 43.184 32.8907C43.0323 33.147 42.8238 33.3683 42.5732 33.539C42.3227 33.7096 42.0362 33.8255 41.7339 33.8784C40.778 34.0548 39.822 34.0195 38.8587 33.9574C38.6712 33.9515 38.4894 33.894 38.335 33.7916C38.1806 33.6893 38.0602 33.5465 37.9881 33.3803C37.9881 32.9641 37.6792 32.648 37.5763 32.2614C37.3542 31.4261 37.4145 30.6035 37.6042 29.771C37.8616 28.6421 38.1013 27.5133 37.8248 26.3464C37.6704 25.6959 37.4807 25.6127 36.8939 26.0106C36.6247 26.1926 36.3556 26.3704 36.0717 26.527C35.6599 26.7528 35.3084 27.0181 35.257 27.5147C35.2537 27.5893 35.2234 27.6604 35.1713 27.7157C35.1192 27.7711 35.0486 27.8073 34.9716 27.8181C34.8952 27.5571 34.8349 27.2904 34.7407 27.035C34.626 26.726 34.4348 26.4706 34.0598 26.4311C33.8971 26.4014 33.7288 26.4188 33.5764 26.4811C33.4239 26.5434 33.2943 26.6478 33.2039 26.781C32.9093 27.2231 32.6586 27.6908 32.4553 28.1779C31.7317 29.8062 30.736 31.2511 29.2786 32.363C27.924 33.3973 26.3136 33.4198 24.7032 33.3507C23.3 33.2978 21.9093 33.077 20.5632 32.6932C19.3793 32.3461 18.738 31.5982 18.6336 30.413C18.4866 28.7959 18.5601 27.1775 18.5586 25.5591C18.5586 25.418 18.5777 25.2627 18.5586 25.1174C18.5395 24.9721 18.6454 24.7308 18.3998 24.7068C18.2351 24.6715 18.2748 24.9326 18.1483 25.0186Z" fill="#FD8032"/>
<path d="M38.0021 23.4999C37.6757 23.9514 37.5448 23.5225 37.3521 23.3588C37.0197 23.3588 36.9109 23.1175 36.8168 22.8875C36.0211 21.0306 34.8637 19.3981 33.5003 17.8897C33.1621 17.5158 32.9503 17.0529 32.6076 16.6804C31.4346 15.5749 30.0764 14.6663 28.5897 13.9924C27.7278 13.5861 27.5955 12.683 28.3264 12.1116C28.8529 11.701 29.3868 11.2974 29.9001 10.8713C30.2427 10.5891 30.3883 10.6512 30.378 11.0759C30.3663 11.5725 30.5678 11.5443 30.9134 11.303C32.0301 10.5242 33.1528 9.75375 34.2813 8.9918C34.446 8.87892 34.6842 8.57837 34.8004 9.0172C34.9299 9.50964 35.1578 9.23449 35.3519 9.10609C36.5447 8.32157 37.7286 7.52575 38.9213 6.74123C39.2241 6.5323 39.5415 6.34372 39.8714 6.17682C41.1039 5.58278 42.2245 6.26712 42.1628 7.58784C42.0642 9.51811 41.9466 11.4498 41.7789 13.373C41.726 13.9924 41.8921 14.4242 42.4216 14.76C42.6025 14.8743 42.7363 15.0535 42.9099 15.1833C43.2849 15.4571 43.2246 15.6998 42.9363 16.0158C41.6495 17.4269 40.3876 18.8478 39.1125 20.256C38.789 20.6087 38.6434 20.8486 39.2699 21.0306C39.5376 21.1082 39.9758 21.1364 39.9935 21.4539C40.0082 21.7121 39.6008 21.8038 39.3758 21.9605C39.025 22.2124 38.6597 22.4451 38.2816 22.6575C37.8963 22.8762 37.8227 23.1401 38.0021 23.4999Z" fill="#343434"/>
<path d="M35.229 39.8036C34.9952 39.3549 34.729 38.9175 34.5334 38.4532C34.1672 37.5798 34.3863 36.9872 35.2482 36.5611C35.8677 36.2409 36.548 36.0436 37.2486 35.9808C37.9492 35.918 38.6558 35.9911 39.3264 36.1956C40.9059 36.6739 41.281 37.6969 40.4794 39.0811C40.3191 39.3549 40.1309 39.6145 39.9559 39.8798C39.0573 41.5928 36.4909 41.2767 35.4967 40.423C35.2908 40.2452 35.3393 40.0011 35.229 39.8036Z" fill="#2E2E2E"/>
<path d="M6.83649 36.5076C8.32337 36.2748 9.74554 35.5044 11.3207 36.0109C10.5853 36.5951 9.67936 36.9337 8.88371 37.4742C9.12637 37.7112 9.38081 37.6251 9.60729 37.6378C10.6133 37.6943 11.6222 37.714 12.6252 37.7959C13.2635 37.8495 13.2532 38.0061 13.0017 38.5705C12.4722 39.7544 11.4604 40.1396 10.2559 40.2638C9.78378 40.3145 9.16461 40.735 8.90136 40.4429C8.60722 40.1142 9.20432 39.6598 9.34257 39.2351C9.39257 39.0827 9.58817 38.9303 9.4514 38.7794C9.31462 38.6284 9.11461 38.7469 8.95283 38.7794C7.86745 39.0051 6.78502 39.2436 5.59375 39.3438L7.50566 36.6261C7.26447 36.4385 7.0321 36.5979 6.83649 36.5076Z" fill="#818181"/>
<path d="M34.9741 27.8053C34.7506 26.9897 35.1712 26.558 35.9007 26.2221C36.4051 25.9893 36.8463 25.6239 37.3008 25.2993C37.7052 25.0101 37.9067 25.1046 38.0229 25.5632C38.3355 26.7029 38.3602 27.8977 38.095 29.0484C37.7817 30.3099 37.6037 31.56 38.0626 32.8229C38.0988 32.9113 38.1112 33.007 38.0986 33.1013C38.086 33.1955 38.0489 33.2851 37.9905 33.3619C36.6095 31.6983 35.4742 29.9134 34.9741 27.8053Z" fill="#CF5713"/>
<path d="M32.6133 16.6875C34.7576 18.4932 36.3899 20.7909 37.3578 23.3658C37.3269 23.5069 37.3283 23.7003 37.1651 23.744C36.3165 23.9726 35.5988 24.4932 34.7576 24.7317C34.621 24.7753 34.476 24.7894 34.3331 24.7728C34.1901 24.7562 34.0528 24.7094 33.931 24.6358C34.3722 24.5779 34.3178 24.2548 34.3266 23.9655C34.3914 21.9054 33.9222 19.9399 33.1736 18.0251C33.0015 17.5736 32.8001 17.132 32.6133 16.6875Z" fill="#C5C5C5"/>
<path d="M35.2295 39.8047C36.9105 41.1663 37.9988 41.1833 39.9578 39.8809C39.8004 40.8686 39.0415 41.3469 38.1812 41.6376C35.9825 42.384 33.7147 42.2613 31.4336 42.0186C32.9822 41.7067 34.4838 41.3526 35.2295 39.8047Z" fill="#C6C6C6"/>
<path d="M19.6392 12.6575C19.6911 13.0721 19.6297 13.4925 19.4611 13.8774C19.2925 14.2623 19.0224 14.5985 18.6774 14.853C18.3185 15.1353 18.2744 15.536 18.2817 15.9452C18.2817 16.5096 18.0273 16.7622 17.4331 16.7001C16.7056 16.6185 15.9733 16.8107 15.3903 17.2363C15.083 17.4521 14.8021 17.479 14.5462 17.1417C13.9755 16.3939 13.4152 15.6418 13.024 14.7881C12.8034 14.3084 12.8328 13.878 13.3637 13.5958C15.8639 12.2681 17.292 10.1261 18.2994 7.66109C18.3391 7.56232 18.3847 7.46637 18.4318 7.37889C18.4788 7.2914 18.5215 7.10797 18.67 7.10938C18.8818 7.10938 18.8656 7.31398 18.8891 7.4452C19.1789 9.09468 19.5613 10.7385 19.6392 12.6575Z" fill="#A2A2A2"/>
<path d="M39.0331 10.7131C38.7934 11.3608 38.5581 12.0113 38.3169 12.6589C38.0979 13.2328 38.0001 13.8427 38.0292 14.4531C38.0582 15.0636 38.2135 15.6624 38.486 16.2147C38.8831 17.0698 38.8596 17.2024 38.1522 17.8614C37.8404 18.1534 37.4962 18.4173 37.18 18.708C36.8094 19.0452 36.5917 18.9577 36.43 18.5161C36.3682 18.3425 36.2829 18.0928 36.1358 18.042C35.4152 17.7682 35.4799 17.2673 35.6225 16.7015C35.6425 16.5342 35.6244 16.3648 35.5696 16.2048C35.4223 15.6263 35.5107 15.0156 35.8167 14.4975C36.6579 13.0681 37.7477 11.825 38.8846 10.6172L39.0331 10.7131Z" fill="#A3A3A3"/>
</svg>
