<svg width="14" height="14" viewBox="0 0 14 14" fill="none" xmlns="http://www.w3.org/2000/svg">
<path d="M7 8.75C7.9665 8.75 8.75 7.9665 8.75 7C8.75 6.0335 7.9665 5.25 7 5.25C6.0335 5.25 5.25 6.0335 5.25 7C5.25 7.9665 6.0335 8.75 7 8.75Z" stroke="#191B1E" stroke-miterlimit="10" stroke-linecap="round" stroke-linejoin="round"/>
<path d="M1.16699 7.5135V6.48683C1.16699 5.88017 1.66283 5.3785 2.27533 5.3785C3.33116 5.3785 3.76283 4.63183 3.23199 3.716C2.92866 3.191 3.10949 2.5085 3.64033 2.20517L4.64949 1.62767C5.11033 1.3535 5.70533 1.51683 5.97949 1.97767L6.04366 2.0885C6.56866 3.00433 7.43199 3.00433 7.96283 2.0885L8.02699 1.97767C8.30116 1.51683 8.89616 1.3535 9.35699 1.62767L10.3662 2.20517C10.897 2.5085 11.0778 3.191 10.7745 3.716C10.2437 4.63183 10.6753 5.3785 11.7312 5.3785C12.3378 5.3785 12.8395 5.87433 12.8395 6.48683V7.5135C12.8395 8.12017 12.3437 8.62183 11.7312 8.62183C10.6753 8.62183 10.2437 9.3685 10.7745 10.2843C11.0778 10.8152 10.897 11.4918 10.3662 11.7952L9.35699 12.3727C8.89616 12.6468 8.30116 12.4835 8.02699 12.0227L7.96283 11.9118C7.43783 10.996 6.57449 10.996 6.04366 11.9118L5.97949 12.0227C5.70533 12.4835 5.11033 12.6468 4.64949 12.3727L3.64033 11.7952C3.10949 11.4918 2.92866 10.8093 3.23199 10.2843C3.76283 9.3685 3.33116 8.62183 2.27533 8.62183C1.66283 8.62183 1.16699 8.12017 1.16699 7.5135Z" stroke="#191B1E" stroke-miterlimit="10" stroke-linecap="round" stroke-linejoin="round"/>
</svg>
